<svg xmlns="http://www.w3.org/2000/svg" width="420" height="420" viewBox="0 0 420 420"> <rect width="100%" height="100%" fill="#000000"></rect> <defs> <linearGradient id="gradArm0" gradientUnits="userSpaceOnUse" x1="210" y1="210" x2="378" y2="210"> <stop offset="0%" stop-color="#ceb429" stop-opacity="0.8"></stop> <stop offset="100%" stop-color="#ceb429" stop-opacity="0"></stop> </linearGradient> <linearGradient id="gradArm1" gradientUnits="userSpaceOnUse" x1="210" y1="210" x2="210" y2="378"> <stop offset="0%" stop-color="#ea88ab" stop-opacity="0.8"></stop> <stop offset="100%" stop-color="#ea88ab" stop-opacity="0"></stop> </linearGradient> <linearGradient id="gradArm2" gradientUnits="userSpaceOnUse" x1="210" y1="210" x2="42" y2="210"> <stop offset="0%" stop-color="#5f22ea" stop-opacity="0.8"></stop> <stop offset="100%" stop-color="#5f22ea" stop-opacity="0"></stop> </linearGradient> <linearGradient id="gradArm3" gradientUnits="userSpaceOnUse" x1="210" y1="210" x2="210" y2="42"> <stop offset="0%" stop-color="#702bea" stop-opacity="0.8"></stop> <stop offset="100%" stop-color="#702bea" stop-opacity="0"></stop> </linearGradient> <radialGradient id="coreGlow" gradientUnits="userSpaceOnUse" cx="210" cy="210" r="63"> <stop offset="0%" stop-color="#a6e162" stop-opacity="1"></stop> <stop offset="50%" stop-color="#a6e162" stop-opacity="0.5"></stop> <stop offset="100%" stop-color="#a6e162" stop-opacity="0"></stop> </radialGradient> </defs> <path d="M 73.2 45.2 a 1.7 1.7 0 1 0 3.4 0 a 1.7 1.7 0 1 0 -3.4 0 M 353.9 130.8 a 1.6 1.6 0 1 0 3.2 0 a 1.6 1.6 0 1 0 -3.2 0 M 236 56.2 a 0.8 0.8 0 1 0 1.6 0 a 0.8 0.8 0 1 0 -1.6 0 M 412.29999999999995 415.4 a 1.6 1.6 0 1 0 3.2 0 a 1.6 1.6 0 1 0 -3.2 0 M 263.3 166.8 a 1 1 0 1 0 2 0 a 1 1 0 1 0 -2 0 M 347.4 378.4 a 1 1 0 1 0 2 0 a 1 1 0 1 0 -2 0 M 43.900000000000006 153.2 a 0.8 0.8 0 1 0 1.6 0 a 0.8 0.8 0 1 0 -1.6 0 M 403.3 19.1 a 1.5 1.5 0 1 0 3 0 a 1.5 1.5 0 1 0 -3 0 M 13 131.9 a 1.8 1.8 0 1 0 3.6 0 a 1.8 1.8 0 1 0 -3.6 0 M 11.600000000000001 293.7 a 1.7 1.7 0 1 0 3.4 0 a 1.7 1.7 0 1 0 -3.4 0 M 223.20000000000002 32 a 0.7 0.7 0 1 0 1.4 0 a 0.7 0.7 0 1 0 -1.4 0 M 178.7 124 a 1.5 1.5 0 1 0 3 0 a 1.5 1.5 0 1 0 -3 0 M 5 137.7 a 1.8 1.8 0 1 0 3.6 0 a 1.8 1.8 0 1 0 -3.6 0 M 61.1 340.7 a 0.9 0.9 0 1 0 1.8 0 a 0.9 0.9 0 1 0 -1.8 0 M 295.8 122 a 1.4 1.4 0 1 0 2.8 0 a 1.4 1.4 0 1 0 -2.8 0 M 157.7 282.5 a 0.8 0.8 0 1 0 1.6 0 a 0.8 0.8 0 1 0 -1.6 0 M 241 219.2 a 0.9 0.9 0 1 0 1.8 0 a 0.9 0.9 0 1 0 -1.8 0 M 251.7 332.5 a 2 2 0 1 0 4 0 a 2 2 0 1 0 -4 0 M 36.800000000000004 400.4 a 1.8 1.8 0 1 0 3.6 0 a 1.8 1.8 0 1 0 -3.6 0 M 415.09999999999997 285.4 a 1.8 1.8 0 1 0 3.6 0 a 1.8 1.8 0 1 0 -3.6 0 M 221.5 286.6 a 0.9 0.9 0 1 0 1.8 0 a 0.9 0.9 0 1 0 -1.8 0 M 5.1 113 a 0.5 0.5 0 1 0 1 0 a 0.5 0.5 0 1 0 -1 0 M 377.2 292.8 a 1.6 1.6 0 1 0 3.2 0 a 1.6 1.6 0 1 0 -3.2 0 M 265.5 138.5 a 1.7 1.7 0 1 0 3.4 0 a 1.7 1.7 0 1 0 -3.4 0 M 170.6 402.2 a 1 1 0 1 0 2 0 a 1 1 0 1 0 -2 0 M 378 274.5 a 0.8 0.8 0 1 0 1.6 0 a 0.8 0.8 0 1 0 -1.6 0 M 15.7 56 a 1.5 1.5 0 1 0 3 0 a 1.5 1.5 0 1 0 -3 0 M 368.4 372.7 a 1 1 0 1 0 2 0 a 1 1 0 1 0 -2 0 M 304 339.5 a 1.6 1.6 0 1 0 3.2 0 a 1.6 1.6 0 1 0 -3.2 0 M 407.5 390.1 a 1.4 1.4 0 1 0 2.8 0 a 1.4 1.4 0 1 0 -2.8 0 M 391.3 80.8 a 1 1 0 1 0 2 0 a 1 1 0 1 0 -2 0 M 234.70000000000002 243.7 a 0.6 0.6 0 1 0 1.2 0 a 0.6 0.6 0 1 0 -1.2 0 M 174.3 134.1 a 0.6 0.6 0 1 0 1.2 0 a 0.6 0.6 0 1 0 -1.2 0 M 128.6 361.1 a 0.5 0.5 0 1 0 1 0 a 0.5 0.5 0 1 0 -1 0 M 332.8 60.1 a 0.5 0.5 0 1 0 1 0 a 0.5 0.5 0 1 0 -1 0 M 95.2 281.8 a 0.8 0.8 0 1 0 1.6 0 a 0.8 0.8 0 1 0 -1.6 0 M 323.09999999999997 90.8 a 1.6 1.6 0 1 0 3.2 0 a 1.6 1.6 0 1 0 -3.2 0 M 393.2 126.6 a 1.8 1.8 0 1 0 3.6 0 a 1.8 1.8 0 1 0 -3.6 0 M 181.4 246.7 a 0.9 0.9 0 1 0 1.8 0 a 0.9 0.9 0 1 0 -1.8 0 M 288.9 378.6 a 1.5 1.5 0 1 0 3 0 a 1.5 1.5 0 1 0 -3 0 M 310.4 92.8 a 1.3 1.3 0 1 0 2.6 0 a 1.3 1.3 0 1 0 -2.6 0 M 331.6 350.2 a 0.7 0.7 0 1 0 1.4 0 a 0.7 0.7 0 1 0 -1.4 0 M 49.4 401 a 1 1 0 1 0 2 0 a 1 1 0 1 0 -2 0 M 225.9 38.8 a 2 2 0 1 0 4 0 a 2 2 0 1 0 -4 0 M 118.8 304.1 a 1.4 1.4 0 1 0 2.8 0 a 1.4 1.4 0 1 0 -2.8 0 M 184.1 38.3 a 0.6 0.6 0 1 0 1.2 0 a 0.6 0.6 0 1 0 -1.2 0 M 13.2 351.9 a 1.3 1.3 0 1 0 2.6 0 a 1.3 1.3 0 1 0 -2.6 0 M 50.2 319.9 a 1.3 1.3 0 1 0 2.6 0 a 1.3 1.3 0 1 0 -2.6 0 M 183.5 66.1 a 1.8 1.8 0 1 0 3.6 0 a 1.8 1.8 0 1 0 -3.6 0 M 28.099999999999998 322.9 a 0.8 0.8 0 1 0 1.6 0 a 0.8 0.8 0 1 0 -1.6 0 M 157.29999999999998 94.6 a 1.4 1.4 0 1 0 2.8 0 a 1.4 1.4 0 1 0 -2.8 0 M 6.7 411.3 a 1 1 0 1 0 2 0 a 1 1 0 1 0 -2 0 M 381 160.6 a 0.9 0.9 0 1 0 1.8 0 a 0.9 0.9 0 1 0 -1.8 0 M 113.7 244.4 a 1.7 1.7 0 1 0 3.4 0 a 1.7 1.7 0 1 0 -3.4 0 M 144 58.4 a 0.8 0.8 0 1 0 1.6 0 a 0.8 0.8 0 1 0 -1.6 0 M 245.5 270.2 a 0.6 0.6 0 1 0 1.2 0 a 0.6 0.6 0 1 0 -1.2 0 M 331 85.5 a 1.7 1.7 0 1 0 3.4 0 a 1.7 1.7 0 1 0 -3.4 0 M 270.9 328.8 a 1 1 0 1 0 2 0 a 1 1 0 1 0 -2 0 M 147.4 4.2 a 1.9 1.9 0 1 0 3.8 0 a 1.9 1.9 0 1 0 -3.8 0 M 293.4 412.6 a 0.5 0.5 0 1 0 1 0 a 0.5 0.5 0 1 0 -1 0 M 313 90.4 a 0.9 0.9 0 1 0 1.8 0 a 0.9 0.9 0 1 0 -1.8 0 M 58.300000000000004 279.4 a 0.8 0.8 0 1 0 1.6 0 a 0.8 0.8 0 1 0 -1.6 0 M 40.4 313.6 a 1.6 1.6 0 1 0 3.2 0 a 1.6 1.6 0 1 0 -3.2 0 M 121 249.1 a 1.5 1.5 0 1 0 3 0 a 1.5 1.5 0 1 0 -3 0 M 403.3 100.4 a 1 1 0 1 0 2 0 a 1 1 0 1 0 -2 0 M 291.8 320.6 a 1.9 1.9 0 1 0 3.8 0 a 1.9 1.9 0 1 0 -3.8 0 M 236.7 358.7 a 1.5 1.5 0 1 0 3 0 a 1.5 1.5 0 1 0 -3 0 M 68.9 331.6 a 0.5 0.5 0 1 0 1 0 a 0.5 0.5 0 1 0 -1 0 M 138.60000000000002 238.9 a 1.2 1.2 0 1 0 2.4 0 a 1.2 1.2 0 1 0 -2.4 0 M 112.80000000000001 51.8 a 0.6 0.6 0 1 0 1.2 0 a 0.6 0.6 0 1 0 -1.2 0 M 264.5 340.4 a 1.8 1.8 0 1 0 3.6 0 a 1.8 1.8 0 1 0 -3.6 0 M 0.5000000000000001 120.4 a 0.6 0.6 0 1 0 1.2 0 a 0.6 0.6 0 1 0 -1.2 0 M 401.5 46.5 a 0.9 0.9 0 1 0 1.8 0 a 0.9 0.9 0 1 0 -1.8 0 M 352.59999999999997 350.6 a 1.6 1.6 0 1 0 3.2 0 a 1.6 1.6 0 1 0 -3.2 0 M 249.1 43.3 a 1.4 1.4 0 1 0 2.8 0 a 1.4 1.4 0 1 0 -2.8 0 M 201.6 45.1 a 1.5 1.5 0 1 0 3 0 a 1.5 1.5 0 1 0 -3 0 M 329.8 7.6 a 0.9 0.9 0 1 0 1.8 0 a 0.9 0.9 0 1 0 -1.8 0 M 344.59999999999997 298.5 a 1.6 1.6 0 1 0 3.2 0 a 1.6 1.6 0 1 0 -3.2 0 M 268.3 350.9 a 0.9 0.9 0 1 0 1.8 0 a 0.9 0.9 0 1 0 -1.8 0 M 365 22.3 a 1.6 1.6 0 1 0 3.2 0 a 1.6 1.6 0 1 0 -3.2 0 M 111.3 317.4 a 1.2 1.2 0 1 0 2.4 0 a 1.2 1.2 0 1 0 -2.4 0 M 114.8 251.1 a 1.9 1.9 0 1 0 3.8 0 a 1.9 1.9 0 1 0 -3.8 0 M 67.3 226.5 a 0.7 0.7 0 1 0 1.4 0 a 0.7 0.7 0 1 0 -1.4 0 M 385.7 30.4 a 0.8 0.8 0 1 0 1.6 0 a 0.8 0.8 0 1 0 -1.6 0 M 207.2 75.3 a 0.5 0.5 0 1 0 1 0 a 0.5 0.5 0 1 0 -1 0 M 207.2 72.6 a 1.9 1.9 0 1 0 3.8 0 a 1.9 1.9 0 1 0 -3.8 0 M 168.6 118.3 a 1.6 1.6 0 1 0 3.2 0 a 1.6 1.6 0 1 0 -3.2 0 M 386.3 128.8 a 0.5 0.5 0 1 0 1 0 a 0.5 0.5 0 1 0 -1 0 M 346.29999999999995 39.6 a 1.1 1.1 0 1 0 2.2 0 a 1.1 1.1 0 1 0 -2.2 0 M 146.2 290.1 a 1.9 1.9 0 1 0 3.8 0 a 1.9 1.9 0 1 0 -3.8 0 M 196.7 215.6 a 1.8 1.8 0 1 0 3.6 0 a 1.8 1.8 0 1 0 -3.6 0 M 37.1 40.6 a 0.6 0.6 0 1 0 1.2 0 a 0.6 0.6 0 1 0 -1.2 0 M 121.39999999999999 184.9 a 1.4 1.4 0 1 0 2.8 0 a 1.4 1.4 0 1 0 -2.8 0 M 101.3 236.3 a 1 1 0 1 0 2 0 a 1 1 0 1 0 -2 0 M 59 348.9 a 1 1 0 1 0 2 0 a 1 1 0 1 0 -2 0 M 151.5 1.8 a 0.8 0.8 0 1 0 1.6 0 a 0.8 0.8 0 1 0 -1.6 0 M 383.7 328.1 a 0.6 0.6 0 1 0 1.2 0 a 0.6 0.6 0 1 0 -1.2 0 M 62.8 115.2 a 1.1 1.1 0 1 0 2.2 0 a 1.1 1.1 0 1 0 -2.2 0 M 209 110.2 a 1.4 1.4 0 1 0 2.8 0 a 1.4 1.4 0 1 0 -2.8 0 M 32.9 340.6 a 1.2 1.2 0 1 0 2.4 0 a 1.2 1.2 0 1 0 -2.4 0 M 146.1 353.3 a 0.9 0.9 0 1 0 1.8 0 a 0.9 0.9 0 1 0 -1.8 0 M 234.6 22.2 a 1.5 1.5 0 1 0 3 0 a 1.5 1.5 0 1 0 -3 0 M 32 308.5 a 1.7 1.7 0 1 0 3.4 0 a 1.7 1.7 0 1 0 -3.4 0 M 245.79999999999998 31.3 a 1.3 1.3 0 1 0 2.6 0 a 1.3 1.3 0 1 0 -2.6 0 M 332 151.5 a 0.7 0.7 0 1 0 1.4 0 a 0.7 0.7 0 1 0 -1.4 0 M 399.5 211.6 a 0.6 0.6 0 1 0 1.2 0 a 0.6 0.6 0 1 0 -1.2 0 M 414.7 365.3 a 0.8 0.8 0 1 0 1.6 0 a 0.8 0.8 0 1 0 -1.6 0 M 368.2 141.5 a 1.2 1.2 0 1 0 2.4 0 a 1.2 1.2 0 1 0 -2.4 0 M 217.79999999999998 84.9 a 1.8 1.8 0 1 0 3.6 0 a 1.8 1.8 0 1 0 -3.6 0 M 196.3 134.8 a 0.6 0.6 0 1 0 1.2 0 a 0.6 0.6 0 1 0 -1.2 0 M 239.5 235.2 a 1.4 1.4 0 1 0 2.8 0 a 1.4 1.4 0 1 0 -2.8 0 M 209.60000000000002 405.6 a 1.2 1.2 0 1 0 2.4 0 a 1.2 1.2 0 1 0 -2.4 0 M 134 189 a 1 1 0 1 0 2 0 a 1 1 0 1 0 -2 0 M 83.5 214.7 a 1.4 1.4 0 1 0 2.8 0 a 1.4 1.4 0 1 0 -2.8 0 M 337.1 417.9 a 0.9 0.9 0 1 0 1.8 0 a 0.9 0.9 0 1 0 -1.8 0 M 126.8 267.3 a 1.3 1.3 0 1 0 2.6 0 a 1.3 1.3 0 1 0 -2.6 0 M 349.09999999999997 381.1 a 0.6 0.6 0 1 0 1.2 0 a 0.6 0.6 0 1 0 -1.2 0 M 174.29999999999998 187.9 a 1.3 1.3 0 1 0 2.6 0 a 1.3 1.3 0 1 0 -2.6 0 M 87 238.7 a 0.8 0.8 0 1 0 1.6 0 a 0.8 0.8 0 1 0 -1.6 0 M 350.3 292.4 a 0.8 0.8 0 1 0 1.6 0 a 0.8 0.8 0 1 0 -1.6 0 M 29.400000000000002 112.4 a 1.9 1.9 0 1 0 3.8 0 a 1.9 1.9 0 1 0 -3.8 0 M 257.79999999999995 129.4 a 0.6 0.6 0 1 0 1.2 0 a 0.6 0.6 0 1 0 -1.2 0 M 144 179.8 a 1.9 1.9 0 1 0 3.8 0 a 1.9 1.9 0 1 0 -3.8 0 M 137.4 57 a 0.7 0.7 0 1 0 1.4 0 a 0.7 0.7 0 1 0 -1.4 0 M 317 386.6 a 0.7 0.7 0 1 0 1.4 0 a 0.7 0.7 0 1 0 -1.4 0 M 150.5 49 a 0.8 0.8 0 1 0 1.6 0 a 0.8 0.8 0 1 0 -1.6 0 M 234.3 123.8 a 1.6 1.6 0 1 0 3.2 0 a 1.6 1.6 0 1 0 -3.2 0 M -0.7 245.8 a 1.4 1.4 0 1 0 2.8 0 a 1.4 1.4 0 1 0 -2.8 0 M 137.1 303.2 a 1 1 0 1 0 2 0 a 1 1 0 1 0 -2 0 M 235.5 183.4 a 1.6 1.6 0 1 0 3.2 0 a 1.6 1.6 0 1 0 -3.2 0 M 1.9000000000000001 122.2 a 1.3 1.3 0 1 0 2.6 0 a 1.3 1.3 0 1 0 -2.6 0 M 110 258.6 a 0.9 0.9 0 1 0 1.8 0 a 0.9 0.9 0 1 0 -1.8 0 M 376 149.9 a 1.7 1.7 0 1 0 3.4 0 a 1.7 1.7 0 1 0 -3.4 0 M 384.2 259.2 a 1.8 1.8 0 1 0 3.6 0 a 1.8 1.8 0 1 0 -3.6 0 M 90.60000000000001 84 a 1.3 1.3 0 1 0 2.6 0 a 1.3 1.3 0 1 0 -2.6 0 M 173.8 148.1 a 1.5 1.5 0 1 0 3 0 a 1.5 1.5 0 1 0 -3 0 M 139.4 349.8 a 1 1 0 1 0 2 0 a 1 1 0 1 0 -2 0 M 137.8 98.2 a 1.6 1.6 0 1 0 3.2 0 a 1.6 1.6 0 1 0 -3.2 0 M 331.6 150.5 a 0.5 0.5 0 1 0 1 0 a 0.5 0.5 0 1 0 -1 0 M 300.59999999999997 65.1 a 1.8 1.8 0 1 0 3.6 0 a 1.8 1.8 0 1 0 -3.6 0 M 340.8 367.9 a 0.8 0.8 0 1 0 1.6 0 a 0.8 0.8 0 1 0 -1.6 0 M 313.3 356.1 a 1.7 1.7 0 1 0 3.4 0 a 1.7 1.7 0 1 0 -3.4 0 M 402.9 104.1 a 2 2 0 1 0 4 0 a 2 2 0 1 0 -4 0 M 298.5 394.9 a 0.9 0.9 0 1 0 1.8 0 a 0.9 0.9 0 1 0 -1.8 0 M 103.7 323.8 a 1.6 1.6 0 1 0 3.2 0 a 1.6 1.6 0 1 0 -3.2 0 M 137.4 258.2 a 1.5 1.5 0 1 0 3 0 a 1.5 1.5 0 1 0 -3 0 M 27.4 26 a 1.8 1.8 0 1 0 3.6 0 a 1.8 1.8 0 1 0 -3.6 0 M 20.599999999999998 195.5 a 1.3 1.3 0 1 0 2.6 0 a 1.3 1.3 0 1 0 -2.6 0 M 252.29999999999998 327.9 a 0.8 0.8 0 1 0 1.6 0 a 0.8 0.8 0 1 0 -1.6 0 M 163.1 207.1 a 0.9 0.9 0 1 0 1.8 0 a 0.9 0.9 0 1 0 -1.8 0 " fill="#e6cecc" opacity="0.8"></path> <path d="M 210 210 L 213.3 210.9 L 215.8 213.6 L 217 217.6 L 216.2 222.2 L 213.3 226.8 L 208.3 230.5 L 201.7 232.5 L 193.9 232.2 L 185.8 229.2 L 178.4 223.3 L 172.6 214.7 L 169.3 204.1 L 169.2 192.1 L 172.8 179.7 L 180.1 168.1 L 191.1 158.5 L 205 151.9 L 220.9 149.3 L 237.9 151.1 L 254.4 157.7 L 269.2 169 L 281 184.5 L 288.6 203.2 L 291.1 224.1 L 288 245.6 L 279.1 266.3 L 264.8 284.6 L 245.7 299.1 L 222.8 308.6 L 197.6 312.1 L 171.5 309.1 L 146.4 299.4 L 123.8 283.3 L 105.5 261.7 L 92.7 235.5 L 86.6 206.3 L 87.8 175.8 L 96.6 145.8 L 112.8 118.2 L 135.6 94.8 L 164 77.2 L 196.5 66.6 L 231.2 64.1 L 266.4 70.1 L 299.8 84.5 L 329.4 107 L 353.3 136.4 L 370 171.3 L 378 210" stroke="url(#gradArm0)" stroke-width="2" fill="none" stroke-linecap="round"></path><path d="M 210 210 L 209.1 213.3 L 206.4 215.8 L 202.4 217 L 197.8 216.2 L 193.2 213.3 L 189.5 208.3 L 187.5 201.7 L 187.8 193.9 L 190.8 185.8 L 196.7 178.4 L 205.3 172.6 L 215.9 169.3 L 227.9 169.2 L 240.3 172.8 L 251.9 180.1 L 261.5 191.1 L 268.1 205 L 270.7 220.9 L 268.9 237.9 L 262.3 254.4 L 251 269.2 L 235.5 281 L 216.8 288.6 L 195.9 291.1 L 174.4 288 L 153.7 279.1 L 135.4 264.8 L 120.9 245.7 L 111.4 222.8 L 107.9 197.6 L 110.9 171.5 L 120.6 146.4 L 136.7 123.8 L 158.3 105.5 L 184.5 92.7 L 213.7 86.6 L 244.2 87.8 L 274.2 96.6 L 301.8 112.8 L 325.2 135.6 L 342.8 164 L 353.4 196.5 L 355.9 231.2 L 349.9 266.4 L 335.5 299.8 L 313 329.4 L 283.6 353.3 L 248.7 370 L 210 378" stroke="url(#gradArm1)" stroke-width="2" fill="none" stroke-linecap="round"></path><path d="M 210 210 L 206.7 209.1 L 204.2 206.4 L 203 202.4 L 203.8 197.8 L 206.7 193.2 L 211.7 189.5 L 218.3 187.5 L 226.1 187.8 L 234.2 190.8 L 241.6 196.7 L 247.4 205.3 L 250.7 215.9 L 250.8 227.9 L 247.2 240.3 L 239.9 251.9 L 228.9 261.5 L 215 268.1 L 199.1 270.7 L 182.1 268.9 L 165.6 262.3 L 150.8 251 L 139 235.5 L 131.4 216.8 L 128.9 195.9 L 132 174.4 L 140.9 153.7 L 155.2 135.4 L 174.3 120.9 L 197.2 111.4 L 222.4 107.9 L 248.5 110.9 L 273.6 120.6 L 296.2 136.7 L 314.5 158.3 L 327.3 184.5 L 333.4 213.7 L 332.2 244.2 L 323.4 274.2 L 307.2 301.8 L 284.4 325.2 L 256 342.8 L 223.5 353.4 L 188.8 355.9 L 153.6 349.9 L 120.2 335.5 L 90.6 313 L 66.7 283.6 L 50 248.7 L 42 210" stroke="url(#gradArm2)" stroke-width="2" fill="none" stroke-linecap="round"></path><path d="M 210 210 L 210.9 206.7 L 213.6 204.2 L 217.6 203 L 222.2 203.8 L 226.8 206.7 L 230.5 211.7 L 232.5 218.3 L 232.2 226.1 L 229.2 234.2 L 223.3 241.6 L 214.7 247.4 L 204.1 250.7 L 192.1 250.8 L 179.7 247.2 L 168.1 239.9 L 158.5 228.9 L 151.9 215 L 149.3 199.1 L 151.1 182.1 L 157.7 165.6 L 169 150.8 L 184.5 139 L 203.2 131.4 L 224.1 128.9 L 245.6 132 L 266.3 140.9 L 284.6 155.2 L 299.1 174.3 L 308.6 197.2 L 312.1 222.4 L 309.1 248.5 L 299.4 273.6 L 283.3 296.2 L 261.7 314.5 L 235.5 327.3 L 206.3 333.4 L 175.8 332.2 L 145.8 323.4 L 118.2 307.2 L 94.8 284.4 L 77.2 256 L 66.6 223.5 L 64.1 188.8 L 70.1 153.6 L 84.5 120.2 L 107 90.6 L 136.4 66.7 L 171.3 50 L 210 42" stroke="url(#gradArm3)" stroke-width="2" fill="none" stroke-linecap="round"></path> <circle cx="210" cy="210" r="63" fill="url(#coreGlow)"></circle> </svg>