<svg xmlns="http://www.w3.org/2000/svg" width="420" height="420" viewBox="0 0 420 420">
      <path d="M188.09,207.28c-3.69-3.77-12.11-13.12-15.41-25.22-.19-.7-1.95-7.42-.55-14.89.5-2.67,1.29-4.79,3.07-6.54,1.85-1.81,3.98-2.43,4.97-2.71,4.04-1.13,9.2-.49,13.09,2.65,4.46,3.59,5.08,8.65,5.2,9.82-1.07,3.78-2.14,7.57-3.21,11.35-2.4,8.51-4.79,17.03-7.16,25.55ZM188.09,207.28c2.05-.79,17.24-6.71,25.32-12.55,2.66-1.93,4.31-3.67,5.39-4.98,1.7-2.07,3.64-4.44,4.31-7.89,1.19-6.12-2.52-10.95-2.69-11.17-2.86-3.61-7.69-6.12-12.28-5.45-1.44.21-3.78.74-6.21,2.24-1.56.97-2.69,2.04-3.46,2.9-1.07,3.78-2.14,7.57-3.21,11.35-2.4,8.51-4.79,17.03-7.16,25.55ZM134.64,177.69c-.14-1.32-.19-2.85-.04-4.53.06-.71.24-2.29.78-4.25.12-.44.38-1.31.8-2.39.22-.56.8-1.97,1.82-3.7.79-1.33,1.33-2.26,2.37-3.3.64-.64,1.19-1.05,1.4-1.19.64-.46,1.61-1.06,2.89-1.5.68-.24,1.64-.56,2.95-.59.51-.01,2.14-.03,3.6.74.71.38,1.26.87,1.26.87.29.26.52.51.73.75.27.3.45.51.65.79.44.63.84,1.2.73,1.79-.02.11-.09.32-.24.76-.07.21-.09.25-.18.52-.21.6-.18.57-.27.81-.13.34-.27.6-.43.91-.15.29-.18.32-.33.61-.11.22-.14.3-.27.56-.1.21-.16.31-.27.53-.27.51-.27.53-.5.99-.23.44-.34.65-.5.9-.22.36-.41.61-.55.8-.26.34-.46.6-.77.91-.21.21-.29.26-.57.55-.11.12-.16.17-.43.47-.45.5-.67.75-.77.83-.24.23-.43.37-.71.59-.21.16-.51.38-.89.62-.35.22-.36.2-.8.47-.37.23-.36.24-.7.45-.28.17-.53.32-.86.49-.14.07-.35.16-.77.34-.36.16-.5.21-1,.42-.8.34-.75.33-.94.4-.39.15-.47.17-1,.38-.32.13-.42.17-.66.27-.25.1-.62.25-1.39.52-1.1.39-1.05.35-2.2.75-.3.11-.66.24-1.18.41-.32.1-.58.18-.75.24ZM160.21,159.02c1.15-.2,2.05-.19,2.37-.18.96.02,1.68.15,1.84.18.31.06.88.26,1.84.54,0,0,2.22.79,4.98,2.75.24.17.71.55.76.6.04.04,0,0,.6.58.26.25.39.38.37.54,0,.03,0,.03-.11.3,0,.01-.05.14-.09.26-.06.17-.07.21-.14.45-.09.28-.09.26-.13.41-.04.12-.06.22-.11.42-.06.26-.1.39-.1.41,0,.03,0,.05-.01.05-.06.03-.35-.52-.57-.87-.34-.55-.68-.89-1.08-1.3-.53-.54-.98-.86-1.6-1.3-.48-.34-1.32-.93-2.53-1.51-.55-.26-1.21-.58-2.1-.83-.23-.06-2.94-.79-5.91.04-.35.1-.9.26-1.57.58-.33.16-1.03.49-1.81,1.09-.62.48-1.12.98-1.19.91-.02-.02.02-.14.1-.37.06-.16.11-.29.12-.32.26-.58,1.76-1.62,1.76-1.62.59-.41.89-.61,1.13-.75.26-.15.79-.42,1.51-.67.69-.24,1.24-.33,1.65-.41ZM222.91,182.69c-.21.75-.52,1.61-.97,2.53-.69,1.41-1.5,2.52-2.2,3.34,3.35-.29,6.18-.46,8.32-.56,2.64-.13,4.63-.17,6.68-.22,3.08-.07,5.11-.12,7.89-.09,2.98.03,5.23.13,7.14.22,2.37.11,2.99.18,4.45.27,1.11.07,1.67.11,2.22.12,2.53.06,2.79-.25,2.86-.42.04-.09-.03-.39-.17-.97-.07-.29-.14-.59-.27-.98-.07-.2-.17-.5-.35-.88-.15-.32-.3-.63-.57-.97-.19-.24-.52-.65-1.09-.92-.09-.04-.37-.17-.75-.24-.29-.05-.52-.04-.6-.04-.32-.02-.77-.04-1.97-.08-3.88-.14-5.81-.2-7.96-.24-1.96-.03-4.28-.06-9.73-.03-3.33.02-7.72.06-12.95.14Z" fill="#130133"></path>
      <path d="M187.52,209.38c1.93-.71,17.72-6.59,26.92-13.01.75-.52,3.94-2.79,7.09-7.02,3.11-4.17,3.69-6.91,3.88-8.21.13-.9.46-3.25-.28-5.95-.19-.69-.72-2.4-2.55-4.76-1.2-1.54-4.32-5.55-9.55-6.66-3.77-.8-6.74.32-8.04.83-2.23.88-3.92,2.13-5.02,3.09-.76,2.46-1.52,4.92-2.27,7.39,0,0-1.13,3.72-2.26,7.43-1.54,5.12-4.35,14.58-7.92,26.84ZM187.52,209.38c-2.72-2.68-13.69-13.92-16.68-28.83-.58-2.9-1.74-9,.16-15.43.49-1.66,1.39-4.58,3.71-6.81,1.91-1.83,3.84-2.27,5.49-2.62,1.74-.37,7.01-1.39,12.48,2.48,4.36,3.09,6.48,7.61,7.27,9.53-1.52,4.91-3.02,9.85-4.53,14.83-2.72,9.02-5.36,17.97-7.92,26.84ZM159.83,158.8c.48-.14,1.01-.29,1.74-.38.94-.11,1.67-.05,2.18,0,.3.03.71.07,1.26.19.52.12.92.26,1.28.39.4.14.7.26.96.37.35.14.63.26,1,.45.46.23.8.43,1,.55.14.09.41.25.93.59,1.04.67.68.46.83.55,0,0,.22.13.63.46.18.15.33.27.32.43,0,.07-.03.08-.11.25-.02.05-.07.18-.17.45-.08.21-.12.31-.16.42-.08.22-.06.18-.2.55-.1.29-.12.32-.14.41-.04.15-.08.31-.08.31-.05.18-.05.19-.06.2-.07.07-.6-.44-.74-.56,0,0-.25-.23-1.63-1.35-.95-.77-1.82-1.22-2.41-1.51-.61-.31-1.25-.63-2.18-.87-.86-.22-1.53-.27-2.07-.3-1.33-.08-2.35.06-2.68.11-.6.09-1.45.23-2.41.64-1.81.79-2.74,2.02-2.96,1.83-.13-.11.13-.62.29-.86.17-.27.32-.4,1.29-1.11.66-.49,1.08-.79,1.53-1.05.49-.28.87-.45,1.11-.56.21-.09.81-.35,1.63-.59ZM134.49,177.74c-.33-2.41-.21-4.35-.04-5.65.04-.34.21-1.55.63-3.1.74-2.73,1.75-4.56,2.39-5.73.78-1.4,1.44-2.6,2.66-3.84.45-.46,1.3-1.25,2.48-1.94.33-.19,1.14-.64,2.23-.98.81-.25,2.33-.7,4.26-.42.61.09,2.16.33,3.66,1.47,1.6,1.21,2.11,2.66,1.99,3.04,0,.01-.05.18-.12.38-.09.29-.16.5-.19.58-.39,1.16-.36,1.13-.48,1.43-.2.54-.4.95-.52,1.2-.07.15-.06.13-.48.95-.06.12-.27.52-.5.97-.4.78-.39.77-.49.95-.25.47-.39.74-.64,1.09-.09.13-.3.43-.6.77-.21.24-.21.21-.66.69-.14.15-.14.15-.83.9-.26.29-.4.43-.41.44-.21.22-.56.58-1.07.98-.34.27-.62.45-.89.62-.32.2-.36.21-.8.47-.95.57-1.11.74-1.73,1.03-.02,0,0,0-.61.26-1.2.51-1.16.49-1.37.58-.61.26-1.1.44-1.57.62-.4.15-.48.18-1.18.45-.35.13-.46.18-.68.26-.33.12-.55.2-.98.34-.17.06-.86.29-1.41.48-.71.24-.82.29-1.18.41-.38.13-.7.22-.91.28ZM225.48,180.68c-.06.51-.17,1.2-.39,1.98-.27.97-.57,1.65-.87,2.3-.14.31-.54,1.18-1.17,2.21-.42.7-.78,1.18-1.27,1.84-.45.61-.83,1.1-1.12,1.46,1.33-.22,3.16-.48,5.35-.69,1.75-.17,3.04-.24,4.75-.33,2.93-.16,5.22-.21,6.37-.22,1.72-.03,2.97-.01,4.79,0,1.28.01,2.97.03,5.21.09,1.83.05,3.39.1,5.5.22,2.29.14,2.66.22,4.71.3.26.01.69.06,1.26.04.71-.03.85-.12.93-.23.07-.1.1-.21.01-.91-.07-.55-.1-.82-.2-1.25-.11-.47-.22-.82-.33-1.13-.32-.93-.52-1.51-.97-2.15-.04-.05-.22-.31-.51-.6-.63-.66-1.23-.99-1.7-1.25-.38-.21-.96-.52-1.76-.71-.41-.1-.74-.13-1.09-.16-.38-.04-.39-.01-1.57-.06-1.27-.05-1.45-.05-2.14-.08-2.22-.09-2.47-.11-3.94-.16-.48-.02-2.46-.09-4.89-.14-2.76-.05-2.78,0-5.96-.06-1.23-.02-2.8-.05-4.87-.12-1.67-.06-3.08-.13-4.15-.18Z" fill="#d64afb"></path>
    </svg>