<?xml version="1.0" encoding="UTF-8"?>
<svg id="phil" xmlns="http://www.w3.org/2000/svg" width="420" height="420" viewBox="0 0 420 420">
  <defs>
    <style>
      .cls-1 {
        fill: #9b00ff;
      }
    </style>
  </defs>
  <g id="eyes">
    <g id="eyesLegendary">
      <path id="eyes-2" data-name="eyes" class="cls-1" d="M188.09,207.28c-3.69-3.77-12.11-13.12-15.41-25.22-.19-.7-1.95-7.42-.55-14.89.5-2.67,1.29-4.79,3.07-6.54,1.85-1.81,3.98-2.43,4.97-2.71,4.04-1.13,9.2-.49,13.09,2.65,4.46,3.59,5.08,8.65,5.2,9.82-1.07,3.78-2.14,7.57-3.21,11.35-2.4,8.51-4.79,17.03-7.16,25.55ZM188.09,207.28c2.05-.79,17.24-6.71,25.32-12.55,2.66-1.93,4.31-3.67,5.39-4.98,1.7-2.07,3.64-4.44,4.31-7.89,1.19-6.12-2.52-10.95-2.69-11.17-2.86-3.61-7.69-6.12-12.28-5.45-1.44.21-3.78.74-6.21,2.24-1.56.97-2.69,2.04-3.46,2.9-1.07,3.78-2.14,7.57-3.21,11.35-2.4,8.51-4.79,17.03-7.16,25.55ZM134.64,177.69c-.14-1.32-.19-2.85-.04-4.53.06-.71.24-2.29.78-4.25.12-.44.38-1.31.8-2.39.22-.56.8-1.97,1.82-3.7.79-1.33,1.33-2.26,2.37-3.3.64-.64,1.19-1.05,1.4-1.19.64-.46,1.61-1.06,2.89-1.5.68-.24,1.64-.56,2.95-.59.51-.01,2.14-.03,3.6.74.71.38,1.26.87,1.26.87.29.26.52.51.73.75.27.3.45.51.65.79.44.63.84,1.2.73,1.79-.02.11-.09.32-.24.76-.07.21-.09.25-.18.52-.21.6-.18.57-.27.81-.13.34-.27.6-.43.91-.15.29-.18.32-.33.61-.11.22-.14.3-.27.56-.1.21-.16.31-.27.53-.27.51-.27.53-.5.99-.23.44-.34.65-.5.9-.22.36-.41.61-.55.8-.26.34-.46.6-.77.91-.21.21-.29.26-.57.55-.11.12-.16.17-.43.47-.45.5-.67.75-.77.83-.24.23-.43.37-.71.59-.21.16-.51.38-.89.62-.35.22-.36.2-.8.47-.37.23-.36.24-.7.45-.28.17-.53.32-.86.49-.14.07-.35.16-.77.34-.36.16-.5.21-1,.42-.8.34-.75.33-.94.4-.39.15-.47.17-1,.38-.32.13-.42.17-.66.27-.25.1-.62.25-1.39.52-1.1.39-1.05.35-2.2.75-.3.11-.66.24-1.18.41-.32.1-.58.18-.75.24ZM160.21,159.02c1.15-.2,2.05-.19,2.37-.18.96.02,1.68.15,1.84.18.31.06.88.26,1.84.54,0,0,2.22.79,4.98,2.75.24.17.71.55.76.6.04.04,0,0,.6.58.26.25.39.38.37.54,0,.03,0,.03-.11.3,0,.01-.05.14-.09.26-.06.17-.07.21-.14.45-.09.28-.09.26-.13.41-.04.12-.06.22-.11.42-.06.26-.1.39-.1.41,0,.03,0,.05-.01.05-.06.03-.35-.52-.57-.87-.34-.55-.68-.89-1.08-1.3-.53-.54-.98-.86-1.6-1.3-.48-.34-1.32-.93-2.53-1.51-.55-.26-1.21-.58-2.1-.83-.23-.06-2.94-.79-5.91.04-.35.1-.9.26-1.57.58-.33.16-1.03.49-1.81,1.09-.62.48-1.12.98-1.19.91-.02-.02.02-.14.1-.37.06-.16.11-.29.12-.32.26-.58,1.76-1.62,1.76-1.62.59-.41.89-.61,1.13-.75.26-.15.79-.42,1.51-.67.69-.24,1.24-.33,1.65-.41ZM222.91,182.69c-.21.75-.52,1.61-.97,2.53-.69,1.41-1.5,2.52-2.2,3.34,3.35-.29,6.18-.46,8.32-.56,2.64-.13,4.63-.17,6.68-.22,3.08-.07,5.11-.12,7.89-.09,2.98.03,5.23.13,7.14.22,2.37.11,2.99.18,4.45.27,1.11.07,1.67.11,2.22.12,2.53.06,2.79-.25,2.86-.42.04-.09-.03-.39-.17-.97-.07-.29-.14-.59-.27-.98-.07-.2-.17-.5-.35-.88-.15-.32-.3-.63-.57-.97-.19-.24-.52-.65-1.09-.92-.09-.04-.37-.17-.75-.24-.29-.05-.52-.04-.6-.04-.32-.02-.77-.04-1.97-.08-3.88-.14-5.81-.2-7.96-.24-1.96-.03-4.28-.06-9.73-.03-3.33.02-7.72.06-12.95.14Z"/>
    </g>
  </g>
</svg>