<?xml version="1.0" encoding="UTF-8"?>
<svg id="phil" xmlns="http://www.w3.org/2000/svg" width="420" height="420" viewBox="0 0 420 420">
  <defs>
    <style>
      .cls-1 {
        fill: #f0d;
      }
    </style>
  </defs>
  <g id="eyes">
    <g id="eyesLegendary">
      <path id="frame" class="cls-1" d="M187.52,209.38c1.93-.71,17.72-6.59,26.92-13.01.75-.52,3.94-2.79,7.09-7.02,3.11-4.17,3.69-6.91,3.88-8.21.13-.9.46-3.25-.28-5.95-.19-.69-.72-2.4-2.55-4.76-1.2-1.54-4.32-5.55-9.55-6.66-3.77-.8-6.74.32-8.04.83-2.23.88-3.92,2.13-5.02,3.09-.76,2.46-1.52,4.92-2.27,7.39,0,0-1.13,3.72-2.26,7.43-1.54,5.12-4.35,14.58-7.92,26.84ZM187.52,209.38c-2.72-2.68-13.69-13.92-16.68-28.83-.58-2.9-1.74-9,.16-15.43.49-1.66,1.39-4.58,3.71-6.81,1.91-1.83,3.84-2.27,5.49-2.62,1.74-.37,7.01-1.39,12.48,2.48,4.36,3.09,6.48,7.61,7.27,9.53-1.52,4.91-3.02,9.85-4.53,14.83-2.72,9.02-5.36,17.97-7.92,26.84ZM159.83,158.8c.48-.14,1.01-.29,1.74-.38.94-.11,1.67-.05,2.18,0,.3.03.71.07,1.26.19.52.12.92.26,1.28.39.4.14.7.26.96.37.35.14.63.26,1,.45.46.23.8.43,1,.55.14.09.41.25.93.59,1.04.67.68.46.83.55,0,0,.22.13.63.46.18.15.33.27.32.43,0,.07-.03.08-.11.25-.02.05-.07.18-.17.45-.08.21-.12.31-.16.42-.08.22-.06.18-.2.55-.1.29-.12.32-.14.41-.04.15-.08.31-.08.31-.05.18-.05.19-.06.2-.07.07-.6-.44-.74-.56,0,0-.25-.23-1.63-1.35-.95-.77-1.82-1.22-2.41-1.51-.61-.31-1.25-.63-2.18-.87-.86-.22-1.53-.27-2.07-.3-1.33-.08-2.35.06-2.68.11-.6.09-1.45.23-2.41.64-1.81.79-2.74,2.02-2.96,1.83-.13-.11.13-.62.29-.86.17-.27.32-.4,1.29-1.11.66-.49,1.08-.79,1.53-1.05.49-.28.87-.45,1.11-.56.21-.09.81-.35,1.63-.59ZM134.49,177.74c-.33-2.41-.21-4.35-.04-5.65.04-.34.21-1.55.63-3.1.74-2.73,1.75-4.56,2.39-5.73.78-1.4,1.44-2.6,2.66-3.84.45-.46,1.3-1.25,2.48-1.94.33-.19,1.14-.64,2.23-.98.81-.25,2.33-.7,4.26-.42.61.09,2.16.33,3.66,1.47,1.6,1.21,2.11,2.66,1.99,3.04,0,.01-.05.18-.12.38-.09.29-.16.5-.19.58-.39,1.16-.36,1.13-.48,1.43-.2.54-.4.95-.52,1.2-.07.15-.06.13-.48.95-.06.12-.27.52-.5.97-.4.78-.39.77-.49.95-.25.47-.39.74-.64,1.09-.09.13-.3.43-.6.77-.21.24-.21.21-.66.69-.14.15-.14.15-.83.9-.26.29-.4.43-.41.44-.21.22-.56.58-1.07.98-.34.27-.62.45-.89.62-.32.2-.36.21-.8.47-.95.57-1.11.74-1.73,1.03-.02,0,0,0-.61.26-1.2.51-1.16.49-1.37.58-.61.26-1.1.44-1.57.62-.4.15-.48.18-1.18.45-.35.13-.46.18-.68.26-.33.12-.55.2-.98.34-.17.06-.86.29-1.41.48-.71.24-.82.29-1.18.41-.38.13-.7.22-.91.28ZM225.48,180.68c-.06.51-.17,1.2-.39,1.98-.27.97-.57,1.65-.87,2.3-.14.31-.54,1.18-1.17,2.21-.42.7-.78,1.18-1.27,1.84-.45.61-.83,1.1-1.12,1.46,1.33-.22,3.16-.48,5.35-.69,1.75-.17,3.04-.24,4.75-.33,2.93-.16,5.22-.21,6.37-.22,1.72-.03,2.97-.01,4.79,0,1.28.01,2.97.03,5.21.09,1.83.05,3.39.1,5.5.22,2.29.14,2.66.22,4.71.3.26.01.69.06,1.26.04.71-.03.85-.12.93-.23.07-.1.1-.21.01-.91-.07-.55-.1-.82-.2-1.25-.11-.47-.22-.82-.33-1.13-.32-.93-.52-1.51-.97-2.15-.04-.05-.22-.31-.51-.6-.63-.66-1.23-.99-1.7-1.25-.38-.21-.96-.52-1.76-.71-.41-.1-.74-.13-1.09-.16-.38-.04-.39-.01-1.57-.06-1.27-.05-1.45-.05-2.14-.08-2.22-.09-2.47-.11-3.94-.16-.48-.02-2.46-.09-4.89-.14-2.76-.05-2.78,0-5.96-.06-1.23-.02-2.8-.05-4.87-.12-1.67-.06-3.08-.13-4.15-.18Z"/>
    </g>
  </g>
</svg>