<?xml version="1.0" encoding="UTF-8"?>
<svg id="phil" xmlns="http://www.w3.org/2000/svg" width="420" height="420" viewBox="0 0 420 420">
  <defs>
    <style>
      .cls-1 {
        fill: #ff003d;
      }
    </style>
  </defs>
  <g id="teeth">
    <g id="teethLegendary">
      <path id="gums" class="cls-1" d="M114.07,213.23c.46-.29.69-.44.84-.5.69-.32,1.34-.24,1.63-.2.67.09,1.13.37,1.81.79.27.17.72.51,1.6,1.19.62.48.87.69,1.35,1.04.62.45,1.13.77,1.46.96.41.19.98.45,1.68.72.7.27,1.06.4,1.5.47.7.12,1.23.05,1.88-.04,1.1-.15,1.18-.32,2.08-.46.93-.15,1.63-.09,2.54-.02.34.03.89.08,2.59.41.9.17,1.62.33,2.83.6,3.18.7,3.14.73,4.04.89,1.66.29,1.61.17,2.99.45,1.38.28,1.52.42,3.29.83,1.13.26,1.06.2,3.02.6,1.28.26,2.33.48,3.68.82.5.13,1.36.36,3.07.84,1.67.46,3.1.87,3.18.89,2.64.75,2.58.75,3.18.89,1.02.24,1.45.3,2.35.58.94.3,2.16.68,2.14.92-.05.51-5.63.11-6.19.07-.83-.06-2.54-.2-4.79-.52-.55-.08-1.02-.15-5.11-.89-2.89-.52-4.35-.78-4.78-.88-2.81-.62-3.09-.86-4.94-1.1-.82-.1-1.56-.16-2.92-.39-1.3-.22-2.19-.44-2.43-.5-.71-.18-1.42-.38-1.67-.46-.95-.28-1.06-.34-1.48-.43-.45-.1-1.12-.21-1.96-.18-.44-.01-1.09-.02-1.88.04-1.34.1-1.61.28-2.8.4-.77.08-1.96.31-3.34-.08-.76-.22-1.37-.55-1.73-.75-.51-.28-.88-.55-1.61-1.09-.89-.65-1.53-1.19-1.73-1.35-.63-.53-.73-.66-.94-.84-.12-.11-.22-.18-.25-.2-.78-.6-1.23-1.18-1.99-1.33-.06-.01-.12-.02-.17-.02,0,0-.18-.02-.36,0-.85.09-2.32,1.18-2.32,1.18-.66.49-.7.59-1.19.89-.32.2-.23.11-1.03.56-.41.23-.69.38-1.06.48-.22.06-.84.23-1.02-.03-.05-.07,0-.08-.03-.52,0-.13-.02-.36-.06-.63,0-.01,0,0-.05-.28-.03-.18-.04-.27-.04-.27-.04-.32,1.1-.91,1.92-1.37.66-.37.98-.57,1.32-.82.42-.3.49-.4,1.02-.78.35-.25.66-.44.91-.6Z"/>
    </g>
  </g>
</svg>