<?xml version="1.0" encoding="UTF-8"?>
<svg id="phil" xmlns="http://www.w3.org/2000/svg" width="420" height="420" viewBox="0 0 420 420">
  <defs>
    <style>
      .cls-1 {
        fill: #ff003d;
      }
    </style>
  </defs>
  <g id="nose">
    <path id="noseUncommon" class="cls-1" d="M112.41,192.28s.03.05.34.52c.23.35.35.53.47.67.22.28.44.5.65.72.27.28.4.41.6.57.31.26.57.46.96.56.28.07.58.14.99-.09.18-.1.47-.26.65-.63.09-.19.07-.27.18-.97.03-.16.02-.11.18-.92.16-.84.13-.81.23-1.3.14-.67.26-1.1.46-1.75.11-.36.19-.6.33-.89.14-.27.26-.5.48-.62.21-.12.4-.08.52-.05.32.07.52.27.8.53.51.49.77.73.94.87.46.38.84.58,1.14.73.48.25.74.32.83.34.22.05.44.1.71.06.06,0,.09-.02.62-.2.3-.11.46-.16.53-.19.25-.09.47-.18.69-.28.13-.06.32-.17.8-.52.59-.43.88-.64,1.21-.97.45-.45.76-.87.86-1,.4-.54.66-1.02.75-1.19.32-.61.54-1.02.64-1.56.08-.44.04-.78.02-.93-.02-.14-.07-.42-.2-.69-.12-.25-.26-.41-.38-.52-.82-.79-1.7-1.03-1.7-1.03-1.61-.45-2.89-.45-2.89-.51,0-.05.75-.11,1.6-.06.4.02.81.05,1.35.17.62.14,1.18.27,1.82.75.26.2.61.47.93,1.01.13.22.34.59.44,1.16.08.45.05.81.02,1.18-.03.44-.1.81-.17,1.06-.11.55-.26.95-.37,1.21-.12.28-.18.34-.56,1.05-.36.66-.29.58-.47.89-.32.56-.63.98-.81,1.22-.13.18-.24.32-.3.4-.07.09-.23.29-.43.53-.23.27-.4.45-.62.69-.44.46-.85.89-1.44,1.41-.35.31-.88.77-1.63,1.26-.4.26-.9.56-1.51.85-.6.28-1.07.44-1.49.59-.51.17-1.08.36-1.78.5-.94.18-1.58.3-2.41.13-.38-.08-.99-.2-1.68-.64-.13-.08-.46-.3-.83-.66-1.39-1.34-2.09-3.4-2.05-3.44ZM287.56,80.1c-.38,10.49-35.83,17.8-79.18,16.32-43.35-1.48-78.18-11.18-77.8-21.67.38-10.49,35.83-17.8,79.18-16.32,43.35,1.48,78.18,11.18,77.8,21.67ZM207.71,62.98c-35.06-1.19-63.7,3.85-63.97,11.27-.27,7.42,27.93,14.4,62.99,15.6,35.06,1.19,63.7-3.85,63.97-11.27.27-7.42-27.93-14.4-62.99-15.6Z"/>
  </g>
</svg>