<?xml version="1.0" encoding="UTF-8"?>
<svg id="phil" xmlns="http://www.w3.org/2000/svg" width="420" height="420" viewBox="0 0 420 420">
  <defs>
    <style>
      .cls-1 {
        fill: #ff8500;
        fill-rule: evenodd;
      }
    </style>
  </defs>
  <g id="spikes">
    <path id="common" class="cls-1" d="M251.54,304.95c-.28-.25-.46-.38-.74-.43-.29-.06-.5,0-.6-.13-.07-.1-.01-.22.04-.48.06-.27.05-.54.08-.81.05-.46.04-.4.1-1.02.05-.51.08-.76.11-1.1.03-.31.02-.19.12-1.05.03-.28.08-.7.13-1.11.02-.12.03-.27.06-.45.02-.18.03-.2.05-.37.02-.14.04-.32.08-.66.04-.32.04-.32.06-.51.02-.2.03-.24.06-.5.06-.45.05-.43.08-.67.02-.12.01-.08.08-.63.06-.43.06-.48.07-.53.04-.3.04-.32.06-.52.03-.22.04-.22.07-.47.04-.28.03-.3.07-.56.04-.27.05-.26.08-.52.04-.29.03-.3.07-.58.03-.24.04-.24.09-.54.03-.19.03-.23.07-.52.01-.09.03-.21.08-.53.06-.41.09-.63.14-.97.1-.65.15-.97.2-1.35.04-.3.05-.4.1-.69.05-.32.07-.44.11-.73.05-.33.08-.56.12-.83.27-1.99.52-4.1.52-4.1.11-.93.11-.88.43-3.51.41-3.32.4-3.29.51-4.15.29-2.2.32-2.16.51-3.72.16-1.32.14-1.38.38-3.59.17-1.51.25-2.26.38-3.26.23-1.7.3-1.96.51-3.62.13-1.04.21-1.86.28-2.5.15-1.46.21-2.27.38-3.77.07-.64.13-1.05.18-1.41.1-.71.11-.72.21-1.42.09-.68.09-.78.21-1.62,0-.06,0,0,.12-.83.06-.42.09-.62.11-.75.06-.37.08-.46.12-.74.03-.23.03-.28.05-.5.04-.39.09-.66.13-.88.08-.44.07-.49.2-1.42.17-1.18.18-1.05.3-1.96.07-.51.08-.65.22-1.68.04-.3.07-.54.12-.84.09-.59.1-.6.16-1.01.06-.38.04-.33.17-1.43.04-.29.07-.52.12-.83.05-.28.07-.4.11-.59.1-.57.1-.75.22-1.74.06-.5.06-.4.12-.87.03-.26.08-.62.17-1.52.06-.64.1-1.04.15-1.56.07-.77.1-1.3.15-2.03.18-2.77.18-2.44.23-3.42.04-.68.09-1.63.12-2.9.03-1.15.02-2.02.02-2.53,0-.68-.01-1.38-.05-2.3-.03-.71-.07-1.19-.07-1.32-.03-.37-.07-.93-.16-1.66-.02-.13-.09-.76-.23-1.58-.09-.52-.17-.91-.22-1.19-.07-.37-.11-.55-.17-.78-.11-.44-.16-.56-.35-1.16-.29-.94-.41-1.48-.59-2.05,0,0-.06-.19-.13-.44-.05-.19-.08-.28-.09-.36-.03-.17-.02-.26-.03-.55,0-.11-.01-.28-.02-.48,0-.51,0-.93,0-1.24,0-.8,0-1.21.03-1.68.02-.33.03-.28.08-.96.06-.72.05-.72.08-1.11.06-.6.09-.62.15-1.26.03-.28.02-.26.08-1.06.05-.6.07-.9.1-1.21.07-.74.1-.84.17-1.49.06-.56.08-.96.12-1.52.03-.54.08-1.24.09-2.11.02-1.11.03-1.81-.07-2.76-.1-.98-.27-1.71-.35-2.06-.27-1.1-.47-1.88-1.05-2.62-.21-.27-.43-.46-.88-.83-.66-.55-1.36-1.02-2.2-1.47-.89-.48-.74-.29-2.23-1-1.21-.57-1.97-1.01-2.71-1.62-.34-.28-.58-.52-.77-.74-.44-.5-.7-.96-.94-1.39-.15-.26-.4-.72-.65-1.36-.25-.65-.37-1.16-.5-1.7-.12-.5-.18-.9-.32-1.7-.12-.7-.18-1.06-.21-1.35-.11-1.02.02-1.25,0-2.3-.01-.67-.04-1.65-.4-2.77-.17-.52-.37-1.12-.86-1.72-.59-.71-1.25-1-1.61-1.16-.26-.11-.24-.06-1.95-.39-1.31-.25-1.53-.29-2.3-.44-1.11-.22-1.14-.23-2.34-.47-2.15-.42-1.97-.36-2.46-.48-1.2-.29-2.07-.61-3.01-.96-.95-.35-1.71-.63-2.7-1.13-.59-.3-1.25-.64-2.06-1.21-1.01-.72-1.73-1.42-2.27-1.96-.82-.82-.85-.97-1.72-1.8-.83-.79-1.41-1.22-1.54-1.32-.72-.53-1.19-.87-1.92-1.11-.62-.2-1.15-.24-1.44-.26-.47-.03-.8,0-1.27.04-1,.09-1.17.21-2.36.35-.39.05-.7.07-1.23.11-.65.05-.98.08-1.41.09-.3,0-.79.02-1.41-.04-.55-.05-.99-.13-1.87-.31-.67-.13-1.01-.2-1.48-.34-.32-.09-.33-.11-1.04-.34-.92-.29-.87-.25-1.23-.38-.02,0-.04-.02-.06-.02-.2-.08-1.12-.48-1.33-.57-.26-.11-.23-.1-.49-.21-.11-.05-.37-.16-.72-.33-.24-.11-.51-.24-.83-.41-.53-.27-.61-.34-1.07-.57-.34-.17-.51-.25-.72-.33-.39-.15-.55-.15-1.64-.37-.22-.04-.37-.07-.46-.09-.14-.03-.19-.04-.2-.04-.44-.09-1.71.05-2,.08-.36.04-.73.06-1.48.1-.43.02-.64.03-.99.08-.51.06-.58.11-.94.15-.57.07-.59-.03-1.33,0-.26,0-.69.06-1.53.15-.5.06-.64.08-.76.1-.36.06-.5.11-1.05.25-.8.2-.78.16-1.07.26-.27.08-.66.23-1.12.5.07-2.39.82-3.92,1.4-4.81,3.39-5.17,12.15-5.36,17.18-3.19,1.41.61,5.27,2.54,5.1,3.44-.02.08-.06.14-.1.18-1.08.07-1.97.22-2.6.36-1.78.39-3.14.69-3.41,1.71-.1.37-.02.74.06,1.01.11.16.28.38.53.58.19.15.27.16.73.41.49.27.49.31.73.41.2.09.49.2.86.25.16-.01.46-.04.84-.14,2.95-.79,4.56-4.45,6.65-5.62.53-.3,1.38-.78,2.57-1.22.65-.24,3.48-1.24,7.17-.88,2.02.2,3.74.75,5.93,1.44.53.17.8.25,1.16.4,2.73,1.08,5.01,3,4.86,3.47-.11.33-1.35-.39-3.9-.44-.99-.02-1.93-.03-3.1.33-.71.22-2.14.67-3.45,2.1-.33.36-1.82,2.06-1.47,3.06.07.19.4.43,1.06.91.61.44.72.48,1.33.91.66.47.7.56,1.13.83,0,0,.53.34,1.15.6,1.42.61,7.68-4.24,11.88-5.46,1.64-.47,6.27-1.57,11.33.51,2.88,1.18,5.32,3.15,5.2,3.5-.08.26-1.52-.66-3.77-.6-1.85.04-3.24.72-4.82,1.49-1.5.73-2.85,1.36-4.25,2.88-.68.74-1.17,1.45-1.48,1.96.08.26.22.64.5,1.01.25.33.53.53.93.75.65.36,1.08.46,1.66.66.69.24,1.14.46,2.06.91,1.01.49,1.33.73,1.59,1.16.25.41.35.83.39,1.12.37-.02,5.22-.2,8.26.52.96.23,1.85.52,1.85.52.97.31,1.9.7,2.86,1.17,2.73,1.36,4.3,2.3,5.8,3.58,1.5,1.28,3.69,4.09,4.37,5.54l.48,1.11c-2.27-1.17-5.96-2.65-9.97-2.21-1.91.21-3.58.81-4.68,2.34-.28.39-.84,1.19-.8,2.24.02.38.13,1.25,1.13,2.28,2.04,2.11,4.49,1.28,7.26,2.54,2.75,1.26,4.51,3.2,5.93,4.76,3.22,3.53,4.78,7.21,5.14,8.07,1.74,4.22,2.39,8.68,2.04,8.85-.22.11-.49-1.62-1.69-2.95-3.43-3.78-10.3-.61-12.49,1.62-.39.4-1.23,1.26-1.73,2.76-.08.25-.34,1.08-.38,2.21-.01.35-.07,2.98,1.42,4.98.19.25.32.77,1.59,1.44,1.25.66,2.32,1.77,3.54,2.51,2.51,1.52,7.13,6.98,9.08,14.67.42,1.66.94,4.3.96,7.71-1.52-3.56-3.12-4.61-4.02-4.99-.66-.28-2.1-.68-3.53-1.08-.62-.17-1.06-.3-1.66-.45-2.69-.67-4.06-.99-5.21-.43-.36.17-1.12.55-1.66,1.53-.65,1.17-.59,2.46-.55,2.9.47.57,1.17,1.44,1.97,2.55,1.55,2.15,2.68,3.68,3.67,6.08,1.23,2.98,1.84,5.97,1.98,9.29.14,2.73-.14,5.29-.55,5.54-.35-.84-.91-2.02-1.81-3.24-1.07-1.46-2.05-2.81-3.65-3.1-.3-.05-1.68-.27-2.99.77-.16.12-.86.69-1.4,1.81-.51,1.05-.63,2.07-.67,2.65.07.47.14.94.21,1.41.38.63.77,1.25,1.15,1.88.49,1.17,1.17,2.96,1.78,5.24,1.75,6.49,1.51,11.65,1.43,12.88-.19,3.24-.8,6.14-1,6.11-.15-.02.07-1.6-.23-3.89-.16-1.24-.69-5.4-3.14-7.17-.54-.39-1.13-.82-1.68-.55-.74.35-.78,1.64-1.42,6.64-.39,3.07-.5,3.55-.25,4.41.39,1.33.93,1.2,2.2,3.44.59,1.04,1.25,2.24,1.59,3.98.09.48.19,1.15.2,2.95,0,1.42-.05,3.37-.3,5.73.02-.56.11-4.59-2.11-6.47-.17-.15-1.91-1.59-3.01-.66-.91.77-.82,2.6-.8,2.99.08,1.44.64,2.27,1.06,3.21,1.61,3.56.73,7.73.6,7.74-.11,0-.05-2.53-1.28-4.72-.39-.69-.89-1.11-1.45-1.62Z"/>
  </g>
</svg>