<svg xmlns="http://www.w3.org/2000/svg" width="420" height="420" viewBox="0 0 420 420">
      <path d="M161.12,224.67c-1.09-.24-2.04-.47-3.03-.71-.36-.09-1.72-.42-3.61-.91-1.48-.38-1.91-.5-2.45-.64-.26-.06-.25-.06-.5-.12-1.68-.41-2.22-.6-3.18-.83-1.11-.27-.83-.12-2.54-.49-1.87-.4-2.06-.54-2.5-.34-.43.2-.72.56-1.83,2.61-.62,1.14-1.12,2.13-1.52,2.92-.83,1.67-1.66,3.34-2.49,5.01-.6,1.13-1.41,2.72-2.3,4.67-1.24,2.73-2.42,5.32-3.34,8.68-.87,3.15-1.13,5.58-1.45,8.47-.32,2.97-.57,6.95-.34,11.67.04,1.78.18,4.01.57,6.52.14.89.53,3.27,1.4,6.23.84,2.87,1.73,4.9,2.47,6.59.69,1.57,1.62,3.51,2.83,5.64,1.48,2.93,2.86,5.19,3.88,6.74.49.75,2.34,3.59,5.12,6.89,1.1,1.31,2.13,2.53,3.66,4,.49.47,2.11,2,4.46,3.67,1.52,1.09,2.81,2.01,4.68,2.86,1.15.52,2.61,1.17,4.57,1.4,2.14.25,4.85-.03,4.91-.68.07-.8-3.98-.83-8.41-4.56-2.06-1.73-3.45-3.64-4.18-4.73-1.63-2.44-2.47-4.66-3.37-7.04-.22-.57-1.26-3.35-2.2-7.32-.48-2.01-1.21-5.15-1.57-9.43-.08-1-.38-4.91.02-10.01.16-2.02.37-4.6,1.13-7.84.39-1.69.81-3.02,1.65-5.7.54-1.73,1.07-3.42,1.89-5.58.81-2.14,1.57-3.89,2.13-5.15.65-1.5,1.3-3.01,1.95-4.51.95-2.14,1.78-3.85,2.37-5.03.9-1.79,1.12-2.14,2.19-4.29.89-1.81,1.09-2.28,1.93-3.98.8-1.61,1.47-2.89,1.92-3.73-2.03-.35-3.7-.69-4.92-.96ZM106.59,230.39c.78-1.09,1.15-1.61,1.73-2.26.08-.09,1.1-1.21,1.29-1.06.03.02.02.06.03.34.01.21.03.37.05.57.01.1.03.27.07.46.02.1.05.25.23.89.09.34.1.36.15.55.06.24.06.26.14.58.13.52.2.74.24.87.08.24.12.35.15.42.06.13.08.15.22.43.12.23.11.23.25.49.11.21.1.19.2.39.09.17.16.32.22.44.1.2.1.2.16.33.1.19.11.22.2.39.12.24.1.22.19.39.09.18.11.19.22.41.05.09.08.16.15.29.12.24.13.28.22.45.02.04.08.15.15.29.11.2.14.25.16.28.05.06.05.06.19.23.09.11.09.11.17.21.1.13.13.16.23.27.11.13.13.16.25.31.08.1.18.22.38.45.26.31.24.28.35.42.22.27.22.28.32.38.12.13.21.21.38.35.22.18.25.2.54.43.07.06.19.16.42.35.16.14.33.26.48.4.04.04.09.08.17.14.09.06.16.09.29.16.21.1.32.15.33.18.04.09-.04.19-.34.66-.06.09-.12.19-.18.28-.26.4-.38.61-.42.66-.57.9-1.05,1.71-1.05,1.71-.85,1.37-1.76,3.42-1.88,3.69-2.67,5.96-3.27,11.97-3.27,11.97-.52,5.27.26,9.24.82,12.1.94,4.8,2.39,8.26,3.22,10.02.61,1.3,1.57,3.17,2.96,5.19,1.45,2.12,2.75,3.51,3.6,4.41.66.7,1.76,1.87,3.16,3,3.68,2.97,6.72,3.45,6.63,3.89-.09.44-3.17.19-6.12-.58-1.56-.41-4.06-1.08-7.03-2.88-2.33-1.42-3.91-2.89-5.18-4.09-1.89-1.78-3.22-3.36-4.12-4.45-1.04-1.26-2.05-2.48-3.22-4.3-1.05-1.63-1.73-2.96-2.52-4.51-.7-1.38-1.5-2.95-2.29-4.91-.71-1.75-1.71-4.25-2.27-7.38-.75-4.24-.33-7.7.14-11.56.17-1.42.64-4.79,1.82-8.89,1.4-4.85,3.04-8.15,5.72-13.02.09-.17.11-.15.91-1.26Z" fill="#4fb5d6"></path>
      <path d="M114.07,213.23c.46-.29.69-.44.84-.5.69-.32,1.34-.24,1.63-.2.67.09,1.13.37,1.81.79.27.17.72.51,1.6,1.19.62.48.87.69,1.35,1.04.62.45,1.13.77,1.46.96.41.19.98.45,1.68.72.7.27,1.06.4,1.5.47.7.12,1.23.05,1.88-.04,1.1-.15,1.18-.32,2.08-.46.93-.15,1.63-.09,2.54-.02.34.03.89.08,2.59.41.9.17,1.62.33,2.83.6,3.18.7,3.14.73,4.04.89,1.66.29,1.61.17,2.99.45,1.38.28,1.52.42,3.29.83,1.13.26,1.06.2,3.02.6,1.28.26,2.33.48,3.68.82.5.13,1.36.36,3.07.84,1.67.46,3.1.87,3.18.89,2.64.75,2.58.75,3.18.89,1.02.24,1.45.3,2.35.58.94.3,2.16.68,2.14.92-.05.51-5.63.11-6.19.07-.83-.06-2.54-.2-4.79-.52-.55-.08-1.02-.15-5.11-.89-2.89-.52-4.35-.78-4.78-.88-2.81-.62-3.09-.86-4.94-1.1-.82-.1-1.56-.16-2.92-.39-1.3-.22-2.19-.44-2.43-.5-.71-.18-1.42-.38-1.67-.46-.95-.28-1.06-.34-1.48-.43-.45-.1-1.12-.21-1.96-.18-.44-.01-1.09-.02-1.88.04-1.34.1-1.61.28-2.8.4-.77.08-1.96.31-3.34-.08-.76-.22-1.37-.55-1.73-.75-.51-.28-.88-.55-1.61-1.09-.89-.65-1.53-1.19-1.73-1.35-.63-.53-.73-.66-.94-.84-.12-.11-.22-.18-.25-.2-.78-.6-1.23-1.18-1.99-1.33-.06-.01-.12-.02-.17-.02,0,0-.18-.02-.36,0-.85.09-2.32,1.18-2.32,1.18-.66.49-.7.59-1.19.89-.32.2-.23.11-1.03.56-.41.23-.69.38-1.06.48-.22.06-.84.23-1.02-.03-.05-.07,0-.08-.03-.52,0-.13-.02-.36-.06-.63,0-.01,0,0-.05-.28-.03-.18-.04-.27-.04-.27-.04-.32,1.1-.91,1.92-1.37.66-.37.98-.57,1.32-.82.42-.3.49-.4,1.02-.78.35-.25.66-.44.91-.6Z" fill="#138d87"></path>
    </svg>