<?xml version="1.0" encoding="UTF-8"?>
<svg id="phil" xmlns="http://www.w3.org/2000/svg" width="420" height="420" viewBox="0 0 420 420">
  <defs>
    <style>
      .cls-1 {
        fill: #0013ff;
        fill-rule: evenodd;
      }
    </style>
  </defs>
  <g id="teeth">
    <g id="teethLegendary">
      <path id="teeth-2" data-name="teeth" class="cls-1" d="M161.12,224.67c-1.09-.24-2.04-.47-3.03-.71-.36-.09-1.72-.42-3.61-.91-1.48-.38-1.91-.5-2.45-.64-.26-.06-.25-.06-.5-.12-1.68-.41-2.22-.6-3.18-.83-1.11-.27-.83-.12-2.54-.49-1.87-.4-2.06-.54-2.5-.34-.43.2-.72.56-1.83,2.61-.62,1.14-1.12,2.13-1.52,2.92-.83,1.67-1.66,3.34-2.49,5.01-.6,1.13-1.41,2.72-2.3,4.67-1.24,2.73-2.42,5.32-3.34,8.68-.87,3.15-1.13,5.58-1.45,8.47-.32,2.97-.57,6.95-.34,11.67.04,1.78.18,4.01.57,6.52.14.89.53,3.27,1.4,6.23.84,2.87,1.73,4.9,2.47,6.59.69,1.57,1.62,3.51,2.83,5.64,1.48,2.93,2.86,5.19,3.88,6.74.49.75,2.34,3.59,5.12,6.89,1.1,1.31,2.13,2.53,3.66,4,.49.47,2.11,2,4.46,3.67,1.52,1.09,2.81,2.01,4.68,2.86,1.15.52,2.61,1.17,4.57,1.4,2.14.25,4.85-.03,4.91-.68.07-.8-3.98-.83-8.41-4.56-2.06-1.73-3.45-3.64-4.18-4.73-1.63-2.44-2.47-4.66-3.37-7.04-.22-.57-1.26-3.35-2.2-7.32-.48-2.01-1.21-5.15-1.57-9.43-.08-1-.38-4.91.02-10.01.16-2.02.37-4.6,1.13-7.84.39-1.69.81-3.02,1.65-5.7.54-1.73,1.07-3.42,1.89-5.58.81-2.14,1.57-3.89,2.13-5.15.65-1.5,1.3-3.01,1.95-4.51.95-2.14,1.78-3.85,2.37-5.03.9-1.79,1.12-2.14,2.19-4.29.89-1.81,1.09-2.28,1.93-3.98.8-1.61,1.47-2.89,1.92-3.73-2.03-.35-3.7-.69-4.92-.96ZM106.59,230.39c.78-1.09,1.15-1.61,1.73-2.26.08-.09,1.1-1.21,1.29-1.06.03.02.02.06.03.34.01.21.03.37.05.57.01.1.03.27.07.46.02.1.05.25.23.89.09.34.1.36.15.55.06.24.06.26.14.58.13.52.2.74.24.87.08.24.12.35.15.42.06.13.08.15.22.43.12.23.11.23.25.49.11.21.1.19.2.39.09.17.16.32.22.44.1.2.1.2.16.33.1.19.11.22.2.39.12.24.1.22.19.39.09.18.11.19.22.41.05.09.08.16.15.29.12.24.13.28.22.45.02.04.08.15.15.29.11.2.14.25.16.28.05.06.05.06.19.23.09.11.09.11.17.21.1.13.13.16.23.27.11.13.13.16.25.31.08.1.18.22.38.45.26.31.24.28.35.42.22.27.22.28.32.38.12.13.21.21.38.35.22.18.25.2.54.43.07.06.19.16.42.35.16.14.33.26.48.4.04.04.09.08.17.14.09.06.16.09.29.16.21.1.32.15.33.18.04.09-.04.19-.34.66-.06.09-.12.19-.18.28-.26.4-.38.61-.42.66-.57.9-1.05,1.71-1.05,1.71-.85,1.37-1.76,3.42-1.88,3.69-2.67,5.96-3.27,11.97-3.27,11.97-.52,5.27.26,9.24.82,12.1.94,4.8,2.39,8.26,3.22,10.02.61,1.3,1.57,3.17,2.96,5.19,1.45,2.12,2.75,3.51,3.6,4.41.66.7,1.76,1.87,3.16,3,3.68,2.97,6.72,3.45,6.63,3.89-.09.44-3.17.19-6.12-.58-1.56-.41-4.06-1.08-7.03-2.88-2.33-1.42-3.91-2.89-5.18-4.09-1.89-1.78-3.22-3.36-4.12-4.45-1.04-1.26-2.05-2.48-3.22-4.3-1.05-1.63-1.73-2.96-2.52-4.51-.7-1.38-1.5-2.95-2.29-4.91-.71-1.75-1.71-4.25-2.27-7.38-.75-4.24-.33-7.7.14-11.56.17-1.42.64-4.79,1.82-8.89,1.4-4.85,3.04-8.15,5.72-13.02.09-.17.11-.15.91-1.26Z"/>
    </g>
  </g>
</svg>