<?xml version="1.0" encoding="UTF-8"?>
<svg id="phil" xmlns="http://www.w3.org/2000/svg" width="420" height="420" viewBox="0 0 420 420">
  <defs>
    <style>
      .cls-1 {
        fill: #9b00ff;
        fill-rule: evenodd;
      }
    </style>
  </defs>
  <g id="top">
    <path id="common" class="cls-1" d="M131.64,410.96c.07-1.47.22-4.26.54-7.79.28-3.13.49-5.6.99-8.92.17-1.13.73-4.75,1.84-9.45.83-3.53,1.62-6.2,1.91-7.18.74-2.46,2.06-6.79,4.36-12.03,1.58-3.59,3.92-8.83,8.26-14.82,2.8-3.86,5.34-6.55,7.04-8.32,2-2.09,4.7-4.5,10.1-9.3,3.56-3.17,5.03-4.38,6.73-5.67,1.46-1.11,2.79-2.02,5.43-3.86,2.66-1.85,4-2.77,5.48-3.69.73-.45,1.52-.93,2.7-1.73,2.5-1.69,3.15-2.39,3.41-2.68,1.35-1.53,1.59-2.82,1.77-2.77.44.13-1.35,7.85-3.6,16.48-2.92,11.2-3.1,11.88-3.33,13.47-1.06,7.17-1.98,15.2,1.45,18.85,3.83,4.08,11.94-.39,19.66-4.64,1.8-.99,8.22-4.66,15.05-11.53,4.52-4.56,8.53-9.74,8.53-9.74,1.17-1.71,2.92-4.18,5.18-7.08,1.71-2.2,2.57-3.29,3.4-4.12.82-.81,5.95-5.91,10.94-5.17,2.63.39,3.46,2.15,11.85,12.83,3.38,4.3,3.96,4.92,4.94,6.14.87,1.09,1.49,1.92,1.63,2.12,1.78,2.38,7.23,9.2,8.7,11.08,1.3,1.66,5.44,6.97,8.87,13.61,5.62,10.89,7,20.85,7.65,25.87.71,5.5.74,9.97.76,13.61.04,6.2-.34,11.48-.76,15.47h-161.72c0-3.24.09-6.26.23-9.04Z"/>
  </g>
</svg>