<?xml version="1.0" encoding="UTF-8"?>
<svg id="phil" xmlns="http://www.w3.org/2000/svg" width="420" height="420" viewBox="0 0 420 420">
  <defs>
    <style>
      .cls-1 {
        fill: red;
      }
    </style>
  </defs>
  <g id="wings">
    <g id="rare">
      <path id="wingsBottom" class="cls-1" d="M373.74,412.63c.14-.15.33-.36.52-.64.12-.17.35-.53.61-1.1.41-.9.62-1.77.88-2.89.22-.92.35-1.65.46-2.24.13-.73.22-1.29.29-1.76.15-1.01.26-1.85.33-2.38.1-.86.17-1.53.28-2.63.04-.42.08-.77.1-1.02.08-1.13.15-2.27.23-3.4.04-.61.09-1.46.12-2.49.05-1.59.02-2.82,0-4.03-.04-1.64-.12-4.06-.27-7.15,0,0-.25-4.09-.68-7.04-.43-2.96-.76-5.41-1.4-8.37-.64-2.96-.77-3.76-1.47-6.33-.71-2.57-1.92-6.52-1.92-6.52,0,0-1.04-3.21-1.98-5.57-.94-2.36-1.75-4.29-2.02-4.91-.28-.62-1.83-3.96-1.83-3.96l-2.21-4.33-3.26-5.67-2.03-3.2-2.98-4.32-3.23-4.26s-.75-1.13-3.12-3.74c-2.37-2.61-4.64-4.97-5.84-6.09-1.2-1.12-3.99-3.57-3.99-3.57l-6.03-4.62-7.05-4.37s-4.18-2.2-6.22-3.05c-2.04-.85-6.06-2.34-6.8-2.58-.75-.24-5.4-1.54-5.4-1.54,0,0-3.09-.72-4.54-.97-1.46-.25-6.16-.87-6.16-.87l-2.7-.23s-2.27-.2-4.78-.19c-2.51.01-2.77-.06-5.36.12-2.59.18-5.38.46-5.38.46l-4.25.6-3.09.46-3.72,1.05-3.65,1.22-2.05.97s-1.05.62-1.41.97c-.36.35-1.29,1.55-1.46,1.87l-.17.32s.49-.41.68-.55c.2-.14.73-.49.73-.49l.5-.23s.27-.16.37-.18.55-.04.87-.1c.32-.06.58-.02.58-.02l.38.08s.32.11.45.21c.13.09.33.24.42.33.1.1.32.35.43.5.1.15.22.37.29.56.07.19.17.53.19.77s.03.6,0,.8c-.03.2-.04.36-.09.54-.05.18-.12.48-.2.59-.08.12-.16.31-.26.49-.11.18-.32.5-.58.73-.26.23-.58.47-.66.51-.07.04-.45.27-.65.36-.2.09-.82.35-.82.35l-.36.16-.48.16-.53.17-.42.13-.49.15-.28.08-.14.04s.28.4.36.5c.08.09.57.54.69.63.12.08.53.3.63.34s.57.19.62.2.59.1.64.11c.05,0,.96.03,1.01.03s.8-.07.84-.08c.04,0,.99-.18,1.04-.19s1.38-.39,1.38-.39l1.02-.38,1.2-.53,1.08-.56,2.19-1.42,2.26-1.72,1.66-1.26,1.85-1.25,1.8-.97,3.23-.3,7.25-.29,4.55.32,4.84.54,3.21.54s4.95,1.1,6.25,1.48c1.3.38,4.42,1.38,5.75,1.89,1.33.52,3.83,1.56,4.38,1.81.55.25,5.27,2.64,5.93,3.03.66.38,3.55,2.15,3.76,2.29.21.14,4.8,3.39,4.8,3.39l4.28,3.52,4.33,4.1,3.05,3.26,3.44,3.94,4.89,6.83,3.05,4.76,3.38,5.99,2.46,5.01,2.27,5.29,2.59,7.88,1.24,5.03,1.14,6.25.67,5.58.39,5.92.04,7.51-.42,7.05-.4,3.63c-.27,1.71-.55,3.41-.82,5.12-.38.77-.82,1.94-1.02,3.46-.13.98-.38,2.92.33,4.62.32.78.74,1.24,1,1.48,0-.17.02-.36.03-.55.01-.21.03-.41.05-.6.02-.13.05-.32.08-.54.01-.08.05-.29.09-.46.05-.23.14-.66.35-1.09.07-.15.19-.35.36-.56.12-.16.22-.27.3-.34.12-.11.23-.17.38-.25.06-.03.13-.07.23-.11.23-.1.42-.13.52-.14.07,0,.17-.01.28,0,.09.02.18.03.27.05.06.02.13.05.19.07.07.03.13.06.19.09.07.05.14.11.22.16.07.05.14.11.21.16.06.06.13.13.2.22.07.09.13.19.18.27.11.2.18.4.22.53.09.3.11.56.13.7,0,.07.02.25.02.48,0,.24-.03.44-.05.58-.03.16-.05.28-.08.39-.04.16-.1.37-.18.61-.07.16-.15.32-.22.48-.05.09-.1.18-.15.27-.05.09-.1.19-.14.28.13-.15.28-.3.43-.45.17-.16.33-.31.48-.44ZM340.4,405.39c.05-.07.1-.15.15-.23.07-.11.14-.22.2-.33.07-.13.16-.31.24-.54.06-.15.09-.25.13-.4.02-.1.07-.35.06-.69,0-.09,0-.24-.05-.44-.05-.23-.11-.38-.2-.55-.09-.18-.2-.42-.4-.64-.13-.14-.24-.21-.32-.26-.13-.08-.23-.12-.3-.15-.16-.07-.29-.09-.39-.11-.14-.03-.24-.05-.38-.04-.04,0-.18,0-.38.08-.08.03-.33.13-.63.39-.36.31-.61.7-.78,1.01.05-.31.1-.62.15-.93.05-.28.12-.61.22-.95.1-.36.22-.67.32-.93.12-.29.29-.7.52-1.18.17-.36.31-.61.58-1.1.16-.3.39-.7.67-1.18.3-.55.54-1.01.72-1.36.15-.29.27-.55.42-.89.17-.4.25-.6.33-.9.03-.11.04-.2.16-.99.04-.26.07-.48.09-.63.05-.26.09-.53.13-.82.06-.41.1-.8.14-1.17.09-.85.18-1.72.26-2.61.09-.99.18-1.97.25-2.92.1-1.39.16-2.92.17-4.55,0-1.08-.01-2.12-.05-3.09-.02-.7-.04-1.43-.08-2.18-.05-.92-.1-1.79-.17-2.63-.06-.86-.13-1.75-.23-2.68-.16-1.58-.37-3.04-.6-4.38-.26-1.55-.46-2.71-.61-3.5-.08-.43-.14-.77-.3-1.64-.15-.83-.22-1.22-.35-1.9-.09-.51-.17-.93-.23-1.2-.52-2.13-1.04-4.26-1.56-6.39-.36-1.17-.73-2.35-1.12-3.54-.29-.88-.57-1.74-.86-2.59-.12-.35-.3-.86-.53-1.49-.3-.83-.53-1.41-.77-2.04-.58-1.51-.89-2.35-1.04-2.74-.8-2.09-2.45-5.53-3.63-7.92-.52-.99-1.07-1.99-1.65-3.01-.66-1.16-1.32-2.27-1.96-3.31-1.38-2.23-2.69-4.15-3.88-5.78-.79-1.08-2.2-2.96-4.07-5.12-.07-.08-1-1.16-1.92-2.15-2.73-2.93-5.62-5.33-7.7-6.93-.93-.74-1.92-1.47-2.95-2.19-.69-.48-1.37-.92-2.03-1.33-1.85-1.13-3.47-2-4.78-2.65-.91-.45-2.74-1.36-4.44-1.97-.29-.1-.77-.27-1.87-.66-1.17-.41-1.22-.44-1.54-.54-.44-.13-.7-.18-1.12-.35-.42-.17-.75-.36-.97-.5-.91-.56-1.14-.71-1.83-1.08-.25-.13-.59-.31-1.01-.49.1,0,.2,0,.3-.01.6-.02,1.21-.05,1.81-.07.23-.02.58-.05,1.01-.04.08,0,.16,0,.51.03.63.04,1.09.08,1.53.11.2.01.5.04.88.06l1.89.14,1.96.22,2.28.25,1.83.28,1.78.3,1.04.53,1.21.65,1.06.6c.92.6,1.84,1.2,2.76,1.79.73.5,1.46,1,2.18,1.5.62.44,1.26.91,1.91,1.42.96.75,1.88,1.52,2.74,2.28.7.59,1.42,1.23,2.15,1.93.45.43.88.85,1.29,1.28.53.54,1.08,1.1,1.62,1.69.59.63,1.16,1.25,1.71,1.87,1,1.22,2,2.43,2.99,3.65,1.07,1.48,2.14,2.96,3.21,4.44.85,1.36,1.71,2.72,2.56,4.07.74,1.32,1.47,2.64,2.21,3.96.72,1.44,1.44,2.89,2.15,4.33.33.71.66,1.45.99,2.21.25.58.5,1.16.74,1.73.24.59.48,1.19.72,1.8.33.83.64,1.65.95,2.47.24.64.48,1.3.72,1.99.31.88.59,1.74.85,2.58.4,1.33.81,2.65,1.21,3.98.41,1.4.81,2.81,1.22,4.21.17.71.33,1.44.49,2.17.33,1.49.63,2.95.92,4.39.13.66.25,1.33.37,2.01.15.83.29,1.65.42,2.46.13.89.26,1.77.4,2.66.22,1.58.42,3.22.59,4.93.08.77.15,1.52.22,2.26.08.94.15,1.91.21,2.9.07,1.14.13,2.25.18,3.33.03.88.06,1.79.07,2.71.02,1.01.02,2,.02,2.97-.04,1.5-.09,3-.13,4.5-.1,1.29-.2,2.58-.3,3.87-.07.64-.14,1.31-.24,2-.08.6-.17,1.17-.26,1.72-.11.67-.23,1.25-.32,1.71-.09.43-.2.95-.37,1.64-.07.28-.17.7-.33,1.24-.21.72-.4,1.24-.46,1.42-.12.34-.31.86-.58,1.44-.28.61-.68,1.46-1.35,2.27-.51.61-.95.93-1.11,1.04-.37.25-.7.4-.96.49.1-.12.2-.24.3-.36ZM303.25,395.22c.13-.02.24-.03.39-.08.13-.04.21-.08.36-.15.11-.05.22-.1.36-.18.12-.07.22-.13.35-.24.09-.08.19-.16.3-.31.06-.09.11-.17.14-.23.04-.08.06-.14.08-.2.06-.17.09-.3.1-.33.02-.08.03-.15.03-.18.02-.13.02-.24.02-.29,0-.06,0-.17-.02-.3,0-.03-.02-.18-.09-.37-.03-.1-.06-.16-.11-.26-.05-.12-.1-.21-.14-.27-.06-.08-.12-.15-.18-.23-.06-.05-.11-.1-.17-.16-.09-.07-.21-.15-.36-.21-.1-.04-.23-.08-.39-.1-.22-.02-.39.03-.53.08-.14.04-.23.09-.26.1-.07.04-.16.09-.27.17-.18.13-.53.41-.97.81.2-.24.33-.46.41-.62.05-.09.09-.19.19-.35.04-.06.12-.21.23-.38.03-.05.14-.21.29-.4.11-.14.2-.24.3-.35.08-.09.2-.22.36-.38.15-.15.26-.25.39-.36.12-.1.2-.17.31-.26.07-.06.12-.09.36-.26.1-.07.2-.14.31-.22.11-.07.29-.18.52-.31.17-.1.3-.17.38-.21.66-.35,1.15-.64,1.52-.85.11-.06.24-.14.42-.26.26-.17.44-.32.5-.37.17-.14.31-.27.38-.34.17-.16.28-.28.31-.32.05-.06.09-.11.13-.14.18-.33.36-.68.54-1.06.15-.32.3-.63.43-.94.37-.77.76-1.67,1.13-2.7.21-.58.39-1.15.54-1.69.27-.88.54-1.77.81-2.65.19-.67.38-1.34.57-2.02.13-.58.26-1.16.39-1.75.17-.83.34-1.67.5-2.5.15-.97.3-1.94.44-2.91.1-.93.2-1.85.3-2.78.08-1.01.15-2.02.23-3.02.05-.99.09-1.99.14-2.98.01-.55.02-1.12.03-1.71,0-.56,0-1.11,0-1.64-.02-1.03-.05-2.12-.12-3.25-.07-1.33-.17-2.59-.28-3.77-.09-.84-.19-1.68-.28-2.52-.05-.4-.12-.97-.21-1.64-.08-.57-.21-1.43-.51-3.06-.27-1.46-.4-2.18-.61-3.17-.49-2.25-.97-3.94-1.24-4.88-.32-1.1-.58-1.92-.77-2.51-.26-.8-.62-1.92-1.14-3.32-.45-1.2-.81-2.07-1.11-2.79-.23-.56-.82-1.94-1.63-3.64-.39-.82-.7-1.47-1.15-2.31-.23-.43-.47-.85-.77-1.38-.35-.62-.65-1.13-.86-1.49-.25-.42-.5-.84-.76-1.26-.31-.51-.63-1-.94-1.48-.46-.66-.92-1.33-1.39-1.99-.4-.57-.83-1.16-1.28-1.75-.33-.43-.66-.84-.99-1.22-.39-.48-.8-.96-1.22-1.45-.55-.63-1.09-1.23-1.62-1.79-.55-.56-1.11-1.13-1.7-1.69-.33-.31-.65-.61-.97-.9-.79-.68-1.46-1.23-1.96-1.62-.88-.7-1.75-1.4-2.9-2.18,0,0-.97-.66-1.88-1.2-3.02-1.78-9.57-2.56-9.87-2.59-.18-.09-.36-.17-.54-.26-.29-.13-.57-.25-.84-.37.42-.28.77-.52,1.05-.71.52-.35.58-.4.8-.54.31-.19.46-.25,1.06-.57.32-.17.58-.31.74-.4.33-.03.85-.08,1.49-.14,1.3-.12,1.48-.14,1.92-.17.39-.02.23,0,1.55-.06,0,0,1.18-.05,1.24-.05.37-.01.73-.03,1.1-.04.14.06.34.14.57.25.32.15.59.3,1.05.57.27.16.74.43,1.22.74,1.38.88,3.14,2.21,3.4,2.4,0,0,1.77,1.4,2.6,2.09.82.7,2.15,1.97,3.47,3.29,1.32,1.32,2.25,2.48,2.25,2.48l1.5,1.83c.91,1.18,1.17,1.52,1.17,1.52.38.5.65.89.84,1.17,1.03,1.45,1.82,2.72,2.07,3.11,1.01,1.56,1.94,3.3,1.94,3.3,0,0,1.99,3.86,1.99,3.86.84,1.71,1.45,3.14,1.75,3.86.17.41.98,2.35,1.91,5.1.82,2.43,1.35,4.35,1.54,5,.39,1.38.91,3.62,1.24,5.08.32,1.46.99,5.44,1.13,6.19.14.75.44,3.95.53,4.62.09.67.23,3.16.32,4.38.09,1.22.18,3.62.24,5.52.05,1.57.07,3.38-.02,5.77-.06,1.78-.14,3.75-.5,6.28-.16,1.11-.33,2.03-.46,2.68-.09.41-.22,1.04-.41,1.78-.49,1.93-.99,3.36-1.37,4.39-.17.48-.42,1.15-.74,1.94-.41,1.04-.79,1.91-1.08,2.57-.35.8-.78,1.77-1.39,2.97-.4.8-.76,1.45-1.02,1.91-.21.37-.49.85-.84,1.4-.27.43-.56.9-.97,1.47-.3.43-.72,1.01-1.32,1.68-.64.71-1.17,1.15-1.34,1.29-.45.37-.82.61-.98.72-.49.31-1,.64-1.71.83-.35.09-.83.22-1.45.11-.37-.06-.68-.19-.9-.3.09,0,.21-.01.35-.03ZM278.96,391.44c.08-.02.19-.05.37-.09.14-.03.14-.02.23-.05.17-.04.29-.09.42-.14.15-.06.23-.09.34-.15.07-.04.12-.08.19-.13.17-.13.25-.19.35-.3.11-.13.18-.25.2-.28.1-.19.15-.36.17-.42.02-.08.06-.22.08-.43,0-.06.01-.19,0-.36,0-.09-.03-.26-.1-.45-.04-.13-.09-.21-.12-.28-.02-.04-.08-.16-.18-.28-.05-.07-.1-.11-.14-.15-.06-.06-.12-.12-.19-.17-.06-.04-.1-.06-.19-.1-.08-.04-.15-.07-.24-.09-.06-.02-.15-.04-.28-.05-.08,0-.14,0-.21.02-.1.02-.18.04-.22.06-.12.04-.22.08-.26.1-.04.02-.13.06-.24.13-.12.07-.22.15-.37.27-.13.11-.3.25-.5.43.07-.18.14-.34.2-.46.04-.09.15-.31.31-.56.08-.12.14-.21.18-.28.03-.04.12-.17.25-.33.17-.22.31-.37.35-.41.15-.16.27-.27.38-.37.25-.23.46-.38.62-.5.1-.07.29-.22.54-.38.16-.11.29-.18.41-.26.21-.13.37-.21.55-.31.4-.22.52-.28.77-.42.45-.25.67-.37.96-.54.23-.14.42-.26.68-.44.33-.23.58-.44.74-.57.36-.3.64-.56.76-.67.22-.21.47-.45.78-.81.32-.37.56-.69.77-.98.09-.12.05-.07.67-.96.35-.5.41-.59.54-.78.17-.26.27-.44.49-.82.23-.4.42-.72.65-1.16.1-.19.24-.46.46-.86.06-.12.1-.19.14-.25.3-.53.55-1.04.73-1.4.15-.31.36-.73.6-1.24.22-.47.39-.85.53-1.17.07-.16.18-.4.31-.71.14-.32.36-.83.63-1.5.2-.49.34-.85.47-1.21.16-.41.35-.92.59-1.6.3-.86.52-1.53.67-1.99.21-.65.36-1.14.41-1.32.07-.23.24-.79.44-1.53.15-.53.27-.97.42-1.58.11-.43.2-.83.24-.98.06-.24.08-.37.2-.89.19-.84.19-.84.23-.99.14-.62.22-1.08.35-1.88.16-.95.27-1.68.3-1.89.04-.28.17-1.24.31-2.53.14-1.34.21-2.36.26-3.19.07-.99.1-1.7.12-2.19.04-.96.05-1.36.05-1.55,0-.29,0-.52-.02-1.6-.03-1.25-.04-1.87-.05-2.29-.03-.66-.06-1.16-.1-1.88-.03-.57-.06-.97-.1-1.51-.08-1.02-.17-1.82-.21-2.23-.11-.94-.21-1.63-.31-2.34-.11-.74-.22-1.5-.4-2.49-.14-.78-.28-1.42-.55-2.69-.15-.72-.24-1.12-.37-1.68-.13-.54-.28-1.19-.53-2.12-.39-1.5-.73-2.77-1.26-4.38-.36-1.11-.67-1.93-1.05-2.95-.3-.8-.62-1.66-1.05-2.71-.15-.36-.72-1.71-1.57-3.42-.28-.57-1.35-2.69-2.83-5.01,0,0-.87-1.37-1.83-2.64-.12-.15-.3-.39-.55-.69-.3-.36-.33-.36-.67-.75-.5-.58-.48-.62-.76-.9-.17-.16-.27-.23-.55-.51-.17-.16-.21-.21-.35-.36-.23-.23-.4-.37-.58-.53-.67-.57-.61-.56-1.04-.92-.28-.23-.48-.38-.84-.65-.32-.24-.59-.44-.93-.67-.39-.27-.68-.43-1.2-.73-.35-.2-.81-.46-1.35-.75l.68.09s.23.04.31.04c.08,0,.52.08.67.1.15.02.41.07.5.08s.37.06.52.09c.15.03.6.11.96.18.36.07.72.15.88.19.17.04.53.12.82.19.3.07.66.17.93.24.27.07.65.19.65.19.25.08.47.15.65.21.14.05.35.12.62.22.13.05.32.12.57.23.09.04.26.11.45.2.35.17.6.32.89.49.2.12.45.27.75.47.07.04.14.08.21.11.73.89,1.33,1.67,1.77,2.28.45.62.79,1.12.91,1.3.2.29.49.74.84,1.3.41.66.72,1.19.86,1.44.47.82.81,1.47,1.06,1.95.2.38.49.94.86,1.71.09.19.43.89.85,1.86.19.44.6,1.39,1.08,2.64.06.15.4,1.03.76,2.07.15.43.28.81.31.9.07.21.18.54.32.96.09.27.21.66.36,1.13.25.8.42,1.42.49,1.65.28.99.5,1.83.64,2.4.31,1.25.53,2.26.66,2.84.29,1.34.49,2.46.61,3.18.11.63.26,1.59.42,2.75.09.66.15,1.15.17,1.31.1.87.16,1.52.22,2.07.05.58.12,1.23.18,2.12.01.17.05.74.09,1.48.04.79.06,1.47.08,2,.03,1.18.03,2.09.03,2.38,0,1.4-.04,1.42-.03,2.46.01,1.1.06,1.22.07,2.31.02,1.08-.01,1.9-.04,2.61-.02.44-.08,1.83-.26,3.64-.04.44-.17,1.59-.39,3.06-.16,1.09-.32,1.91-.41,2.42-.22,1.19-.43,2.13-.55,2.67-.07.31-.3,1.33-.65,2.64-.1.38-.32,1.18-.62,2.2-.08.26-.23.79-.45,1.45-.14.45-.46,1.43-.89,2.63-.74,2.08-1.43,3.72-1.82,4.62-.68,1.57-1.25,2.74-1.52,3.29-.46.96-2.08,3.87-2.08,3.87,0,0-.83,1.33-1.7,2.59-.23.33-.55.79-.95,1.32-.26.35-.56.75-.92,1.18-.12.14-.44.53-.88,1-.52.56-1.08,1.16-1.85,1.76-.28.22-.52.38-.63.45-.45.3-.81.5-1.01.6-.21.1-.38.18-.72.33-.41.18-.68.3-1.05.43-.3.11-.78.29-1.41.44-.44.11-.7.14-.78.15-.32.04-.62.04-.92,0-.2-.02-.33-.06-.47-.11-.16-.06-.29-.13-.38-.19.25,0,.44-.04.56-.08ZM262.34,336.06c.2-.02.26-.03.33-.04.15-.02.37-.05.65-.1l1-.18s.99-.21,1.59-.37c.6-.15,1.32-.38,2.53-.79,1.2-.41,1.6-.64,1.6-.64,0,0,.9-.41,1.55-.72.65-.32,1.41-.75,1.41-.75,0,0,1.07-.63,1.45-.88.39-.24,1.22-.82,1.43-.96.21-.15.88-.65,1.17-.87.29-.22.83-.66.83-.66l.8-.69.71-.64.77-.74.54-.55s.51-.55.77-.83c.25-.28.56-.64.85-.98.29-.34.96-1.24,1.21-1.56.48-.62.77-1.12,1.25-1.87.14-.22.31-.48.51-.83.17-.29.3-.54.39-.72l.51-1.03s.45-1.02.57-1.3.53-1.44.68-1.9c.15-.46.35-1.26.4-1.47.05-.21.18-.83.22-1.08.05-.25.16-1.11.21-1.51.04-.4.07-.95.08-1.2,0-.25,0-.78,0-1.26,0-.42-.04-.79-.06-1.07-.01-.21-.03-.5-.08-.83-.02-.17-.05-.4-.12-.75-.07-.37-.17-.89-.33-1.53,0,0,.2.32.3.47s.4.65.5.83c.11.18.48.82.48.82.25.43.56,1,.75,1.35.19.35.61,1.17.97,1.89.36.72.99,2.12.99,2.12,0,0,.04.68.05.92.01.24.03,1.17.03,1.53s-.05,1.95-.07,2.33c-.02.38-.12,1.42-.15,1.71-.03.3-.15,1.19-.2,1.52-.05.33-.19,1.11-.25,1.44-.06.33-.53,2.35-.64,2.77-.11.41-.36,1.25-.55,1.84-.19.59-.54,1.54-.62,1.75-.08.2-.53,1.3-.66,1.59-.13.29-.81,1.71-1.02,2.11-.21.4-.71,1.28-.97,1.71-.25.43-1.11,1.72-1.3,1.98-.19.27-1.28,1.68-1.28,1.68l-1.47,1.69-1.05,1.08-.91.85-1.28,1.1-1.15.89-1.19.83-1.33.82s-1.53.82-1.9,1c-.38.18-1.5.65-1.82.78-.33.13-1.79.6-2.34.76-.55.15-1.44.34-1.92.43-.47.09-1.39.13-1.67.13-.28,0-1.33-.16-1.78-.29-.46-.13-1.11-.56-1.5-.86-.38-.3-.58-.59-.79-.86-.23-.29-.58-.8-.9-1.62-.31-.77-.43-1.44-.47-1.65-.07-.4-.15-.97-.15-1.67,0-.25,0-.73.09-1.32.03-.19.11-.8.3-1.41.07-.22.16-.45.19-.54.08-.22.13-.33.2-.48.11-.22.2-.42.37-.55.11-.09.21-.12.28-.13.09-.01.24-.03.41-.05ZM45.7,412.32c-.16-.15-.37-.37-.59-.67-.13-.17-.4-.55-.69-1.14-.46-.94-.7-1.83-1-3-.24-.95-.39-1.71-.51-2.32-.15-.76-.25-1.34-.33-1.82-.17-1.05-.3-1.92-.37-2.47-.12-.89-.2-1.59-.32-2.72-.05-.44-.09-.8-.11-1.05-.09-1.18-.17-2.35-.26-3.53-.05-.63-.1-1.52-.13-2.58-.05-1.65-.03-2.93,0-4.18.05-1.7.13-4.21.3-7.41,0,0,.28-4.24.77-7.31.49-3.07.85-5.61,1.58-8.68.72-3.07.86-3.9,1.66-6.56.8-2.67,2.16-6.77,2.16-6.77,0,0,1.17-3.33,2.23-5.78,1.06-2.45,1.97-4.45,2.28-5.1.31-.65,2.06-4.1,2.06-4.1l2.5-4.49,3.68-5.88,2.29-3.32,3.36-4.48,3.65-4.42s.85-1.17,3.53-3.88c2.68-2.7,5.24-5.15,6.59-6.32,1.35-1.16,4.5-3.7,4.5-3.7l6.8-4.79,7.95-4.53s4.72-2.28,7.02-3.16c2.3-.88,6.84-2.43,7.68-2.67.84-.25,6.09-1.59,6.09-1.59,0,0,3.48-.75,5.13-1.01,1.64-.26,6.95-.91,6.95-.91l3.05-.24s2.56-.21,5.39-.19c2.83.01,3.13-.06,6.05.12,2.93.18,6.07.47,6.07.47l4.79.62,3.49.48,4.2,1.09,4.12,1.27,2.32,1.01s1.18.65,1.59,1.01c.41.37,1.46,1.6,1.65,1.94l.19.33s-.55-.43-.77-.58c-.22-.15-.83-.5-.83-.5l-.57-.24s-.31-.16-.42-.19-.62-.05-.98-.1c-.36-.06-.66-.02-.66-.02l-.43.09s-.36.12-.5.22c-.14.1-.37.25-.48.35-.11.1-.37.36-.48.52-.12.16-.25.39-.33.59-.07.2-.19.55-.21.8-.02.25-.04.62,0,.83.03.21.05.37.1.56.06.19.14.49.22.62.09.12.18.32.3.5.12.18.36.52.65.76.29.24.66.48.74.53.08.04.5.28.73.37.23.09.92.36.92.36l.41.16.54.17.6.18.47.14.55.15.32.09.16.04s-.32.42-.41.51c-.09.09-.64.57-.78.65-.14.08-.6.31-.71.35s-.65.2-.7.21-.66.11-.72.11c-.06,0-1.08.03-1.14.03s-.9-.08-.95-.08c-.05,0-1.11-.19-1.17-.2s-1.56-.41-1.56-.41l-1.15-.39-1.35-.55-1.22-.58-2.48-1.47-2.56-1.78-1.87-1.31-2.09-1.29-2.03-1.01-3.64-.31-8.18-.3-5.14.33-5.46.56-3.62.56s-5.59,1.14-7.05,1.53c-1.46.4-4.99,1.43-6.49,1.96-1.5.53-4.32,1.62-4.94,1.88-.62.26-5.95,2.74-6.7,3.14-.75.4-4.01,2.23-4.25,2.38-.24.14-5.42,3.52-5.42,3.52l-4.83,3.65-4.89,4.26-3.44,3.38-3.88,4.09-5.52,7.08-3.44,4.94-3.81,6.22-2.77,5.19-2.56,5.49-2.92,8.18-1.39,5.22-1.28,6.49-.76,5.79-.44,6.14-.04,7.79.47,7.32.45,3.76c.31,1.77.62,3.54.93,5.31.43.8.93,2.01,1.15,3.59.14,1.02.43,3.03-.37,4.79-.37.8-.83,1.28-1.13,1.54,0-.18-.02-.37-.03-.57-.02-.22-.04-.42-.06-.62-.02-.14-.05-.33-.09-.56-.01-.08-.06-.3-.1-.48-.05-.24-.16-.69-.4-1.13-.08-.15-.21-.36-.41-.58-.13-.17-.25-.28-.34-.35-.14-.11-.26-.17-.43-.25-.07-.04-.15-.07-.26-.12-.26-.1-.47-.13-.58-.14-.08,0-.19-.01-.31,0-.1.02-.2.03-.3.05-.07.02-.14.05-.22.08-.08.03-.15.06-.21.1-.08.05-.16.11-.24.17-.08.06-.16.11-.24.17-.07.06-.14.13-.22.23-.08.1-.15.2-.2.28-.13.21-.2.41-.25.55-.1.31-.13.58-.14.73,0,.07-.02.26-.02.5,0,.25.03.46.06.61.03.17.06.29.09.41.04.16.11.38.21.63.08.17.17.33.25.5.06.09.11.18.17.28.06.1.11.19.16.29-.15-.15-.31-.31-.49-.47-.19-.17-.37-.32-.54-.46ZM83.33,404.8c-.06-.08-.11-.16-.17-.24-.08-.12-.16-.23-.23-.35-.08-.13-.18-.32-.28-.56-.06-.15-.1-.26-.14-.41-.02-.1-.08-.36-.07-.71,0-.09,0-.25.05-.46.05-.24.13-.39.22-.57.1-.19.22-.44.45-.66.14-.14.27-.22.36-.27.14-.08.26-.13.34-.16.18-.07.33-.1.44-.12.16-.03.27-.05.43-.05.04,0,.21,0,.43.08.09.03.38.13.72.4.4.32.69.72.88,1.04-.05-.32-.11-.65-.16-.97-.06-.29-.14-.63-.25-.99-.12-.38-.24-.7-.36-.97-.13-.3-.33-.73-.59-1.22-.2-.37-.35-.63-.66-1.14-.18-.31-.44-.73-.75-1.22-.34-.57-.61-1.05-.81-1.41-.17-.3-.31-.57-.47-.93-.19-.42-.29-.63-.37-.93-.03-.11-.05-.21-.18-1.03-.04-.27-.08-.49-.11-.65-.05-.27-.1-.55-.15-.85-.07-.42-.12-.83-.16-1.21-.1-.88-.2-1.79-.3-2.71-.11-1.03-.2-2.04-.28-3.03-.11-1.45-.18-3.03-.19-4.72,0-1.12.01-2.19.06-3.21.02-.73.05-1.48.09-2.26.05-.95.12-1.86.19-2.73.07-.89.15-1.82.26-2.78.19-1.64.42-3.15.67-4.55.29-1.6.52-2.81.68-3.63.09-.45.16-.8.34-1.7.17-.86.25-1.27.39-1.97.11-.53.2-.96.25-1.25.59-2.21,1.17-4.42,1.76-6.63.41-1.21.83-2.44,1.27-3.67.32-.91.65-1.81.97-2.69.13-.36.34-.9.59-1.54.34-.86.6-1.46.87-2.11.66-1.57,1.01-2.43,1.18-2.84.91-2.17,2.77-5.73,4.09-8.22.59-1.02,1.21-2.07,1.86-3.12.75-1.21,1.48-2.35,2.21-3.44,1.56-2.31,3.04-4.31,4.38-5.99.89-1.12,2.48-3.07,4.59-5.31.08-.08,1.13-1.2,2.17-2.23,3.08-3.03,6.34-5.53,8.69-7.19,1.05-.77,2.16-1.53,3.33-2.27.78-.49,1.55-.96,2.29-1.38,2.08-1.17,3.91-2.07,5.4-2.75,1.02-.47,3.09-1.41,5.02-2.04.33-.11.87-.28,2.11-.68,1.32-.43,1.37-.46,1.74-.56.5-.13.79-.19,1.26-.37.47-.18.85-.38,1.1-.52,1.02-.58,1.28-.74,2.06-1.12.28-.14.67-.32,1.14-.5-.11,0-.23,0-.34-.01-.68-.02-1.36-.05-2.04-.07-.26-.02-.66-.05-1.14-.04-.1,0-.18,0-.58.03-.71.04-1.23.08-1.73.11-.22.01-.57.04-.99.06l-2.13.15-2.21.23-2.58.26-2.07.3-2.01.31-1.17.55-1.36.67-1.2.62c-1.04.62-2.08,1.24-3.11,1.86l-2.47,1.56c-.7.46-1.42.95-2.15,1.47-1.09.78-2.12,1.57-3.09,2.37-.79.61-1.6,1.27-2.43,2-.5.44-.99.89-1.46,1.33-.6.56-1.21,1.14-1.83,1.75-.66.65-1.31,1.3-1.93,1.94-1.13,1.26-2.25,2.52-3.38,3.78-1.21,1.54-2.41,3.07-3.62,4.61-.96,1.41-1.93,2.82-2.89,4.23-.83,1.37-1.66,2.74-2.49,4.1-.81,1.5-1.62,3-2.43,4.49-.37.74-.75,1.51-1.12,2.3-.29.61-.56,1.21-.83,1.8-.27.61-.54,1.24-.81,1.87-.37.86-.73,1.71-1.08,2.56-.27.66-.54,1.35-.81,2.06-.34.91-.66,1.81-.96,2.68-.46,1.37-.91,2.75-1.37,4.12-.46,1.46-.92,2.91-1.38,4.37-.19.74-.37,1.49-.56,2.25-.37,1.54-.72,3.06-1.03,4.55-.14.68-.28,1.38-.42,2.08-.17.86-.33,1.71-.47,2.55-.15.92-.3,1.84-.45,2.76-.25,1.64-.47,3.34-.67,5.11-.09.79-.17,1.58-.24,2.35-.09.98-.17,1.98-.24,3-.08,1.18-.15,2.33-.2,3.46-.04.91-.06,1.85-.08,2.81-.02,1.05-.03,2.08-.02,3.08.05,1.55.1,3.11.15,4.66.11,1.34.22,2.68.34,4.01.07.66.16,1.36.27,2.08.09.62.19,1.22.29,1.79.13.7.25,1.29.36,1.77.1.44.22.99.41,1.7.08.29.2.72.38,1.29.24.74.45,1.29.52,1.47.14.35.35.89.65,1.5.31.63.76,1.52,1.53,2.36.57.63,1.08.96,1.25,1.07.42.26.79.42,1.08.51-.11-.13-.22-.25-.33-.38ZM125.27,394.25c-.15-.02-.27-.04-.44-.08-.14-.04-.24-.08-.41-.15-.12-.05-.24-.1-.41-.19-.14-.07-.25-.13-.4-.24-.11-.08-.22-.17-.34-.32-.07-.09-.12-.18-.16-.24-.04-.08-.07-.15-.09-.2-.07-.17-.1-.31-.11-.35-.02-.09-.03-.15-.04-.19-.02-.14-.02-.25-.02-.3,0-.06,0-.17.02-.31,0-.03.03-.19.1-.38.04-.1.07-.17.12-.27.06-.12.12-.21.16-.28.07-.08.14-.16.21-.24.06-.05.13-.11.19-.16.1-.08.24-.16.4-.22.11-.04.26-.09.44-.1.25-.02.44.04.6.08.15.04.26.09.3.11.08.04.18.09.31.17.21.14.6.43,1.1.84-.22-.25-.37-.48-.46-.65-.05-.1-.11-.2-.21-.37-.04-.07-.13-.21-.26-.39-.04-.05-.16-.22-.33-.42-.13-.15-.22-.24-.34-.37-.09-.1-.22-.23-.4-.39-.17-.15-.3-.26-.44-.38-.13-.11-.22-.18-.35-.27-.08-.06-.14-.09-.41-.27-.11-.07-.23-.15-.35-.23-.13-.07-.33-.19-.58-.32-.2-.1-.34-.17-.43-.22-.75-.36-1.3-.66-1.71-.88-.12-.06-.27-.15-.47-.27-.29-.18-.49-.33-.56-.38-.2-.15-.35-.28-.43-.35-.19-.17-.32-.29-.35-.33-.06-.06-.11-.11-.14-.15-.2-.34-.4-.71-.61-1.1-.17-.33-.33-.65-.49-.97-.42-.8-.86-1.73-1.27-2.8-.23-.6-.44-1.19-.61-1.75-.31-.92-.61-1.83-.92-2.75-.21-.7-.43-1.4-.64-2.09-.15-.6-.3-1.21-.45-1.81-.19-.86-.38-1.73-.57-2.59-.17-1-.33-2.01-.5-3.01-.11-.96-.23-1.92-.34-2.88-.09-1.05-.17-2.09-.26-3.14-.05-1.03-.1-2.06-.15-3.1-.02-.57-.03-1.16-.03-1.77,0-.58,0-1.15.01-1.7.02-1.07.06-2.2.13-3.37.08-1.38.19-2.68.32-3.91.11-.87.21-1.74.32-2.62.05-.42.13-1.01.24-1.7.09-.6.24-1.48.57-3.17.3-1.51.45-2.26.69-3.29.55-2.34,1.1-4.09,1.4-5.06.36-1.14.66-1.99.87-2.6.29-.83.7-1.99,1.29-3.45.5-1.25.91-2.15,1.25-2.89.26-.58.92-2.01,1.84-3.78.44-.85.79-1.52,1.3-2.4.26-.45.53-.88.87-1.43.4-.64.73-1.18.97-1.55.28-.43.57-.87.86-1.31.36-.53.71-1.04,1.06-1.54.52-.69,1.04-1.38,1.57-2.07.45-.59.93-1.2,1.45-1.81.38-.45.75-.87,1.12-1.26.44-.5.9-1,1.37-1.5.62-.66,1.23-1.28,1.83-1.86.62-.58,1.26-1.17,1.92-1.75.37-.32.73-.63,1.09-.94.89-.7,1.65-1.27,2.21-1.68.99-.73,1.98-1.45,3.27-2.27,0,0,1.09-.69,2.12-1.25,3.4-1.85,10.81-2.65,11.14-2.69.2-.09.4-.18.61-.27.32-.14.64-.26.95-.38-.47-.29-.87-.54-1.18-.73-.58-.37-.65-.42-.91-.56-.35-.2-.52-.26-1.2-.59-.36-.18-.66-.32-.84-.41-.38-.03-.96-.08-1.68-.14-1.46-.12-1.67-.15-2.17-.17-.44-.02-.26,0-1.75-.06,0,0-1.33-.05-1.4-.05-.41-.02-.83-.03-1.24-.05-.16.06-.38.15-.65.26-.36.16-.67.31-1.18.59-.31.17-.83.45-1.38.77-1.55.91-3.55,2.29-3.84,2.49,0,0-2,1.45-2.93,2.17-.93.72-2.43,2.05-3.92,3.42-1.49,1.37-2.54,2.57-2.54,2.57l-1.7,1.9c-1.03,1.23-1.32,1.58-1.32,1.58-.42.52-.74.93-.95,1.21-1.16,1.51-2.05,2.82-2.34,3.22-1.14,1.62-2.19,3.42-2.19,3.42,0,0-2.25,4.01-2.25,4.01-.95,1.78-1.64,3.26-1.98,4.01-.19.42-1.1,2.44-2.15,5.29-.93,2.52-1.53,4.51-1.73,5.18-.44,1.43-1.03,3.76-1.39,5.27-.36,1.51-1.11,5.64-1.27,6.42-.16.78-.49,4.1-.59,4.79-.1.69-.26,3.28-.36,4.54-.1,1.26-.2,3.76-.27,5.72-.05,1.63-.08,3.5.02,5.99.07,1.84.16,3.89.57,6.52.18,1.16.37,2.11.51,2.78.1.43.25,1.08.46,1.85.55,2,1.12,3.48,1.54,4.56.19.5.47,1.19.83,2.01.47,1.08.89,1.98,1.21,2.66.4.83.88,1.83,1.56,3.08.46.83.86,1.5,1.15,1.98.24.38.56.88.94,1.45.3.45.64.93,1.09,1.53.34.44.81,1.05,1.5,1.74.72.74,1.32,1.19,1.52,1.34.51.39.93.64,1.11.74.55.32,1.13.66,1.93.86.4.1.93.22,1.63.12.42-.07.77-.19,1.01-.31-.1,0-.24-.01-.4-.03ZM152.69,390.34c-.09-.02-.21-.05-.42-.09-.16-.03-.16-.03-.26-.05-.19-.04-.33-.09-.48-.14-.17-.06-.26-.09-.38-.16-.08-.04-.13-.08-.22-.14-.19-.13-.29-.19-.39-.31-.13-.13-.2-.26-.22-.29-.12-.19-.17-.38-.19-.44-.02-.08-.07-.23-.09-.44,0-.07-.01-.2,0-.37,0-.09.03-.27.11-.47.05-.13.1-.22.14-.29.02-.04.1-.16.21-.3.06-.07.11-.12.15-.16.07-.06.13-.12.22-.18.07-.04.12-.06.22-.11.09-.04.16-.07.27-.1.07-.02.17-.05.31-.05.09,0,.16,0,.24.02.11.02.2.04.25.06.14.04.25.08.3.11.04.02.14.06.27.14.13.08.24.15.41.28.15.11.34.26.56.45-.08-.19-.16-.35-.22-.47-.05-.09-.17-.32-.35-.58-.09-.12-.16-.22-.21-.29-.03-.04-.13-.17-.28-.34-.2-.22-.35-.38-.39-.42-.17-.17-.31-.28-.42-.38-.29-.24-.52-.4-.7-.52-.11-.08-.33-.22-.61-.4-.18-.11-.32-.19-.46-.26-.24-.13-.41-.22-.62-.32-.45-.23-.58-.29-.87-.44-.5-.26-.76-.38-1.08-.56-.26-.15-.48-.27-.77-.45-.38-.24-.65-.45-.84-.59-.41-.31-.72-.58-.86-.7-.25-.22-.53-.47-.88-.84-.37-.39-.63-.71-.87-1.02-.1-.12-.06-.07-.76-1-.39-.52-.47-.61-.61-.81-.19-.27-.31-.46-.55-.85-.26-.42-.48-.75-.74-1.21-.12-.2-.27-.48-.52-.89-.07-.12-.12-.19-.15-.25-.34-.55-.62-1.08-.83-1.45-.17-.32-.41-.76-.68-1.28-.25-.48-.44-.88-.6-1.21-.08-.16-.2-.41-.35-.73-.16-.33-.41-.86-.71-1.55-.22-.5-.38-.88-.53-1.26-.18-.43-.4-.95-.67-1.66-.34-.89-.59-1.58-.76-2.06-.24-.67-.41-1.19-.46-1.37-.08-.24-.27-.82-.5-1.58-.17-.55-.31-1-.48-1.64-.12-.45-.23-.86-.27-1.02-.06-.25-.1-.38-.23-.92-.22-.87-.22-.88-.26-1.03-.16-.64-.25-1.12-.4-1.95-.18-.98-.3-1.74-.34-1.96-.05-.29-.2-1.29-.35-2.63-.16-1.39-.23-2.45-.3-3.31-.07-1.02-.11-1.77-.14-2.27-.05-.99-.06-1.41-.06-1.61,0-.3,0-.54.02-1.66.03-1.29.04-1.94.06-2.38.03-.68.06-1.2.11-1.95.04-.59.07-1.01.11-1.56.09-1.06.19-1.89.24-2.31.12-.97.23-1.69.35-2.42.12-.77.25-1.56.45-2.58.16-.81.31-1.47.62-2.79.17-.75.27-1.16.41-1.74.14-.56.32-1.24.59-2.2.45-1.55.82-2.87,1.42-4.55.41-1.15.75-2,1.18-3.06.34-.83.7-1.72,1.19-2.81.17-.37.81-1.78,1.77-3.55.32-.59,1.52-2.79,3.19-5.2,0,0,.99-1.42,2.07-2.73.13-.16.33-.41.62-.72.34-.37.38-.38.75-.78.57-.6.54-.65.86-.93.19-.17.3-.24.62-.53.19-.17.23-.22.4-.37.26-.24.45-.38.66-.55.75-.59.68-.58,1.18-.95.32-.24.54-.4.95-.68.36-.25.67-.46,1.05-.7.44-.28.76-.44,1.36-.76.39-.21.91-.48,1.52-.77l-.77.09s-.26.04-.35.05c-.09,0-.59.08-.76.11-.17.02-.47.07-.57.09s-.42.07-.59.09c-.17.03-.68.11-1.09.19-.41.07-.81.15-1,.19-.19.04-.59.12-.93.2-.34.07-.75.17-1.05.25-.31.08-.73.19-.73.19-.28.08-.53.15-.73.21-.16.05-.39.12-.7.23-.15.05-.37.13-.65.24-.11.04-.29.12-.51.21-.39.17-.68.33-1.01.51-.22.12-.51.29-.85.49-.08.04-.16.08-.23.12-.83.92-1.5,1.73-2,2.37-.51.65-.89,1.16-1.03,1.35-.22.3-.55.76-.95,1.35-.46.68-.81,1.24-.97,1.49-.53.86-.92,1.53-1.19,2.02-.22.4-.55.98-.97,1.77-.1.2-.48.93-.96,1.93-.22.46-.68,1.44-1.22,2.73-.07.16-.45,1.07-.86,2.14-.17.45-.32.84-.35.94-.08.22-.21.56-.36.99-.1.28-.24.69-.4,1.17-.28.83-.48,1.48-.55,1.71-.32,1.03-.56,1.9-.72,2.49-.35,1.29-.6,2.34-.74,2.94-.32,1.39-.55,2.55-.69,3.3-.12.66-.3,1.65-.48,2.86-.1.68-.17,1.2-.19,1.36-.12.9-.19,1.57-.25,2.15-.06.6-.13,1.28-.2,2.19-.01.18-.06.76-.1,1.53-.04.82-.07,1.52-.09,2.07-.04,1.23-.03,2.17-.03,2.47,0,1.46.05,1.47.04,2.55-.01,1.14-.06,1.27-.08,2.39-.02,1.12.02,1.97.05,2.71.02.46.09,1.9.29,3.78.05.45.19,1.65.44,3.17.19,1.13.36,1.98.46,2.51.25,1.24.48,2.21.62,2.77.08.32.34,1.38.73,2.74.11.39.36,1.23.7,2.29.09.27.26.82.5,1.51.16.46.52,1.48,1,2.73.84,2.15,1.62,3.86,2.06,4.8.76,1.63,1.41,2.84,1.71,3.41.52.99,2.35,4.02,2.35,4.02,0,0,.94,1.38,1.92,2.68.26.34.62.82,1.07,1.37.29.37.64.78,1.03,1.22.13.15.49.55,1,1.04.59.58,1.22,1.2,2.09,1.82.32.23.58.39.71.47.51.31.92.51,1.14.62.23.11.43.19.81.34.46.18.77.31,1.18.45.34.12.88.3,1.59.46.5.11.79.14.88.15.36.04.7.04,1.04,0,.22-.03.38-.06.53-.11.18-.06.32-.14.43-.2-.28,0-.49-.05-.64-.08ZM171.44,332.89c-.22-.02-.29-.03-.37-.04-.17-.02-.42-.05-.73-.1l-1.13-.19s-1.11-.22-1.8-.38c-.68-.16-1.49-.4-2.85-.82-1.36-.43-1.8-.66-1.8-.66,0,0-1.01-.42-1.75-.75-.74-.33-1.59-.78-1.59-.78,0,0-1.2-.66-1.64-.91-.44-.25-1.37-.85-1.61-1-.24-.15-1-.68-1.32-.91-.33-.23-.93-.69-.93-.69l-.91-.71-.8-.66-.86-.76-.61-.57s-.58-.57-.87-.86c-.29-.29-.63-.66-.95-1.02-.32-.35-1.09-1.29-1.36-1.62-.54-.64-.87-1.16-1.41-1.94-.16-.23-.35-.5-.57-.87-.19-.3-.33-.57-.44-.75l-.58-1.07s-.51-1.05-.64-1.34c-.13-.29-.6-1.5-.77-1.98-.17-.48-.39-1.3-.45-1.52-.06-.22-.2-.86-.25-1.12-.05-.26-.19-1.15-.24-1.57-.05-.42-.08-.99-.09-1.24s0-.81,0-1.3c.01-.44.04-.82.07-1.12.01-.22.04-.52.09-.86.02-.18.06-.41.13-.78.08-.38.19-.92.37-1.58,0,0-.22.33-.33.49s-.45.67-.57.86c-.12.18-.54.85-.54.85-.28.45-.63,1.04-.85,1.4-.21.36-.69,1.21-1.1,1.96-.41.75-1.12,2.2-1.12,2.2,0,0-.05.71-.06.96-.01.25-.04,1.22-.04,1.59,0,.37.06,2.02.08,2.42.02.4.13,1.47.17,1.78.04.31.17,1.23.22,1.58.06.35.21,1.16.28,1.5.07.34.6,2.44.72,2.87.12.43.41,1.3.62,1.9.21.61.61,1.6.7,1.81.09.21.6,1.35.74,1.65.14.3.92,1.77,1.15,2.19.23.42.8,1.33,1.09,1.78.29.44,1.26,1.78,1.47,2.06.21.28,1.44,1.75,1.44,1.75l1.66,1.75,1.19,1.12,1.03.89,1.44,1.14,1.3.92,1.35.86,1.5.85s1.72.85,2.15,1.04c.42.19,1.69.68,2.06.81.37.13,2.02.63,2.64.79.62.16,1.63.36,2.16.45.53.09,1.57.14,1.88.14.32,0,1.5-.17,2.01-.3.51-.14,1.25-.58,1.69-.9.43-.31.65-.61.9-.89.26-.3.65-.83,1.02-1.68.34-.79.49-1.49.53-1.71.08-.41.17-1.01.17-1.74,0-.26,0-.76-.1-1.37-.03-.2-.12-.83-.34-1.47-.08-.23-.18-.47-.21-.56-.1-.23-.14-.35-.22-.5-.12-.23-.23-.43-.42-.57-.12-.09-.24-.12-.31-.14-.11-.01-.27-.03-.46-.05Z"/>
    </g>
  </g>
</svg>