<?xml version="1.0" encoding="UTF-8"?>
<svg id="phil" xmlns="http://www.w3.org/2000/svg" width="420" height="420" viewBox="0 0 420 420">
  <defs>
    <style>
      .cls-1 {
        fill: #ff00cf;
      }
    </style>
  </defs>
  <g id="wings">
    <g id="rare">
      <path id="wingsMiddle" class="cls-1" d="M313.43,373.91c.1-.44.12-.49.17-.71.09-.38.12-.56.27-1.34.21-1.07.19-.95.25-1.27.07-.41.06-.39.21-1.34.13-.84.15-.93.21-1.34.06-.43.09-.75.13-1.09.13-1.3.2-1.95.26-2.67.07-.84.2-2.43.27-4.48.08-2.39.05-4.37,0-5.65-.02-.54-.1-2.82-.38-5.78-.2-2-.4-3.45-.47-3.86-.16-1.09-.3-1.89-.44-2.7-.21-1.17-.42-2.38-.77-3.95-.31-1.37-.58-2.41-.7-2.86-.23-.87-.42-1.5-.6-2.11-.5-1.67-.92-2.94-1.1-3.46-.36-1.07-.74-2.18-1.3-3.58-.4-1-.71-1.69-1.14-2.62-.62-1.36-1.35-2.97-2.4-4.92-.52-.98-1.23-2.22-2.11-3.62-.48-.76-.98-1.52-1.5-2.3-.46-.68-.91-1.33-1.36-1.96-.58-.73-1.15-1.45-1.73-2.18-1.27-1.53-1.51-1.8-1.51-1.8-.66-.76-1.16-1.26-1.88-2-.55-.55-1.11-1.13-1.89-1.83-.56-.5-1.05-.91-1.42-1.21-.41-.34-.82-.67-1.25-1.01-.3-.24-.61-.47-.91-.7-.25-.19-.69-.52-1.07-.79-.13-.09-.18-.12-.43-.3-.15-.1-.24-.17-.39-.27-.1-.07-.19-.12-.25-.16.29.36.58.72.88,1.1.17.22.35.45.51.67.22.31.45.62.67.94.29.41.56.81.84,1.21.29.46.59.94.89,1.43.39.64.76,1.28,1.11,1.91.74,1.51,1.47,3.01,2.21,4.52.33.77.65,1.58.98,2.41.3.78.59,1.54.86,2.29l1.28,3.99c.34,1.28.68,2.56,1.02,3.83.15.63.3,1.29.44,1.96.17.82.33,1.61.48,2.39.36,2.21.41,2.54.41,2.54s.26,1.67.46,3.45c.16,1.45.34,3.5.43,6.09.02.74.03,1.5.04,2.29,0,.96-.01,1.89-.04,2.77,0,.27.01.69.03,1.19.02.56.04.65.05,1.04.02.51,0,.93,0,1.75,0,.36-.02.84-.05,1.5,0,0-.06,1.31-.16,2.58-.33,3.95-1.26,8.2-1.31,8.44-.24,1.07-.46,1.94-.58,2.42-.47,1.84-.89,3.23-1.05,3.77-.18.57-.75,2.38-1.61,4.68-.32.86-1.3,3.2-1.91,4.57-.85,1.91-1.61,3.25-2.06,4.09-.31.57-.59,1.08-.99,1.76-.76,1.27-1.38,2.15-1.93,2.93-.52.74-1,1.4-1.69,2.23-.46.55-.77.87-.77.87l1.12-.03s1.41-.34,2.92-.83c.68-.22,1.02-.33,1.45-.51.34-.14,1.12-.49,2.2-1.18.38-.24,1.18-.77,2.74-2.1,1.47-1.25,2.19-1.91,3.13-2.87,1.63-1.66,2.83-3.48,3.3-4.2.7-1.07.95-1.6,1.72-2.62.35-.46.76-.97,1.35-1.43.42-.33.77-.52.96-.62.33-.17.6-.31.98-.39.21-.04.48-.09.83-.02.32.07.56.21.72.3.27.16.47.33.57.43.21.19.49.5.78.97.16.27.36.66.53,1.16.14.42.24.81.29,1.13.05-.21.12-.54.21-.93ZM296.6,357.92s-.57-.04-1.35.11c-.77.15-1.79.4-2.4.64-.6.24-1.65.72-1.84.82s-1.41.82-1.82,1.11c-.41.3-1.25.92-1.66,1.28l-.96.88s-1.05,1.07-1.48,1.57c-.43.51-1.92,2.33-1.92,2.33l-1.33,1.68-1.32,1.67-1.61,1.97-1.92,2.17s-.93,1.11-2.29,2.22c-1.36,1.12-2.52,2.03-3.54,2.56-1.02.53-3.42,1.45-3.42,1.45l-1.39.32s-.91.14-1.3.16c-.39.02-1.68,0-1.99-.04,0,0-1.29-.22-1.53-.28,0,0-.75-.22-.94-.3-.19-.07-1.56-.72-1.89-.94-.33-.22-1.05-.74-1.46-1.17-.41-.43-.63-.71-.63-.71,0,0,.59-.57,1.16-1.28s1.95-2.58,2.52-3.63c.57-1.05,1.03-1.98,1.03-1.98,0,0,.58-1.25.88-2.08.3-.83.78-2.31.88-2.68.1-.37.49-1.95.59-2.53.1-.59.3-1.97.3-1.97,0,0,.15-1.66.17-2.14.01-.48.05-1.66-.03-2.85-.05-.8-.13-2.48-.38-4.32-.05-.37-.14-1.04-.23-1.99-.05-.59-.08-1.08-.1-1.4-.04-.63-.09-1.27-.13-1.9.1.07.22.15.37.24.22.13.4.2.46.23.35.15.64.19,1.09.26.09.01.21.03.36.05.48.05.84.04,1.07.03.14,0,.36-.01.64-.05.32-.04.7-.1.7-.1.24-.05.56-.11.92-.2.23-.05.39-.09.6-.15.38-.1.59-.18.94-.3.84-.29.91-.25,1.53-.48.34-.12.65-.25.92-.38,0,0,1.39-.64,1.78-.85.38-.2,1.51-.84,1.82-1.03.31-.19,1.66-1.1,1.88-1.26s1.07-.83,1.37-1.09c.3-.26,1.21-1.06,1.36-1.2.15-.14,1.04-1.02,1.3-1.29.27-.27,1.24-1.39,1.41-1.59s1.2-1.44,1.74-2.26c.55-.82,1.58-2.5,1.75-2.81.17-.31,1.15-2.2,1.53-3.12.38-.92.81-1.96,1.14-3.01.32-1.05.67-2.31.8-2.9.14-.59.43-1.94.43-1.94,0,0,.28-1.54.38-2.53.1-.99.18-2.11.2-2.49.01-.38.05-1.75.05-1.75,0-.44-.01-.81-.02-1.09,0,0,0-.37-.02-.57,0-.01,0-.08-.01-.17,0-.04,0-.08,0-.13,0-.07,0-.08,0-.12,0-.06,0-.06,0-.11,0-.04,0-.05,0-.09,0-.04,0-.06,0-.08,0-.02,0-.03,0-.05,0-.02,0-.03,0-.03,0,0,0,0,0,.02,0,0,0,.02.01.02,0,.02.02.05.03.08.02.05,0,0,.04.1.08.18.13.3.13.3.05.12.08.18.11.26,0,0,.05.12.11.25.24.59.5,1.24.5,1.24.38.97.8,2.13.87,2.31,0,0,.71,2.04.85,2.48.14.44.53,1.77.69,2.34.3,1.1.51,1.93.64,2.42.16.63.25,1.02.31,1.28.11.49.19.87.25,1.12.34,1.61.52,2.42.66,3.24.23,1.27.37,2.29.5,3.19.08.55.12.91.16,1.19.04.32.12,1.01.21,2.01.15,1.7.23,3.19.26,4.06.03,1.12.06,2.55.07,2.95,0,.4,0,1.4-.01,1.69-.01.29-.1,2.18-.13,2.58-.03.41-.07,1.22-.14,1.94-.06.71-.15,1.68-.21,2.24s-.21,1.68-.21,1.68c-.15.99-.27,1.79-.37,2.35-.07.4-.13.75-.22,1.19-.09.46-.18.85-.25,1.12ZM369.69,398.12c-.43-1.08-.83-1.92-1.13-2.5-.27-.53-.51-.93-.81-1.46-.17-.29-.31-.52-.49-.8-.22-.33-.4-.56-.46-.64-.13-.17-.46-.57-.93-1.02-.51-.48-1.06-.88-1.06-.88-.27-.24-.6-.49-.99-.7-.37-.21-.71-.33-1.01-.41-.62-.17-1.16-.25-1.59-.28-.99-.07-1.71.06-1.88.09-.16.03-.33.07-.53.13-.72.21-1.75.6-1.75.6,0,0-1.4.68-1.9,1.01-.5.33-2.11,1.53-2.11,1.53l-1.62,1.31-1.81,1.4s-1.02.72-1.44.96c-.45.26-1,.59-1.71.84-.44.16-.81.25-.93.27-.24.05-.45.09-.61.11.22-.91.38-1.72.51-2.39.07-.37.26-1.43.44-2.83.07-.57.13-1.05.17-1.41.03-.36.06-.71.09-1.07.08-1,.12-1.47.13-1.71,0-.13.02-.35.04-.65,0-.08.01-.17.03-.34.02-.2.02-.3.03-.38,0-.05,0-.2.02-.5,0-.12,0-.31,0-.31l.05-1.66.05-1.59v-.98s.01-.91,0-1.44c-.01-1.13-.03-1.99-.04-2.26-.06-2.33-.19-4.25-.23-4.86,0,0,0-.04-.18-2.5-.01-.16-.15-1.64-.25-2.63-.04-.39-.08-.73-.08-.73-.04-.35-.07-.62-.1-.86-.09-.73-.15-1.24-.22-1.85-.09-.68-.16-1.15-.29-2.07-.14-.97-.21-1.45-.31-2.12-.14-.87-.25-1.51-.38-2.23-.1-.57-.32-1.75-.48-2.55-.16-.8-.38-1.87-.5-2.42-.12-.55-.23-1.09-.33-1.53l-.36-1.59c-.03-.14-.07-.34-.14-.58-.08-.31-.14-.5-.23-.8-.08-.26-.16-.55-.34-1.13-.15-.51-.25-.86-.31-1.07-.16-.55-.44-1.52-1.01-3.39,0,0-.37-1.24-.55-1.8-.18-.56-.46-1.44-.59-1.83-.13-.39-.53-1.55-.75-2.15-.22-.59-.19-.53-.51-1.35-.32-.82-.63-1.63-.63-1.63l-.33-.83-.43-1.06s-.32-.76-.56-1.32c-.24-.55-.47-1.07-.7-1.59-.23-.52-.4-.89-.54-1.17-.71-1.43-1.26-2.57-1.71-3.45-.3-.59-.52-1-.83-1.56-.36-.65-.37-.64-.74-1.29-.54-.98-.61-1.18-1.02-1.86-.19-.32-.19-.3-.68-1.09-.86-1.36-.98-1.61-1.47-2.36-.27-.41-.58-.86-1.06-1.53-1.27-1.76-2.3-3.23-3.2-4.33-.9-1.1-1.6-2.04-2.57-3.11-.97-1.07-1.77-1.94-2.54-2.73s-2.3-2.31-3.15-3.04c-.85-.73-1.34-1.22-2.47-2.12-1.12-.9-1.59-1.26-1.59-1.26,0,0-.58-.44-.86-.64-.28-.2-.62-.44-.88-.62s-.71-.49-1.05-.72c-.34-.23-.78-.54-1.3-.88-.52-.34-1.13-.73-1.59-1.03-.46-.3-.83-.53-1.24-.76-.4-.23-1.29-.71-1.29-.71l-1.48-.77,2.36.53s1.29.3,1.77.41c.48.11,2.13.54,2.52.65.38.12,1.56.48,2.4.76.84.28,2.54.86,2.54.86l1.51.59,1.38.57,2.18.94s1.76.88,2.15,1.08c.39.2,2.01,1.03,2.27,1.16s1.51.81,1.79.98c.28.17,1.19.72,1.19.72l.88.54s1.1.67,1.44.91c.34.24,2.06,1.45,2.06,1.45l1.86,1.31s1.06.8,1.35,1.04c.29.24,1.06.87,1.61,1.33,1.44,1.18,1.28,1.04,1.81,1.49.89.76,1.55,1.38,2.17,1.96.96.9,1.69,1.64,1.99,1.93,1.87,1.89,3.33,3.55,3.32,3.56,0,0-.2-.21-1.15-1.24,1.2,1.31,2.26,2.48,3.15,3.48.54.6.99,1.11,1.58,1.87.76.99,1.25,1.75,1.64,2.34,1.37,2.09,1.54,1.89,3.1,4.33,1.82,2.84,2.74,4.24,3.05,4.76.79,1.31,1.35,2.33,2.27,4.01.57,1.04.99,1.8,1.54,2.87.92,1.77,1.61,3.25,2.02,4.13.78,1.68,1.46,3.15,2.27,5.29.6,1.61,1.27,3.75,1.97,5.93.06.18.17.53.33,1.03.18.55.2.6.27.82.17.54.23.86.37,1.47.17.72.25.99.41,1.6.61,2.39,1.12,5.3,1.18,5.67.18,1.06.3,1.86.38,2.41.42,2.85.65,5.18.76,6.57.19,2.23.33,3.86.34,5.94,0,1.81,0,2.6.03,5.7,0,.23,0,.67,0,1.26-.02.68-.05,1.18-.13,2.39-.06.88-.11,1.64-.15,2.24-.03.9-.08,1.65-.13,2.2-.05.59-.1,1.05-.18,1.79-.08.75-.16,1.38-.21,1.84ZM309.51,392.33c.14-.17.48-.57.9-1.13.3-.41.5-.72.76-1.12.66-1.01,1.13-1.85,1.36-2.26.26-.47.48-.88.64-1.19.19-.38.39-.77.58-1.17.24-.5.47-.98.69-1.46,0,0,.74-1.69.88-2.02.14-.33.82-2.03,1.08-2.72.26-.69.65-1.84,1.13-3.34.48-1.5.86-3.44,1.01-4.2s.31-1.91.51-3.52c.2-1.61.25-3.5.3-4.67.05-1.17.05-1.87.06-3.71,0-1.26-.06-3.52-.2-6.42-.1-1.92-.22-3.52-.33-4.76-.05-.61-.14-1.63-.28-2.88-.1-.94-.17-1.54-.28-2.32-.16-1.09-.33-1.97-.46-2.57-.16-1.04-.38-2.34-.69-3.81-.1-.48-.42-1.98-.96-4.05-.89-3.38-1.8-6.04-2.38-7.65-.49-1.34-1.16-3.2-2.21-5.46-.53-1.14-1.02-2.11-1.73-3.52-.93-1.82-1.41-2.69-1.54-2.92-.61-1.09-1.15-1.97-1.55-2.6l-2.07-3.11c-.57-.77-1.15-1.54-1.72-2.31-.58-.77-1.21-1.55-1.88-2.32-.2-.24-.41-.46-.61-.69-.55-.61-1.02-1.1-1.39-1.48-1.03-1.06-1.81-1.8-2.56-2.51-.15-.14-.34-.32-.59-.54-.36-.32-.65-.56-.95-.81-.57-.47-.98-.81-1.59-1.28-.19-.15-1.05-.82-2.24-1.66-.59-.42-1.14-.79-1.62-1.12.71.38,1.1.53,1.33.59.04.01.28.08.6.17.08.03.19.06.32.1.16.05.37.12.63.22.84.3,1.69.59,2.53.89.48.17.97.36,1.47.57.48.2.95.41,1.39.63l2.98,1.49,2.78,1.57,2.63,1.7,1.93,1.4,1.86,1.45,2.24,1.85,2.1,1.89s1.48,1.44,1.59,1.56,2.17,2.34,2.17,2.34l1.74,2.03,2.08,2.62s1.71,2.33,2.29,3.15c.58.83,2.83,4.37,2.83,4.37,0,0,.83,1.39,1.67,2.84.63,1.09.95,1.65,1.31,2.34.18.34.38.74,1,2.02.38.79.88,1.85,1.48,3.12l.42.92.57,1.3.74,1.85.55,1.46.82,2.14.66,1.84s.44,1.3.45,1.34c.01.04.42,1.27.59,1.81.18.54.94,2.97,1.01,3.18.07.21.47,1.85.47,1.85.2.89.38,1.59.5,2.09.13.5.2.75.32,1.25.16.68.27,1.21.34,1.59.3,1.53.55,3,.6,3.3.16.89.52,2.88.73,4.14.21,1.26.48,3.16.59,4.15.12.99.3,3.32.39,4.55.09,1.22.16,3.59.18,4.27.02.68.03,1.92.02,2.93,0,1.01-.08,2.53-.13,3.53-.06,1.01-.16,2.08-.36,4.22-.02.21-.09.9-.19,1.81-.08.71-.14,1.13-.18,1.44-.05.37-.09.64-.14.91-.11.73-.17,1.09-.21,1.26-.12.45-.26.76-.49,1.28-.14.32-.27.57-.37.75,0-.45-.02-1.02-.05-1.68-.05-1-.11-1.75-.17-2.33-.08-.92-.13-1.37-.21-1.81-.14-.78-.32-1.33-.5-1.88-.25-.77-.48-1.31-.66-1.73-.29-.67-.51-1.16-.86-1.78-.28-.5-.81-1.15-1.1-1.49-.51-.59-.99-.9-1.24-1.07-.11-.07-.57-.36-1.2-.58-.41-.14-.72-.19-.91-.22-.33-.05-.67-.11-1.12-.06-.35.03-.63.11-.85.17-.35.1-.6.21-.67.24-.23.1-.4.19-.57.29-.19.11-.44.26-.73.45l-1.53.99-1.55,1.19s-1.18.97-2.18,1.81c-1,.84-3.69,2.76-3.69,2.76-1.71,1.12-3.7,2.24-5.95,3.19-2.3.97-4.43,1.58-6.3,1.97.43-.41.8-.8,1.1-1.15ZM113.78,372.16c-.12-.46-.13-.51-.19-.74-.1-.4-.13-.58-.3-1.39-.23-1.11-.22-.99-.28-1.31-.08-.42-.07-.4-.24-1.39-.15-.87-.17-.97-.24-1.39-.07-.44-.1-.77-.14-1.13-.15-1.35-.22-2.02-.29-2.77-.08-.87-.23-2.52-.31-4.65-.09-2.48-.06-4.53-.01-5.86.02-.56.11-2.93.43-5.99.22-2.07.46-3.58.53-4.01.18-1.13.34-1.96.5-2.8.23-1.21.47-2.47.87-4.1.35-1.42.65-2.5.79-2.97.26-.9.47-1.55.68-2.18.56-1.73,1.04-3.05,1.24-3.59.41-1.11.83-2.26,1.47-3.71.45-1.03.8-1.75,1.28-2.72.7-1.41,1.52-3.08,2.71-5.11.59-1.01,1.39-2.31,2.38-3.75.54-.79,1.11-1.58,1.7-2.38.52-.71,1.03-1.38,1.54-2.04.65-.75,1.3-1.51,1.95-2.26,1.43-1.59,1.7-1.87,1.7-1.87.75-.79,1.3-1.31,2.12-2.07.62-.57,1.26-1.17,2.14-1.89.63-.52,1.18-.94,1.6-1.25.46-.35.93-.7,1.41-1.05.34-.25.69-.49,1.02-.73.28-.2.78-.54,1.21-.82.14-.09.2-.12.49-.31.17-.11.28-.18.44-.28.12-.07.21-.12.28-.16-.33.37-.66.75-.99,1.14-.2.23-.39.46-.58.69-.25.32-.5.64-.76.98-.32.42-.64.84-.94,1.26-.33.48-.67.97-1,1.49-.44.67-.86,1.33-1.25,1.98-.83,1.56-1.66,3.12-2.49,4.69-.37.8-.74,1.64-1.11,2.51-.34.8-.67,1.6-.97,2.37l-1.45,4.14c-.38,1.33-.77,2.65-1.15,3.98-.17.66-.33,1.33-.5,2.03-.2.85-.38,1.67-.54,2.48-.4,2.29-.46,2.63-.46,2.63s-.29,1.73-.51,3.58c-.18,1.5-.39,3.63-.48,6.32-.02.76-.04,1.56-.04,2.38,0,1,.02,1.96.05,2.87,0,.28-.01.71-.04,1.24-.03.59-.04.67-.06,1.08-.02.53-.01.97,0,1.82,0,.37.02.88.05,1.55,0,0,.06,1.36.18,2.67.37,4.1,1.42,8.51,1.48,8.76.27,1.11.52,2.01.65,2.51.53,1.91,1,3.35,1.19,3.91.2.59.85,2.47,1.82,4.85.36.89,1.46,3.32,2.15,4.74.96,1.98,1.81,3.38,2.33,4.25.35.59.66,1.12,1.12,1.82.85,1.32,1.55,2.23,2.18,3.04.59.76,1.12,1.46,1.91,2.31.52.57.87.9.87.9l-1.26-.04s-1.59-.35-3.3-.86c-.76-.23-1.15-.34-1.64-.53-.38-.15-1.27-.51-2.48-1.23-.42-.25-1.33-.8-3.09-2.18-1.66-1.3-2.47-1.98-3.53-2.97-1.84-1.72-3.2-3.61-3.72-4.35-.79-1.11-1.07-1.66-1.94-2.72-.39-.48-.86-1.01-1.52-1.49-.47-.34-.87-.54-1.09-.64-.37-.18-.68-.33-1.11-.4-.23-.04-.54-.09-.94-.02-.36.07-.63.22-.81.31-.3.16-.53.35-.65.45-.23.2-.55.52-.88,1.01-.18.28-.4.68-.6,1.2-.16.43-.27.84-.33,1.17-.05-.22-.14-.56-.24-.97ZM132.77,355.56s.65-.04,1.52.12c.87.16,2.02.41,2.7.66.68.25,1.86.75,2.07.85.22.11,1.59.85,2.06,1.15.47.31,1.41.96,1.87,1.33l1.08.91s1.18,1.11,1.67,1.63c.49.52,2.17,2.42,2.17,2.42l1.5,1.74,1.5,1.73,1.82,2.04,2.17,2.25s1.05,1.15,2.58,2.31c1.53,1.16,2.84,2.1,4,2.65,1.16.55,3.86,1.5,3.86,1.5l1.57.34s1.02.14,1.46.16c.44.02,1.89,0,2.25-.04,0,0,1.46-.23,1.72-.29,0,0,.84-.23,1.06-.31.22-.08,1.76-.75,2.13-.97.37-.23,1.18-.76,1.64-1.21.46-.45.72-.74.72-.74,0,0-.66-.59-1.31-1.33-.65-.74-2.2-2.68-2.85-3.76-.64-1.09-1.16-2.05-1.16-2.05,0,0-.66-1.29-1-2.15-.34-.86-.88-2.4-1-2.78-.11-.38-.55-2.02-.66-2.63-.12-.61-.33-2.04-.33-2.04,0,0-.17-1.72-.19-2.22-.02-.5-.06-1.72.03-2.96.06-.83.15-2.57.43-4.48.06-.39.16-1.08.26-2.07.06-.61.09-1.12.11-1.46.05-.66.1-1.31.14-1.97-.11.07-.25.16-.41.25-.25.13-.45.21-.51.24-.4.15-.72.2-1.23.27-.1.01-.23.03-.41.05-.54.05-.95.04-1.21.03-.16,0-.41-.01-.73-.05-.36-.04-.79-.11-.79-.11-.27-.05-.63-.12-1.04-.21-.26-.05-.45-.09-.67-.15-.43-.11-.67-.19-1.06-.31-.95-.3-1.02-.26-1.73-.5-.39-.13-.73-.26-1.04-.39,0,0-1.57-.67-2.01-.88-.43-.21-1.7-.87-2.05-1.07-.35-.2-1.87-1.14-2.12-1.31-.24-.17-1.21-.86-1.55-1.13-.34-.27-1.37-1.1-1.54-1.24-.17-.14-1.17-1.06-1.47-1.34-.3-.28-1.4-1.44-1.6-1.65-.2-.21-1.35-1.5-1.97-2.35-.62-.85-1.78-2.59-1.98-2.91-.2-.32-1.3-2.28-1.73-3.24-.43-.96-.92-2.03-1.28-3.13-.36-1.09-.75-2.4-.91-3.01-.15-.61-.48-2.01-.48-2.01,0,0-.32-1.59-.43-2.62-.11-1.03-.21-2.19-.22-2.58-.01-.39-.05-1.82-.05-1.82,0-.46.02-.84.02-1.13,0,0,0-.38.02-.59,0-.01,0-.08.01-.18,0-.04,0-.08,0-.13,0-.08,0-.08,0-.13,0-.06,0-.06,0-.11,0-.04,0-.05,0-.1,0-.04,0-.06,0-.08,0-.02,0-.03,0-.05,0-.02,0-.03,0-.03,0,0,0,0,0,.02,0,.01,0,.02-.01.02-.01.02-.02.05-.04.08-.02.05,0,0-.05.1-.09.19-.15.31-.15.31-.06.12-.08.18-.12.26,0,0-.06.13-.12.26-.27.61-.56,1.28-.56,1.28-.43,1.01-.9,2.21-.98,2.39,0,0-.8,2.11-.96,2.57-.16.46-.6,1.84-.78,2.43-.33,1.14-.58,2-.72,2.51-.18.65-.28,1.06-.35,1.32-.13.51-.22.9-.28,1.17-.39,1.68-.58,2.51-.75,3.37-.26,1.32-.42,2.38-.56,3.31-.09.57-.14.95-.18,1.23-.04.33-.14,1.05-.24,2.08-.17,1.77-.26,3.31-.29,4.21-.03,1.16-.07,2.64-.08,3.06,0,.42,0,1.45.01,1.76.01.3.11,2.26.14,2.68.03.42.08,1.27.15,2.01.07.74.17,1.74.24,2.32.07.58.23,1.74.23,1.74.17,1.03.31,1.85.42,2.44.08.42.14.78.24,1.24.11.48.21.88.28,1.16ZM50.28,397.27c.48-1.13.93-1.99,1.27-2.59.31-.55.57-.97.92-1.52.19-.3.35-.54.55-.83.25-.34.45-.59.52-.66.15-.18.52-.59,1.05-1.05.58-.5,1.19-.91,1.19-.91.3-.25.68-.51,1.12-.73.42-.21.81-.34,1.14-.43.7-.18,1.31-.26,1.79-.29,1.11-.08,1.93.07,2.12.09.19.03.37.07.6.13.81.21,1.98.62,1.98.62,0,0,1.58.71,2.14,1.05.56.34,2.39,1.59,2.39,1.59l1.82,1.35,2.04,1.45s1.15.75,1.62,1c.51.27,1.13.61,1.93.88.5.17.91.25,1.05.28.27.06.5.09.69.11-.24-.94-.43-1.78-.57-2.48-.08-.39-.29-1.48-.5-2.94-.08-.59-.14-1.09-.19-1.46-.04-.37-.07-.74-.11-1.11-.09-1.04-.13-1.52-.15-1.77,0-.13-.02-.36-.05-.68,0-.08-.02-.18-.03-.35-.02-.21-.03-.31-.03-.39,0-.05,0-.2-.02-.51,0-.13-.01-.32-.01-.32l-.06-1.72-.05-1.65v-1.01s-.01-.94,0-1.5c.02-1.17.04-2.06.05-2.35.07-2.42.21-4.41.26-5.05,0,0,0-.04.21-2.6.02-.17.16-1.7.28-2.72.04-.4.09-.76.09-.76.04-.36.08-.65.11-.89.1-.76.16-1.29.25-1.92.1-.71.18-1.19.32-2.15.16-1,.24-1.51.36-2.2.16-.91.28-1.57.43-2.31.12-.6.36-1.82.54-2.65.18-.83.43-1.94.56-2.51.13-.57.26-1.13.37-1.58l.41-1.65c.03-.14.08-.35.15-.6.09-.32.16-.52.26-.83.09-.27.19-.57.38-1.18.17-.53.28-.9.35-1.11.18-.57.5-1.58,1.14-3.51,0,0,.42-1.29.62-1.87s.52-1.5.67-1.9c.15-.4.6-1.61.85-2.23.25-.62.22-.55.57-1.4.36-.85.71-1.69.71-1.69l.37-.86.48-1.1s.36-.79.63-1.37c.27-.57.53-1.11.79-1.65.26-.54.45-.92.61-1.21.8-1.48,1.42-2.66,1.93-3.58.34-.61.59-1.04.94-1.62.4-.67.42-.66.83-1.34.61-1.01.69-1.22,1.15-1.93.21-.34.21-.31.77-1.13.97-1.41,1.11-1.67,1.66-2.45.3-.42.65-.89,1.2-1.59,1.43-1.82,2.6-3.35,3.62-4.49,1.02-1.14,1.81-2.12,2.9-3.23,1.1-1.11,2-2.02,2.87-2.84s2.59-2.39,3.55-3.15c.96-.76,1.52-1.26,2.78-2.2,1.27-.93,1.8-1.31,1.8-1.31,0,0,.66-.46.97-.66.31-.21.7-.46.99-.65s.8-.5,1.18-.75c.39-.24.88-.56,1.47-.91.59-.35,1.27-.76,1.8-1.07.52-.31.94-.55,1.4-.79.45-.24,1.45-.73,1.45-.73l1.67-.79-2.66.55s-1.46.31-2,.43-2.41.56-2.84.68c-.43.12-1.76.5-2.71.78-.95.29-2.87.9-2.87.9l-1.7.61-1.56.59-2.46.98s-1.98.91-2.42,1.12c-.44.21-2.27,1.07-2.56,1.2-.29.14-1.71.85-2.02,1.02-.31.17-1.34.75-1.34.75l-.99.56s-1.24.7-1.62.94c-.38.24-2.32,1.51-2.32,1.51l-2.1,1.36s-1.19.83-1.52,1.08c-.33.25-1.19.9-1.82,1.38-1.62,1.23-1.45,1.08-2.05,1.55-1.01.79-1.75,1.43-2.45,2.03-1.09.94-1.91,1.7-2.24,2-2.11,1.96-3.75,3.68-3.75,3.69,0,0,.22-.22,1.29-1.29-1.35,1.36-2.55,2.57-3.56,3.61-.6.62-1.12,1.15-1.78,1.94-.86,1.02-1.41,1.82-1.85,2.43-1.55,2.17-1.73,1.96-3.5,4.49-2.05,2.94-3.09,4.4-3.44,4.94-.89,1.36-1.52,2.42-2.56,4.16-.65,1.08-1.12,1.87-1.74,2.97-1.04,1.84-1.82,3.37-2.28,4.28-.88,1.75-1.65,3.26-2.56,5.49-.68,1.67-1.43,3.89-2.22,6.15-.07.19-.19.55-.38,1.07-.21.57-.23.62-.31.85-.19.56-.26.89-.42,1.53-.19.75-.29,1.03-.46,1.65-.69,2.48-1.26,5.5-1.34,5.88-.21,1.1-.34,1.93-.43,2.5-.47,2.95-.73,5.38-.86,6.81-.22,2.32-.38,4.01-.39,6.16-.01,1.87,0,2.7-.03,5.91,0,.23,0,.69,0,1.31.02.71.05,1.22.14,2.48.07.91.12,1.7.17,2.33.04.93.1,1.71.15,2.28.06.61.11,1.09.2,1.86.09.78.18,1.43.24,1.91ZM118.21,391.25c-.16-.17-.55-.59-1.02-1.18-.34-.42-.57-.75-.86-1.16-.74-1.04-1.28-1.91-1.54-2.34-.3-.49-.54-.91-.72-1.24-.22-.39-.44-.79-.66-1.21-.27-.51-.53-1.02-.78-1.52,0,0-.83-1.75-.99-2.09-.16-.34-.93-2.1-1.22-2.82-.3-.72-.74-1.91-1.28-3.47-.54-1.56-.97-3.56-1.14-4.36s-.35-1.98-.58-3.65c-.23-1.67-.29-3.63-.34-4.85-.05-1.21-.05-1.94-.06-3.84,0-1.31.07-3.65.23-6.66.11-1.99.25-3.66.37-4.94.06-.64.16-1.69.32-2.99.12-.98.19-1.6.32-2.41.18-1.13.38-2.04.52-2.66.18-1.08.43-2.42.78-3.96.11-.5.47-2.05,1.08-4.2,1-3.5,2.03-6.26,2.69-7.94.55-1.39,1.31-3.32,2.49-5.67.59-1.18,1.15-2.19,1.96-3.65,1.04-1.89,1.59-2.79,1.74-3.03.69-1.13,1.3-2.04,1.75-2.69l2.34-3.22c.65-.8,1.29-1.6,1.94-2.4.66-.8,1.36-1.61,2.12-2.41.23-.24.46-.48.69-.71.62-.63,1.15-1.14,1.56-1.53,1.16-1.1,2.04-1.87,2.89-2.6.17-.15.39-.33.66-.56.41-.33.73-.58,1.08-.84.64-.48,1.11-.84,1.79-1.32.22-.16,1.19-.85,2.52-1.72.67-.44,1.28-.82,1.83-1.16-.8.39-1.24.55-1.5.62-.05.01-.31.08-.67.18-.09.03-.21.06-.36.11-.18.05-.42.13-.71.23-.95.31-1.9.62-2.86.92-.54.18-1.09.37-1.66.59-.54.21-1.07.43-1.57.65l-3.37,1.55-3.14,1.63-2.97,1.76-2.18,1.45-2.1,1.5-2.52,1.92-2.37,1.96s-1.67,1.5-1.8,1.61-2.45,2.43-2.45,2.43l-1.96,2.1-2.35,2.72s-1.93,2.41-2.58,3.27c-.65.86-3.2,4.53-3.2,4.53,0,0-.94,1.44-1.88,2.94-.71,1.13-1.07,1.71-1.48,2.43-.2.36-.43.77-1.13,2.1-.43.82-1,1.92-1.67,3.24l-.47.96-.64,1.35-.83,1.92-.63,1.51-.93,2.22-.74,1.91s-.49,1.35-.51,1.39c-.01.04-.47,1.32-.67,1.88-.2.56-1.06,3.08-1.13,3.3s-.53,1.92-.53,1.92c-.23.92-.43,1.65-.57,2.16-.14.51-.22.78-.36,1.3-.18.7-.3,1.26-.39,1.65-.34,1.58-.62,3.12-.68,3.42-.18.93-.58,2.99-.83,4.3-.24,1.31-.54,3.28-.67,4.3-.13,1.03-.34,3.45-.44,4.72-.1,1.27-.18,3.72-.21,4.43-.03.71-.03,1.99-.03,3.04,0,1.05.09,2.62.15,3.66.06,1.05.18,2.16.41,4.38.02.22.1.94.21,1.87.09.73.15,1.18.2,1.49.06.38.11.66.15.94.13.75.19,1.13.24,1.3.13.46.29.79.56,1.32.16.33.31.59.42.77,0-.47.02-1.06.05-1.75.05-1.04.13-1.82.19-2.41.1-.95.14-1.43.23-1.88.16-.81.36-1.38.56-1.95.28-.8.54-1.36.74-1.8.32-.7.58-1.2.97-1.85.32-.52.91-1.2,1.24-1.55.58-.61,1.11-.93,1.4-1.11.12-.07.64-.38,1.35-.6.46-.14.81-.2,1.02-.23.37-.05.75-.11,1.26-.06.4.03.71.12.96.18.4.1.68.22.75.25.26.1.45.2.64.3.22.11.5.27.83.47l1.73,1.02,1.75,1.23s1.33,1.01,2.46,1.88,4.16,2.86,4.16,2.86c1.93,1.16,4.18,2.32,6.71,3.31,2.6,1.01,5,1.64,7.11,2.04-.49-.42-.91-.83-1.24-1.19Z"/>
    </g>
  </g>
</svg>