<?xml version="1.0" encoding="UTF-8"?>
<svg id="phil" xmlns="http://www.w3.org/2000/svg" width="420" height="420" viewBox="0 0 420 420">
  <defs>
    <style>
      .cls-1 {
        fill: #fff800;
      }
    </style>
  </defs>
  <g id="wings">
    <g id="rare">
      <path id="wingsTop" class="cls-1" d="M372.87,413.26c.7-1.05.91-2.54.56-3.57-.34-.98-1.09-1.29-1.22-1.34-.42-.16-.76-.06-.94-.01-.22.07-.83.26-1.32,1.09-.37.63-.48,1.33-.59,2.07-.07.47-.08.77-.12,1.61-.03.58-.07,1.52-.13,2.77-.02.23-.05.55-.09.94-.06.61-.12,1.14-.15,1.32-.13.99-.4,2.08-.61,2.8.36-.41.75-.89,1.15-1.45.29-.41.5-.76.74-1.14.09-.14.41-.66.82-1.38.25-.44.46-.83.62-1.14.29-.54.59-1.12.89-1.73.14-.28.27-.56.4-.84ZM339.58,401.13c.13.03.25.07.34.1.09.04.18.07.3.15.07.05.18.12.31.25.09.1.16.21.21.29.06.1.11.19.17.29l.1.26.09.34s.04.39.04.51c0,.12-.03.4-.07.53-.04.13-.09.31-.09.31l-.15.35c-.06.12-.12.24-.17.35-.09.15-.19.29-.28.44-.08.11-.17.22-.27.34-.12.15-.24.28-.36.41-.05.05-.11.12-.19.21-.05.05-.18.2-.31.33-.12.13-.29.3-.5.5-.18.16-.36.33-.55.49-.24.22-.48.43-.72.65l-.85.74c-.15.13-.3.25-.46.38-.17.13-.33.25-.49.36-.14.11-.3.22-.45.33-.19.13-.37.24-.54.35-.16.1-.32.2-.48.29-.15.08-.29.16-.43.24.11-.17.27-.43.46-.74.29-.49.48-.81.7-1.28.1-.22.2-.45.4-.91.12-.27.21-.5.28-.66.18-.48.35-.96.53-1.45.11-.37.24-.74.37-1.13.09-.26.18-.51.27-.75.07-.2.15-.42.25-.65.05-.12.11-.24.16-.34.15-.35.31-.62.44-.8.18-.26.33-.42.38-.47.25-.26.46-.39.51-.42.17-.1.3-.15.34-.16.06-.02.2-.06.37-.06.1,0,.23,0,.38.04ZM305.23,392.38c.04.13.1.37.1.64,0,.15-.02.27-.02.27-.02.15-.07.32-.07.32h0c-.02.05-.03.11-.05.16-.03.08-.05.14-.08.2-.04.06-.07.12-.11.18-.03.05-.07.09-.12.14-.05.05-.1.1-.14.13-.04.03-.08.07-.13.1-.06.05-.12.09-.17.12-.11.06-.22.12-.33.18-.09.05-.19.09-.29.13-.16.06-.32.1-.45.12-.19.03-.38.06-.57.09l-.67.1-.83.1-.57.05-.66.03c-.13,0-.27,0-.41,0-.14,0-.28-.01-.41-.02-.1,0-.19-.01-.29-.02-.1,0-.21-.02-.3-.04-.06,0-.12-.02-.18-.03-.12-.02-.25-.04-.37-.06.07-.03.17-.08.29-.14.15-.08.33-.16.41-.21.16-.09.53-.33.53-.33l.33-.24.5-.39.46-.38.31-.28.41-.39.39-.38.35-.33.35-.31s.28-.23.38-.3c.1-.07.21-.14.32-.2.11-.05.27-.13.36-.15.09-.02.27-.05.34-.05.07,0,.19.01.19.01l.18.04.17.07.21.13.15.12.14.14.11.14.11.19.13.31ZM277.71,388.85c.14-.13.28-.26.41-.39.12-.1.23-.2.35-.3l.36-.27c.06-.04.12-.08.18-.11.06-.04.12-.07.18-.1.07-.03.15-.07.24-.09.1-.03.2-.05.29-.07.11-.01.25,0,.41.04.23.06.39.18.44.21.09.07.3.23.49.56.12.21.17.38.18.43.04.16.06.31.06.37.04.45-.08.8-.12.9-.07.19-.15.32-.18.38-.08.13-.17.22-.23.28-.06.05-.12.1-.19.16-.08.06-.17.12-.24.16-.04.02-.09.05-.14.08-.04.02-.11.06-.21.1-.16.06-.29.1-.35.12,0,0-.73.16-.73.16h0l-.95.14c-.13.02-.26.04-.4.05-.16.02-.33.03-.48.05-.12.01-.24.02-.37.03-.14,0-.28.02-.42.02-.08,0-.17,0-.26,0-.1,0-.2,0-.3,0-.1,0-.21,0-.32,0-.12,0-.23-.01-.34-.03-.14-.01-.28-.03-.42-.04-.19-.02-.38-.05-.56-.09.23-.1.41-.19.56-.27.19-.11.36-.21.44-.26.07-.05.14-.09.18-.12.11-.08.21-.15.32-.23l.58-.45.46-.39.58-.54.49-.47ZM264.41,292c.23.25.34.55.34.55.07.15.17.38.24.69.05.24.07.46.07.62,0,.17,0,.42-.04.72-.08.56-.27.93-.39,1.16-.19.37-.38.59-.5.73-.19.22-.35.34-.52.48-.23.19-.41.3-.55.38-.19.12-.45.26-.75.39-.31.12-.63.25-.94.37l-1.56.5-1.97.58s-1.31.43-1.89.64c-.58.21-1.38.55-2.39,1.01-1.01.46-2.31,1.35-2.31,1.35.22-.38.45-.76.7-1.14.16-.25.32-.49.47-.72.22-.33.46-.67.71-1,.22-.3.43-.58.64-.84.16-.2.31-.39.48-.59.27-.33.53-.64.8-.94.3-.34.61-.69.93-1.04.24-.26.47-.51.71-.76.21-.23.42-.45.64-.68.23-.24.46-.47.68-.7.19-.19.38-.39.58-.58.27-.26.47-.44.55-.51.31-.27.48-.42.72-.6.13-.09.07-.04.5-.33.33-.22.39-.26.53-.33.18-.09.35-.15.5-.19.18-.07.42-.15.71-.18.41-.04.73.03.87.07,0,0,.93.42.93.42,0,0,.29.22.52.47ZM329.36,301.31c.21.02.42-.07.42-.07,0,0,.23-.1.31-.16s.36-.36.41-.44.15-.27.29-.63.15-.53.15-.53l.16-.9.09-.64.11-.95.1-.89.21-1.54s.22-1.13.35-1.7c.13-.57.51-1.63.51-1.63l-.6.54-.45.45-.31.34-.31.37-.41.52-.45.62-.64.94-.58.85-.3.55s-.31.54-.4.73c-.09.19-.19.48-.29.86s-.06.22-.12.56c-.06.34,0,.65.03.82s.1.41.23.75c.13.34.16.3.42.65.26.35.52.38.52.38,0,0,.33.11.53.13ZM322.98,297.16s-.25-.03-.52-.38c-.26-.35-.29-.31-.42-.65s-.2-.58-.23-.75-.09-.48-.03-.82c.06-.34.02-.18.12-.56.1-.39.2-.68.29-.86s.4-.73.4-.73l.3-.55.58-.85.64-.94.45-.62.41-.52.31-.37.31-.34.45-.45.6-.54s-.39,1.06-.51,1.63c-.13.57-.35,1.7-.35,1.7l-.21,1.54-.1.89-.11.95-.09.64-.16.9s0,.18-.15.53-.25.55-.29.63-.32.38-.41.44-.31.16-.31.16c0,0-.22.09-.42.07s-.53-.13-.53-.13ZM286.23,287.9s-.25-.03-.52-.38-.29-.31-.42-.65c-.13-.34-.2-.58-.23-.75s-.09-.48-.03-.82.02-.18.12-.56c.1-.39.2-.68.29-.86.09-.19.4-.73.4-.73l.3-.55.58-.85.64-.94.45-.62.41-.52.31-.37.31-.34.45-.45.6-.54s-.39,1.06-.51,1.63c-.13.57-.35,1.7-.35,1.7l-.21,1.54-.1.89-.11.95-.09.64-.16.9s0,.18-.15.53c-.15.35-.25.55-.29.63s-.32.38-.41.44-.31.16-.31.16c0,0-.22.09-.42.07s-.53-.13-.53-.13ZM292.6,287.78s-.25-.03-.52-.38-.29-.31-.42-.65c-.13-.34-.2-.58-.23-.75-.03-.17-.09-.48-.03-.82s.02-.18.12-.56c.1-.39.2-.68.29-.86s.4-.73.4-.73l.3-.55.58-.85.64-.94.45-.62.41-.52.31-.37.31-.34.45-.45.6-.54s-.39,1.06-.51,1.63c-.13.57-.35,1.7-.35,1.7l-.21,1.54-.1.89-.11.95-.09.64-.16.9s0,.18-.15.53c-.15.35-.25.55-.29.63s-.32.38-.41.44c-.09.06-.31.16-.31.16,0,0-.22.09-.42.07s-.53-.13-.53-.13ZM299.01,288.91s-.25-.03-.52-.38c-.26-.35-.29-.31-.42-.65-.13-.34-.2-.58-.23-.75s-.09-.48-.03-.82c.06-.34.02-.18.12-.56s.2-.68.29-.86c.09-.19.4-.73.4-.73l.3-.55.58-.85.64-.94.45-.62.41-.52.31-.37.31-.34.45-.45.6-.54s-.39,1.06-.51,1.63c-.13.57-.35,1.7-.35,1.7l-.21,1.54-.1.89-.11.95-.09.64-.16.9s0,.18-.15.53c-.15.35-.25.55-.29.63s-.32.38-.41.44-.31.16-.31.16c0,0-.22.09-.42.07-.21-.02-.53-.13-.53-.13ZM304.95,290.51s-.25-.03-.52-.38c-.26-.35-.29-.31-.42-.65-.13-.34-.2-.58-.23-.75s-.09-.48-.03-.82c.06-.34.02-.18.12-.56.1-.39.2-.68.29-.86s.4-.73.4-.73l.3-.55.58-.85.64-.94.45-.62.41-.52.31-.37.31-.34.45-.45.6-.54s-.39,1.06-.51,1.63c-.13.57-.35,1.7-.35,1.7l-.21,1.54-.1.89-.11.95-.09.64-.16.9s0,.18-.15.53c-.15.35-.25.55-.29.63s-.32.38-.41.44c-.09.06-.31.16-.31.16,0,0-.22.09-.42.07s-.53-.13-.53-.13ZM310.86,291.86s-.25-.03-.52-.38c-.26-.35-.29-.31-.42-.65-.13-.34-.2-.58-.23-.75s-.09-.48-.03-.82.02-.18.12-.56c.1-.39.2-.68.29-.86s.4-.73.4-.73l.3-.55.58-.85.64-.94.45-.62.41-.52.31-.37.31-.34.45-.45.6-.54s-.39,1.06-.51,1.63c-.13.57-.35,1.7-.35,1.7l-.21,1.54-.1.89-.11.95-.09.64-.16.9s0,.18-.15.53-.25.55-.29.63-.32.38-.41.44-.31.16-.31.16c0,0-.22.09-.42.07-.21-.02-.53-.13-.53-.13ZM316.89,294.25s-.25-.03-.52-.38c-.26-.35-.29-.31-.42-.65-.13-.34-.2-.58-.23-.75s-.09-.48-.03-.82c.06-.34.02-.18.12-.56.1-.39.2-.68.29-.86s.4-.73.4-.73l.3-.55.58-.85.64-.94.45-.62.41-.52.31-.37.31-.34.45-.45.6-.54s-.39,1.06-.51,1.63c-.13.57-.35,1.7-.35,1.7l-.21,1.54-.1.89-.11.95-.09.64-.16.9s0,.18-.15.53c-.15.35-.25.55-.29.63s-.32.38-.41.44-.31.16-.31.16c0,0-.22.09-.42.07s-.53-.13-.53-.13ZM348.4,318.91s-.25-.07-.49-.46c-.24-.39-.27-.35-.38-.71-.11-.36-.17-.61-.18-.78s-.05-.49.02-.82c.08-.33.03-.17.16-.54.12-.37.24-.64.34-.81.1-.17.44-.66.44-.66l.33-.5.63-.76.7-.83.49-.55.44-.45.34-.32.33-.29.47-.37.63-.44s-.45.99-.62,1.54c-.16.55-.45,1.64-.45,1.64l-.31,1.49-.16.87-.17.92-.13.63-.22.87s-.01.17-.18.5-.28.51-.33.58-.34.33-.43.38-.32.11-.32.11c0,0-.22.06-.43,0s-.52-.21-.52-.21ZM343.14,313.19s-.24-.1-.47-.51c-.22-.41-.25-.38-.35-.75-.09-.37-.14-.63-.15-.8s-.03-.5.06-.82c.09-.32.04-.17.18-.53s.27-.62.37-.78.47-.61.47-.61l.35-.47.66-.69.73-.76.51-.5.46-.4.35-.29.34-.26.49-.33.65-.38s-.49.95-.68,1.48c-.19.53-.52,1.59-.52,1.59l-.37,1.46-.2.85-.2.91-.15.61-.25.84s-.02.17-.2.48c-.18.31-.3.48-.36.54s-.35.29-.45.33-.33.08-.33.08c0,0-.22.03-.42-.04-.2-.07-.51-.26-.51-.26ZM338.52,308.43s-.25-.05-.5-.43c-.25-.37-.28-.33-.4-.68-.12-.35-.18-.6-.2-.77s-.07-.49,0-.82c.07-.33.03-.17.14-.55s.22-.66.32-.84.42-.69.42-.69l.32-.53.61-.8.67-.88.48-.58.42-.48.33-.34.32-.32.46-.41.62-.49s-.42,1.03-.57,1.59-.4,1.67-.4,1.67l-.27,1.51-.13.88-.14.93-.11.64-.19.88s0,.17-.17.52c-.16.34-.26.53-.32.6s-.33.35-.42.41-.32.14-.32.14c0,0-.22.07-.43.03-.2-.04-.53-.17-.53-.17ZM333.74,304.41s-.25-.03-.52-.38-.29-.31-.42-.65c-.13-.34-.2-.58-.23-.75-.03-.17-.09-.48-.03-.82s.02-.18.12-.56c.1-.39.2-.68.29-.86s.4-.73.4-.73l.3-.55.58-.85.64-.94.45-.62.41-.52.31-.37.31-.34.45-.45.6-.54s-.39,1.06-.51,1.63c-.13.57-.35,1.7-.35,1.7l-.21,1.54-.1.89-.11.95-.09.64-.16.9s0,.18-.15.53-.25.55-.29.63-.32.38-.41.44-.31.16-.31.16c0,0-.22.09-.42.07s-.53-.13-.53-.13ZM268.24,291.5s-.25-.03-.52-.38c-.26-.35-.29-.31-.42-.65s-.2-.58-.23-.75-.09-.48-.03-.82.02-.18.12-.56c.1-.39.2-.68.29-.86s.4-.73.4-.73l.3-.55.58-.85.64-.94.45-.62.41-.52.31-.37.31-.34.45-.45.6-.54s-.39,1.06-.51,1.63c-.13.57-.35,1.7-.35,1.7l-.21,1.54-.1.89-.11.95-.09.64-.16.9s0,.18-.15.53-.25.55-.29.63-.32.38-.41.44-.31.16-.31.16c0,0-.22.09-.42.07-.21-.02-.53-.13-.53-.13ZM274.51,289.72s-.25-.03-.52-.38-.29-.31-.42-.65c-.13-.34-.2-.58-.23-.75s-.09-.48-.03-.82c.06-.34.02-.18.12-.56s.2-.68.29-.86c.09-.19.4-.73.4-.73l.3-.55.58-.85.64-.94.45-.62.41-.52.31-.37.31-.34.45-.45.6-.54s-.39,1.06-.51,1.63c-.13.57-.35,1.7-.35,1.7l-.21,1.54-.1.89-.11.95-.09.64-.16.9s0,.18-.15.53-.25.55-.29.63-.32.38-.41.44-.31.16-.31.16c0,0-.22.09-.42.07s-.53-.13-.53-.13ZM280.49,288.03s-.25-.03-.52-.38-.29-.31-.42-.65c-.13-.34-.2-.58-.23-.75s-.09-.48-.03-.82c.06-.34.02-.18.12-.56.1-.39.2-.68.29-.86.09-.19.4-.73.4-.73l.3-.55.58-.85.64-.94.45-.62.41-.52.31-.37.31-.34.45-.45.6-.54s-.39,1.06-.51,1.63c-.13.57-.35,1.7-.35,1.7l-.21,1.54-.1.89-.11.95-.09.64-.16.9s0,.18-.15.53-.25.55-.29.63-.32.38-.41.44c-.09.06-.31.16-.31.16,0,0-.22.09-.42.07s-.53-.13-.53-.13ZM367.65,353.95s-.24-.1-.47-.51c-.22-.41-.25-.38-.34-.75-.09-.37-.14-.63-.14-.8,0-.18-.03-.5.06-.82.09-.32.04-.17.18-.52.14-.36.27-.62.38-.78s.47-.61.47-.61l.35-.47.66-.69.73-.76.51-.49.46-.4.35-.28.34-.26.49-.32.65-.37s-.5.94-.68,1.47c-.19.53-.53,1.58-.53,1.58l-.38,1.46-.2.85-.21.9-.16.61-.25.84s-.02.17-.2.48-.3.47-.36.54-.35.29-.45.33-.33.08-.33.08c0,0-.22.03-.42-.05s-.51-.27-.51-.27ZM364.49,345.61s-.24-.1-.47-.51c-.22-.41-.25-.38-.35-.75-.09-.37-.14-.63-.15-.8,0-.18-.03-.5.06-.82s.04-.17.18-.53.27-.62.37-.78c.1-.16.47-.61.47-.61l.35-.47.66-.69.73-.76.51-.49.46-.4.35-.29.34-.26.49-.33.65-.38s-.49.95-.68,1.48c-.19.53-.52,1.59-.52,1.59l-.37,1.46-.2.85-.21.9-.15.61-.25.84s-.02.17-.2.48c-.18.31-.3.48-.36.54s-.35.29-.45.33c-.09.04-.33.08-.33.08,0,0-.22.03-.42-.04-.2-.08-.51-.27-.51-.27ZM360.6,337.88s-.24-.11-.45-.54-.24-.39-.33-.77-.12-.63-.13-.81-.02-.5.08-.81.04-.17.19-.51c.15-.35.28-.6.39-.76.11-.15.48-.59.48-.59l.36-.45.67-.65.75-.72.53-.46.47-.38.36-.26.35-.24.5-.3.66-.34s-.52.92-.71,1.44-.56,1.56-.56,1.56l-.41,1.44-.22.84-.23.89-.17.6-.27.83s-.02.17-.21.47-.31.46-.37.52-.36.27-.46.3-.33.06-.33.06c0,0-.22.02-.42-.07s-.5-.3-.5-.3ZM356.91,330.45s-.24-.11-.46-.53-.25-.39-.34-.76-.13-.63-.13-.81-.03-.5.07-.82.04-.17.19-.52.28-.61.38-.77c.11-.16.48-.6.48-.6l.36-.46.67-.67.74-.73.52-.48.46-.39.35-.27.35-.25.49-.31.65-.35s-.51.93-.7,1.45c-.19.52-.54,1.57-.54,1.57l-.4,1.45-.21.84-.22.9-.16.61-.27.83s-.02.17-.21.48c-.19.3-.31.47-.36.53s-.36.28-.45.31-.33.07-.33.07c0,0-.22.02-.42-.06-.2-.08-.51-.28-.51-.28ZM352.74,323.83s-.25-.09-.48-.49c-.23-.4-.26-.37-.36-.73-.1-.37-.15-.62-.16-.79s-.04-.5.04-.82c.09-.32.04-.17.17-.53.13-.36.26-.63.36-.79.1-.17.46-.63.46-.63l.34-.48.65-.72.72-.79.51-.52.45-.42.34-.3.34-.27.48-.35.64-.4s-.48.97-.65,1.5c-.18.54-.49,1.61-.49,1.61l-.35,1.47-.18.86-.19.91-.14.62-.24.85s-.01.17-.19.49c-.18.32-.29.49-.35.56s-.35.3-.44.35-.33.09-.33.09c0,0-.22.04-.43-.02-.2-.07-.52-.24-.52-.24ZM371.66,403.48s-.21-.22-.34-.72c-.13-.5-.16-.49-.17-.89s0-.66.03-.83c.03-.17.07-.49.23-.74.15-.26.07-.14.28-.41.2-.27.38-.45.51-.55s.57-.34.57-.34l.43-.27.77-.32.85-.35.59-.21.51-.15.39-.09.38-.07.53-.06.69-.03s-.66.65-.95,1.05-.82,1.24-.82,1.24l-.66,1.19-.36.71-.38.75-.27.5-.41.67s-.05.15-.29.36c-.24.2-.38.3-.45.33s-.39.09-.49.09-.33-.09-.33-.09c0,0-.22-.08-.39-.26-.17-.17-.43-.51-.43-.51ZM373.02,393.54s-.23-.14-.42-.6c-.19-.45-.22-.43-.28-.81-.06-.39-.09-.65-.08-.82s0-.5.12-.8c.12-.3.05-.16.22-.49s.32-.56.43-.7.51-.52.51-.52l.39-.4.71-.56.78-.61.55-.39.48-.31.37-.22.36-.19.51-.23.67-.25s-.56.84-.79,1.33c-.23.49-.64,1.47-.64,1.47l-.49,1.38-.26.81-.28.86-.2.58-.32.79s-.03.17-.24.44-.34.41-.4.47-.37.22-.47.24c-.1.02-.33.02-.33.02,0,0-.22-.01-.42-.13-.19-.11-.49-.36-.49-.36ZM372.89,383.24s-.24-.14-.43-.59c-.19-.45-.23-.42-.29-.8s-.1-.65-.09-.82,0-.5.11-.8c.11-.3.05-.16.21-.49s.31-.57.42-.71.51-.53.51-.53l.38-.41.7-.58.78-.63.54-.41.48-.33.37-.23.36-.2.51-.24.67-.27s-.55.86-.78,1.35c-.22.5-.63,1.49-.63,1.49l-.47,1.39-.25.81-.27.87-.2.58-.31.8s-.03.17-.23.45c-.2.28-.33.42-.39.48s-.37.23-.47.25-.33.02-.33.02c0,0-.23,0-.42-.11s-.49-.35-.49-.35ZM371.54,371.9s-.23-.15-.42-.61c-.18-.46-.22-.43-.28-.82s-.08-.65-.08-.83.01-.5.13-.8c.12-.3.05-.16.22-.48s.32-.55.44-.69.52-.51.52-.51l.39-.39.71-.55.79-.6.55-.38.49-.3.37-.21.36-.18.51-.22.67-.24s-.57.83-.8,1.32c-.23.49-.66,1.46-.66,1.46l-.5,1.37-.27.8-.28.85-.21.57-.32.78s-.03.17-.24.44-.34.41-.4.46-.38.21-.47.23-.33,0-.33,0c0,0-.22-.02-.42-.13s-.48-.37-.48-.37ZM369.86,362.16s-.24-.13-.43-.58c-.2-.44-.23-.42-.3-.8s-.1-.64-.1-.82,0-.5.11-.81c.11-.31.05-.16.21-.5s.31-.58.42-.72.5-.54.5-.54l.38-.41.7-.59.77-.65.54-.42.48-.33.37-.23.36-.21.51-.25.67-.28s-.55.87-.76,1.37c-.22.5-.61,1.5-.61,1.5l-.46,1.4-.25.82-.26.87-.19.59-.3.8s-.03.17-.23.45-.33.43-.39.49-.37.24-.47.26-.33.03-.33.03c0,0-.23,0-.42-.11-.2-.1-.49-.34-.49-.34ZM290.14,318.18s-.06.38-.32.74-.24.4-.47.56c-.24.15-.4.23-.51.24s-.32.06-.52-.08-.11-.06-.34-.27c-.23-.21-.4-.41-.5-.57-.1-.16-.4-.72-.4-.72l-.31-.54-.45-1.02-.5-1.12-.32-.79-.27-.7-.19-.54-.17-.53-.22-.76-.25-1s.61.75.96,1.03c.34.28,1.02.78,1.02.78l.94.56.55.29.58.3.39.23.54.38s.11.02.31.31.31.46.35.55c.04.09.19.55.22.69s.06.51.06.51c0,0,.02.35-.02.66s-.16.8-.16.8ZM287.23,324.87s-.05.39-.3.76c-.25.38-.23.42-.46.59s-.39.26-.5.28-.32.09-.53-.04-.11-.05-.35-.24c-.24-.19-.41-.38-.52-.53s-.42-.68-.42-.68l-.32-.52-.48-.98-.53-1.08-.35-.77-.29-.68-.2-.53-.19-.52-.24-.74-.28-.98s.64.7.99.96c.35.25,1.05.7,1.05.7l.96.48.56.25.59.26.4.2.55.34s.11.02.32.28c.21.27.32.44.37.52s.21.53.24.67.07.5.07.5c0,0,.04.35,0,.67s-.14.81-.14.81ZM283.55,331.43s-.06.38-.32.74-.24.41-.47.56-.4.23-.51.25-.32.06-.52-.07-.11-.06-.34-.26c-.23-.21-.4-.41-.51-.56-.11-.16-.4-.71-.4-.71l-.31-.54-.46-1.01-.5-1.12-.33-.79-.27-.7-.19-.54-.17-.53-.22-.75-.25-1s.62.75.96,1.02c.34.28,1.03.78,1.03.78l.94.55.55.29.58.3.4.23.54.37s.11.02.31.3c.2.28.31.46.35.54s.19.55.22.69.06.51.06.51c0,0,.03.35-.02.66s-.16.8-.16.8ZM278.24,337.02s-.07.38-.35.71c-.27.33-.25.38-.49.51-.24.13-.41.19-.52.2s-.32.03-.52-.12-.11-.07-.33-.3-.38-.44-.48-.61-.37-.75-.37-.75l-.29-.57-.42-1.05-.46-1.17-.3-.82-.24-.73-.17-.56-.15-.55-.19-.77-.22-1.02s.58.8.92,1.11c.33.31.99.87.99.87l.92.64.54.34.57.35.39.26.53.43s.11.03.3.33.29.49.33.58.17.56.19.71.04.51.04.51c0,0,.01.35-.04.66s-.19.79-.19.79ZM271.99,340.78s-.09.37-.38.67c-.29.3-.27.35-.52.46s-.41.15-.53.14-.32,0-.51-.18c-.19-.18-.1-.08-.31-.33-.21-.25-.36-.49-.45-.67-.09-.18-.34-.79-.34-.79l-.26-.6-.36-1.1-.4-1.22-.26-.85-.2-.75-.14-.57-.13-.56-.15-.79-.17-1.05s.55.87.86,1.22c.32.35.95.98.95.98l.88.74.52.4.55.42.37.31.51.49s.11.05.29.37.27.52.3.61.14.58.16.73.01.52.01.52c0,0,0,.35-.08.65s-.23.76-.23.76ZM265.66,343.14s-.11.35-.42.6c-.31.25-.29.31-.54.37-.25.06-.42.08-.53.05s-.32-.06-.5-.26-.1-.1-.29-.38-.33-.54-.41-.74c-.08-.19-.28-.84-.28-.84l-.22-.64-.29-1.15-.32-1.27-.2-.89-.15-.78-.1-.59-.09-.58-.1-.81-.1-1.07s.48.95.77,1.35.88,1.13.88,1.13l.83.88.49.48.52.51.35.37.47.57s.1.06.26.41.23.56.26.66.1.6.11.75-.02.52-.02.52c0,0-.03.35-.12.64s-.28.72-.28.72ZM46.69,412.97c-.79-1.09-1.03-2.63-.63-3.7.38-1.01,1.23-1.33,1.38-1.39.47-.17.86-.07,1.06-.01.25.07.93.27,1.49,1.13.42.66.54,1.38.66,2.14.08.48.09.8.14,1.67.03.6.08,1.58.15,2.88.02.24.06.57.1.98.07.64.14,1.18.17,1.37.14,1.03.45,2.16.68,2.91-.41-.42-.85-.92-1.3-1.51-.33-.43-.57-.79-.84-1.19-.1-.14-.46-.68-.92-1.43-.28-.46-.52-.86-.7-1.19-.33-.57-.67-1.16-1-1.79-.16-.29-.31-.58-.45-.87ZM84.26,400.39c-.15.03-.28.07-.39.11-.1.04-.2.08-.33.15-.08.05-.21.12-.35.26-.11.11-.19.21-.24.3-.06.1-.12.2-.19.3l-.12.27-.1.36s-.05.4-.04.53c0,.13.04.42.08.55.04.14.1.32.1.32l.17.36c.07.12.13.24.2.37.11.15.21.3.32.45.1.11.2.23.3.35.14.15.28.29.41.42.05.05.13.13.21.21.05.05.21.2.35.35.14.13.33.31.56.52.21.17.41.34.62.51.27.22.54.45.82.67l.96.76c.16.13.34.26.52.39.19.14.38.26.56.38.16.11.33.23.51.34.21.13.42.25.61.36.18.1.36.2.54.3.16.09.33.17.48.25-.12-.18-.3-.44-.52-.77-.33-.5-.54-.84-.79-1.33-.12-.23-.23-.47-.45-.94-.13-.28-.24-.52-.31-.68-.2-.5-.4-1-.6-1.5-.13-.38-.27-.77-.42-1.17-.1-.27-.2-.53-.3-.78-.08-.21-.17-.44-.28-.67-.06-.13-.12-.25-.18-.36-.17-.37-.35-.64-.49-.83-.2-.27-.37-.44-.43-.49-.28-.27-.52-.4-.58-.43-.19-.11-.34-.15-.38-.16-.07-.02-.22-.06-.42-.07-.12,0-.26,0-.43.04ZM123.03,391.31c-.05.14-.12.38-.11.67,0,.15.02.28.02.28.02.16.07.34.07.34h0c.02.05.04.11.06.17.03.08.06.15.09.21.04.06.08.12.12.19.04.05.08.1.13.15.06.06.11.1.16.14.05.04.09.07.14.11.07.05.13.09.2.13.13.06.25.12.38.19.1.05.21.1.33.14.18.07.36.1.51.13.22.03.43.06.65.09l.76.1.94.1.64.05.75.03c.15,0,.3,0,.46,0,.16,0,.32-.01.47-.02.11,0,.22-.01.33-.02.12-.01.23-.02.34-.04.07,0,.13-.02.2-.03.14-.02.28-.04.42-.06-.08-.03-.19-.08-.33-.14-.17-.08-.37-.17-.46-.22-.18-.1-.6-.34-.6-.34l-.38-.24-.56-.4-.51-.4-.35-.29-.46-.4-.44-.39-.39-.34-.39-.32s-.32-.24-.43-.31c-.11-.07-.23-.15-.36-.2-.13-.06-.3-.13-.41-.15-.11-.02-.3-.05-.38-.05-.08,0-.22.01-.22.01l-.21.04-.19.07-.24.13-.17.13-.15.15-.12.15-.13.19-.15.32ZM154.1,387.65c-.16-.13-.31-.27-.47-.4-.13-.1-.26-.21-.4-.31l-.4-.28c-.06-.04-.13-.08-.2-.12-.07-.04-.14-.07-.21-.1-.08-.03-.17-.07-.27-.1-.12-.03-.23-.06-.33-.07-.12-.01-.28,0-.47.04-.26.06-.44.19-.5.22-.1.07-.34.23-.55.58-.13.22-.19.4-.2.44-.05.17-.07.32-.07.39-.04.47.09.83.13.93.08.2.16.33.21.39.09.14.19.23.26.29.07.05.14.11.22.16.09.07.19.12.27.17.04.02.1.05.16.08.05.02.13.06.24.1.18.07.33.11.4.12,0,0,.83.16.83.16h0l1.07.14c.15.02.3.04.45.05.19.02.37.04.55.05.14.01.27.02.41.03.16,0,.32.02.47.02.1,0,.19,0,.29,0,.12,0,.23,0,.34,0,.12,0,.23,0,.36,0,.13,0,.26-.02.39-.03.16-.01.32-.03.48-.05.22-.03.43-.06.63-.09-.25-.1-.47-.2-.63-.28-.22-.11-.4-.21-.5-.27-.08-.05-.15-.09-.21-.12-.12-.08-.24-.16-.36-.24l-.66-.46-.51-.4-.66-.56-.56-.49ZM169.12,287.18c-.26.26-.38.58-.38.58-.08.15-.19.39-.27.72-.06.25-.08.48-.08.64,0,.18,0,.44.05.74.1.58.3.96.44,1.2.21.39.43.62.56.76.21.22.39.36.59.5.26.19.47.31.62.39.22.12.5.27.85.4.35.13.71.25,1.06.38l1.76.52,2.22.6s1.48.45,2.13.66c.65.22,1.56.57,2.69,1.05,1.14.48,2.6,1.4,2.6,1.4-.25-.39-.51-.79-.78-1.19-.18-.26-.36-.51-.53-.74-.25-.34-.52-.69-.8-1.04-.24-.31-.49-.6-.72-.87-.18-.2-.35-.41-.54-.61-.3-.34-.6-.66-.9-.97-.34-.36-.69-.72-1.05-1.07-.27-.27-.53-.53-.8-.79-.23-.23-.47-.47-.72-.7-.26-.25-.51-.49-.77-.72-.21-.2-.43-.4-.65-.6-.3-.27-.54-.46-.62-.53-.35-.28-.54-.44-.81-.62-.15-.1-.08-.05-.56-.34-.38-.23-.44-.27-.59-.35-.21-.09-.4-.16-.57-.2-.2-.08-.47-.16-.8-.19-.46-.04-.82.04-.98.08,0,0-1.05.43-1.05.43,0,0-.33.23-.58.49ZM95.8,296.83c-.23.02-.48-.07-.48-.07,0,0-.26-.1-.35-.17s-.4-.38-.46-.46-.16-.28-.33-.65c-.17-.37-.17-.55-.17-.55l-.18-.93-.1-.67-.12-.98-.12-.92-.24-1.59s-.25-1.17-.39-1.76c-.14-.59-.58-1.69-.58-1.69l.67.56.5.46.35.36.36.39.46.53.51.64.72.97.65.88.34.57s.35.56.45.75.21.49.32.9c.11.4.07.23.13.59.06.35,0,.68-.03.85-.03.18-.11.43-.26.78-.15.35-.18.31-.48.67-.3.36-.58.4-.58.4,0,0-.37.11-.6.13ZM103,292.53s.28-.03.58-.4.33-.32.48-.67c.15-.35.23-.6.26-.78s.1-.5.03-.85c-.06-.35-.02-.18-.13-.59-.11-.4-.23-.7-.32-.9s-.45-.75-.45-.75l-.34-.57-.65-.88-.72-.97-.51-.64-.46-.53-.36-.39-.35-.36-.5-.46-.67-.56s.44,1.1.58,1.69.39,1.76.39,1.76l.24,1.59.12.92.12.98.1.67.18.93s0,.18.17.55.28.57.33.65.36.39.46.46c.1.07.35.17.35.17,0,0,.25.09.48.07s.6-.13.6-.13ZM144.48,282.92s.28-.03.58-.4c.3-.36.33-.32.48-.67.15-.35.23-.6.26-.78s.1-.5.03-.85c-.06-.35-.02-.18-.13-.59s-.23-.7-.32-.9c-.1-.19-.45-.75-.45-.75l-.34-.57-.65-.88-.72-.97-.51-.64-.46-.53-.36-.39-.35-.36-.5-.46-.67-.56s.44,1.1.58,1.69c.14.59.39,1.76.39,1.76l.24,1.59.12.92.12.98.1.67.18.93s0,.18.17.55c.17.37.28.57.33.65s.36.39.46.46.35.17.35.17c0,0,.25.09.48.07s.6-.13.6-.13ZM137.29,282.8s.28-.03.58-.4c.3-.36.33-.32.48-.67.15-.35.23-.6.26-.78s.1-.5.03-.85c-.06-.35-.02-.18-.13-.59-.11-.4-.23-.7-.32-.9-.1-.19-.45-.75-.45-.75l-.34-.57-.65-.88-.72-.97-.51-.64-.46-.53-.36-.39-.35-.36-.5-.46-.67-.56s.44,1.1.58,1.69.39,1.76.39,1.76l.24,1.59.12.92.12.98.1.67.18.93s0,.18.17.55c.17.37.28.57.33.65s.36.39.46.46.35.17.35.17c0,0,.25.09.48.07s.6-.13.6-.13ZM130.05,283.97s.28-.03.58-.4c.3-.36.33-.32.48-.67.15-.35.23-.6.26-.78s.1-.5.03-.85c-.06-.35-.02-.18-.13-.59s-.23-.7-.32-.9-.45-.75-.45-.75l-.34-.57-.65-.88-.72-.97-.51-.64-.46-.53-.36-.39-.35-.36-.5-.46-.67-.56s.44,1.1.58,1.69.39,1.76.39,1.76l.24,1.59.12.92.12.98.1.67.18.93s0,.18.17.55.28.57.33.65.36.39.46.46c.1.07.35.17.35.17,0,0,.25.09.48.07s.6-.13.6-.13ZM123.35,285.64s.28-.03.58-.4c.3-.36.33-.32.48-.67s.23-.6.26-.78.1-.5.03-.85c-.06-.35-.02-.18-.13-.59-.11-.4-.23-.7-.32-.9s-.45-.75-.45-.75l-.34-.57-.65-.88-.72-.97-.51-.64-.46-.53-.36-.39-.35-.36-.5-.46-.67-.56s.44,1.1.58,1.69c.14.59.39,1.76.39,1.76l.24,1.59.12.92.12.98.1.67.18.93s0,.18.17.55c.17.37.28.57.33.65s.36.39.46.46c.1.07.35.17.35.17,0,0,.25.09.48.07s.6-.13.6-.13ZM116.68,287.04s.28-.03.58-.4c.3-.36.33-.32.48-.67s.23-.6.26-.78.1-.5.03-.85-.02-.18-.13-.59-.23-.7-.32-.9-.45-.75-.45-.75l-.34-.57-.65-.88-.72-.97-.51-.64-.46-.53-.36-.39-.35-.36-.5-.46-.67-.56s.44,1.1.58,1.69c.14.59.39,1.76.39,1.76l.24,1.59.12.92.12.98.1.67.18.93s0,.18.17.55.28.57.33.65.36.39.46.46c.1.07.35.17.35.17,0,0,.25.09.48.07.23-.02.6-.13.6-.13ZM109.88,289.51s.28-.03.58-.4c.3-.36.33-.32.48-.67s.23-.6.26-.78.1-.5.03-.85c-.06-.35-.02-.18-.13-.59-.11-.4-.23-.7-.32-.9s-.45-.75-.45-.75l-.34-.57-.65-.88-.72-.97-.51-.64-.46-.53-.36-.39-.35-.36-.5-.46-.67-.56s.44,1.1.58,1.69c.14.59.39,1.76.39,1.76l.24,1.59.12.92.12.98.1.67.18.93s0,.18.17.55c.17.37.28.57.33.65s.36.39.46.46c.1.07.35.17.35.17,0,0,.25.09.48.07.23-.02.6-.13.6-.13ZM74.31,315.1s.28-.08.55-.48c.27-.4.3-.37.43-.74s.19-.63.2-.81.06-.51-.03-.85-.04-.18-.18-.56c-.14-.38-.27-.67-.38-.85s-.5-.68-.5-.68l-.37-.52-.71-.79-.79-.86-.56-.57-.49-.47-.38-.33-.37-.3-.53-.39-.71-.46s.51,1.03.7,1.6.51,1.7.51,1.7l.35,1.55.18.9.19.96.15.65.25.9s.01.18.2.52.32.52.38.6.39.34.49.39.36.12.36.12c0,0,.25.06.48,0s.59-.22.59-.22ZM80.24,309.16s.28-.1.53-.53c.25-.43.29-.39.39-.78.1-.38.16-.65.17-.83,0-.18.04-.52-.07-.85s-.05-.18-.2-.55c-.16-.37-.3-.64-.42-.81s-.53-.64-.53-.64l-.4-.49-.74-.72-.82-.79-.58-.51-.51-.42-.39-.3-.39-.27-.55-.34-.73-.39s.56.98.77,1.53.59,1.65.59,1.65l.42,1.51.22.88.23.94.17.64.28.87s.02.18.23.5c.21.32.34.49.4.56s.4.3.5.34.37.08.37.08c0,0,.25.03.48-.04.23-.08.58-.27.58-.27ZM85.47,304.22s.28-.06.57-.44.32-.34.45-.71c.13-.36.21-.62.23-.8s.08-.51,0-.85c-.08-.35-.03-.18-.16-.57s-.25-.69-.36-.87-.47-.72-.47-.72l-.36-.55-.68-.83-.76-.91-.54-.6-.48-.5-.37-.36-.36-.33-.52-.42-.69-.51s.48,1.06.64,1.64.46,1.73.46,1.73l.3,1.57.15.91.16.97.12.66.22.91s0,.18.19.54c.18.35.3.54.36.62s.37.36.48.42.36.14.36.14c0,0,.25.07.48.03s.59-.18.59-.18ZM90.86,300.05s.28-.03.58-.4c.3-.36.33-.32.48-.67.15-.35.23-.6.26-.78s.1-.5.03-.85-.02-.18-.13-.59c-.11-.4-.23-.7-.32-.9s-.45-.75-.45-.75l-.34-.57-.65-.88-.72-.97-.51-.64-.46-.53-.36-.39-.35-.36-.5-.46-.67-.56s.44,1.1.58,1.69c.14.59.39,1.76.39,1.76l.24,1.59.12.92.12.98.1.67.18.93s0,.18.17.55c.17.37.28.57.33.65s.36.39.46.46.35.17.35.17c0,0,.25.09.48.07.23-.02.6-.13.6-.13ZM164.79,286.66s.28-.03.58-.4c.3-.36.33-.32.48-.67.15-.35.23-.6.26-.78.03-.18.1-.5.03-.85-.06-.35-.02-.18-.13-.59s-.23-.7-.32-.9c-.1-.19-.45-.75-.45-.75l-.34-.57-.65-.88-.72-.97-.51-.64-.46-.53-.36-.39-.35-.36-.5-.46-.67-.56s.44,1.1.58,1.69c.14.59.39,1.76.39,1.76l.24,1.59.12.92.12.98.1.67.18.93s0,.18.17.55c.17.37.28.57.33.65s.36.39.46.46.35.17.35.17c0,0,.25.09.48.07s.6-.13.6-.13ZM157.71,284.82s.28-.03.58-.4c.3-.36.33-.32.48-.67.15-.35.23-.6.26-.78.03-.18.1-.5.03-.85-.06-.35-.02-.18-.13-.59s-.23-.7-.32-.9c-.1-.19-.45-.75-.45-.75l-.34-.57-.65-.88-.72-.97-.51-.64-.46-.53-.36-.39-.35-.36-.5-.46-.67-.56s.44,1.1.58,1.69c.14.59.39,1.76.39,1.76l.24,1.59.12.92.12.98.1.67.18.93s0,.18.17.55c.17.37.28.57.33.65s.36.39.46.46.35.17.35.17c0,0,.25.09.48.07s.6-.13.6-.13ZM150.96,283.06s.28-.03.58-.4c.3-.36.33-.32.48-.67.15-.35.23-.6.26-.78s.1-.5.03-.85-.02-.18-.13-.59c-.11-.4-.23-.7-.32-.9-.1-.19-.45-.75-.45-.75l-.34-.57-.65-.88-.72-.97-.51-.64-.46-.53-.36-.39-.35-.36-.5-.46-.67-.56s.44,1.1.58,1.69c.14.59.39,1.76.39,1.76l.24,1.59.12.92.12.98.1.67.18.93s0,.18.17.55c.17.37.28.57.33.65s.36.39.46.46c.1.07.35.17.35.17,0,0,.25.09.48.07s.6-.13.6-.13ZM52.58,351.44s.28-.1.53-.53.29-.4.39-.78c.1-.38.16-.65.16-.83,0-.18.04-.52-.07-.85-.1-.33-.05-.17-.2-.54-.16-.37-.31-.64-.42-.81s-.53-.63-.53-.63l-.4-.48-.75-.71-.82-.78-.58-.51-.52-.42-.4-.29-.39-.27-.55-.34-.73-.39s.56.98.77,1.53c.21.55.59,1.64.59,1.64l.43,1.51.22.88.23.94.18.64.29.87s.02.18.23.5c.21.32.34.49.4.56s.4.3.51.34.37.08.37.08c0,0,.25.03.48-.05s.58-.28.58-.28ZM56.15,342.79s.28-.1.53-.53c.25-.43.29-.39.39-.78.1-.38.16-.65.17-.83s.04-.52-.07-.85c-.1-.33-.05-.17-.2-.54s-.3-.64-.42-.81-.53-.64-.53-.64l-.4-.49-.74-.72-.82-.79-.58-.51-.51-.42-.39-.3-.39-.27-.55-.34-.73-.39s.56.98.77,1.53c.21.55.59,1.65.59,1.65l.42,1.51.22.88.23.94.17.64.29.87s.02.18.23.5c.21.32.34.49.4.56s.4.3.51.34.37.08.37.08c0,0,.25.03.48-.04s.58-.28.58-.28ZM60.54,334.78s.27-.12.51-.56c.24-.44.28-.41.37-.8.09-.39.14-.66.14-.84,0-.18.02-.52-.09-.84-.11-.33-.05-.17-.21-.53-.17-.36-.32-.62-.44-.78s-.54-.61-.54-.61l-.41-.46-.76-.68-.84-.74-.59-.48-.53-.39-.4-.27-.39-.25-.56-.31-.74-.35s.58.95.81,1.49c.22.54.63,1.61.63,1.61l.46,1.49.24.87.26.93.19.63.31.86s.02.18.24.49.35.47.42.54.41.28.51.31.37.06.37.06c0,0,.25.02.48-.07s.57-.31.57-.31ZM64.71,327.07s.27-.11.52-.55c.24-.44.28-.4.38-.79.1-.39.15-.65.15-.84,0-.18.03-.52-.08-.85-.11-.33-.05-.17-.21-.54-.16-.36-.31-.63-.43-.79-.12-.16-.54-.62-.54-.62l-.4-.47-.75-.69-.84-.76-.59-.49-.52-.4-.4-.28-.39-.26-.56-.32-.74-.37s.57.96.79,1.51.61,1.63.61,1.63l.45,1.5.24.88.25.93.18.63.3.87s.02.18.24.5c.21.32.35.48.41.55s.4.29.51.33.37.07.37.07c0,0,.25.03.48-.06.23-.09.57-.29.57-.29ZM69.41,320.2s.28-.09.54-.51.29-.38.41-.76c.11-.38.17-.64.18-.82.01-.18.05-.52-.05-.85-.1-.34-.04-.18-.19-.55s-.29-.65-.41-.82-.51-.66-.51-.66l-.39-.5-.73-.75-.81-.82-.57-.54-.51-.44-.39-.31-.38-.28-.54-.36-.72-.42s.54,1,.74,1.56c.2.56.56,1.67.56,1.67l.39,1.53.2.89.21.95.16.64.27.89s.02.18.22.51c.2.33.33.51.39.58s.39.32.5.36.37.1.37.1c0,0,.25.04.48-.03s.58-.25.58-.25ZM48.06,402.82s.24-.22.38-.75.18-.51.19-.92c.01-.41,0-.69-.03-.86s-.08-.51-.25-.77c-.17-.27-.08-.14-.31-.42s-.43-.46-.58-.57c-.15-.1-.64-.36-.64-.36l-.49-.27-.86-.33-.96-.36-.66-.22-.58-.16-.44-.1-.43-.07-.6-.06-.78-.03s.75.67,1.07,1.09c.32.42.93,1.28.93,1.28l.74,1.24.41.73.43.78.31.52.47.7s.06.16.33.37c.27.21.43.31.51.34s.45.1.55.09.37-.09.37-.09c0,0,.25-.09.44-.27.2-.18.48-.53.48-.53ZM46.52,392.51s.27-.15.48-.62.25-.44.32-.84c.07-.4.1-.67.09-.85s0-.52-.14-.83c-.13-.31-.06-.17-.25-.51-.19-.34-.36-.58-.49-.73s-.58-.54-.58-.54l-.44-.41-.8-.58-.88-.63-.62-.41-.55-.32-.42-.22-.41-.2-.58-.24-.76-.26s.64.87.89,1.38c.26.51.73,1.53.73,1.53l.55,1.43.3.84.31.89.23.6.36.82s.04.17.27.46c.23.28.38.43.45.48s.42.23.53.25.37.02.37.02c0,0,.25-.01.47-.13.22-.12.55-.38.55-.38ZM46.66,381.82s.27-.14.49-.61c.22-.46.26-.44.33-.83.08-.4.11-.67.1-.85,0-.18,0-.52-.13-.83-.13-.31-.06-.17-.24-.51s-.35-.59-.48-.74c-.13-.15-.57-.55-.57-.55l-.43-.42-.79-.6-.88-.66-.61-.42-.54-.34-.41-.23-.4-.21-.57-.25-.75-.28s.63.89.88,1.41c.25.52.71,1.55.71,1.55l.53,1.44.29.84.3.9.22.61.35.83s.03.18.26.46c.23.29.37.44.44.5s.42.24.53.26.37.03.37.03c0,0,.25,0,.47-.12s.55-.36.55-.36ZM48.19,370.06s.26-.15.47-.63c.21-.47.25-.45.31-.85.07-.4.09-.67.08-.86,0-.18-.01-.52-.15-.83s-.06-.16-.25-.5c-.19-.34-.36-.58-.49-.72s-.58-.53-.58-.53l-.44-.4-.8-.57-.89-.62-.62-.4-.55-.31-.42-.22-.41-.19-.58-.23-.76-.25s.64.86.9,1.37c.26.5.74,1.52.74,1.52l.56,1.42.3.83.32.88.23.6.37.81s.04.17.27.45c.24.28.38.42.45.48s.42.22.53.24c.11.02.37,0,.37,0,0,0,.25-.02.47-.14s.55-.39.55-.39ZM50.08,359.96s.27-.14.49-.6c.22-.46.26-.43.34-.83s.11-.67.11-.85c0-.18,0-.52-.12-.84-.13-.32-.06-.17-.24-.52-.18-.35-.34-.6-.47-.75-.13-.15-.57-.56-.57-.56l-.43-.43-.79-.61-.87-.67-.61-.43-.54-.35-.41-.24-.4-.22-.57-.26-.75-.29s.62.9.86,1.42.69,1.56.69,1.56l.52,1.45.28.85.29.9.22.61.34.83s.03.18.26.47.37.45.44.5.42.25.53.27.37.03.37.03c0,0,.25,0,.47-.11.22-.11.56-.35.56-.35ZM140.07,314.33s.07.4.36.77c.29.37.27.42.54.58s.45.24.58.25.36.06.59-.08c.23-.14.12-.06.38-.28s.45-.42.57-.59.45-.74.45-.74l.34-.56.51-1.05.56-1.17.37-.82.3-.73.21-.56.19-.55.24-.78.28-1.04s-.69.78-1.08,1.07c-.39.29-1.16.81-1.16.81l-1.06.58-.62.3-.66.31-.45.24-.61.39s-.13.03-.35.32-.35.48-.4.57-.22.57-.25.72-.06.53-.06.53c0,0-.03.36.02.69.05.33.18.83.18.83ZM143.35,321.28s.05.4.33.79.26.44.51.61c.26.18.44.27.57.29s.36.09.59-.04c.24-.13.12-.05.39-.25.27-.2.46-.39.59-.55s.48-.71.48-.71l.36-.54.55-1.02.6-1.12.39-.8.32-.71.23-.55.21-.54.27-.77.32-1.02s-.72.73-1.11.99-1.18.73-1.18.73l-1.08.5-.63.26-.67.27-.45.21-.63.35s-.13.02-.36.29c-.24.28-.36.45-.42.54s-.23.55-.27.7c-.04.15-.08.52-.08.52,0,0-.04.36,0,.69s.15.85.15.85ZM147.5,328.09s.07.4.36.77c.29.37.27.42.53.58s.45.24.58.26.36.07.59-.07.12-.06.38-.27.45-.42.57-.59.45-.74.45-.74l.35-.56.51-1.05.56-1.16.37-.82.3-.73.21-.56.19-.55.25-.78.29-1.04s-.69.77-1.08,1.06c-.39.29-1.16.8-1.16.8l-1.06.57-.62.3-.66.31-.45.24-.61.39s-.13.02-.35.31c-.23.29-.35.47-.4.56s-.22.57-.25.72-.06.53-.06.53c0,0-.03.36.02.69s.18.83.18.83ZM153.5,333.89s.08.39.39.74c.31.35.29.4.56.53.27.14.46.2.58.21s.36.04.59-.13c.23-.16.12-.07.37-.31s.43-.46.54-.63c.11-.17.42-.78.42-.78l.32-.59.47-1.09.51-1.21.33-.85.27-.75.19-.58.17-.57.21-.8.24-1.06s-.66.83-1.03,1.15c-.37.32-1.12.9-1.12.9l-1.04.66-.61.35-.64.37-.44.27-.6.44s-.12.04-.34.35c-.22.31-.33.5-.37.6s-.19.58-.22.74-.04.53-.04.53c0,0-.01.36.05.69s.21.82.21.82ZM160.56,337.78s.1.38.43.7c.33.31.31.37.58.47.28.11.47.15.59.14s.36,0,.58-.19c.22-.19.12-.08.35-.35s.41-.5.51-.69c.1-.19.38-.82.38-.82l.29-.62.41-1.14.45-1.26.29-.88.23-.78.16-.6.14-.58.17-.82.19-1.08s-.62.9-.97,1.26c-.36.36-1.07,1.02-1.07,1.02l-1,.77-.59.41-.62.43-.42.32-.57.5s-.12.05-.32.38c-.2.33-.3.54-.34.64s-.16.6-.18.76-.01.54-.01.54c0,0,0,.36.09.68.08.31.26.79.26.79ZM167.7,340.23s.13.37.48.63c.35.26.33.32.61.38.28.06.48.08.6.05s.36-.06.56-.27.11-.1.33-.4c.22-.3.37-.56.46-.76.09-.2.32-.87.32-.87l.24-.66.33-1.2.36-1.32.22-.92.17-.81.12-.62.1-.6.11-.84.11-1.11s-.55.99-.87,1.4c-.33.41-.99,1.18-.99,1.18l-.94.92-.55.5-.59.53-.39.38-.53.59s-.12.07-.29.43c-.17.36-.26.58-.29.68-.03.1-.12.62-.12.78s.02.54.02.54c0,0,.03.36.13.66s.31.75.31.75Z"/>
    </g>
  </g>
</svg>